<?xml version="1.0" encoding="UTF-8" standalone="no"?>
<!-- Created with Inkscape (http://www.inkscape.org/) -->

<svg
   xmlns:dc="http://purl.org/dc/elements/1.1/"
   xmlns:cc="http://creativecommons.org/ns#"
   xmlns:rdf="http://www.w3.org/1999/02/22-rdf-syntax-ns#"
   xmlns:svg="http://www.w3.org/2000/svg"
   xmlns="http://www.w3.org/2000/svg"
   xmlns:sodipodi="http://sodipodi.sourceforge.net/DTD/sodipodi-0.dtd"
   xmlns:inkscape="http://www.inkscape.org/namespaces/inkscape"
   width="300mm"
   height="300mm"
   viewBox="0 0 300 300"
   version="1.1"
   id="svg1021"
   inkscape:version="0.92.5 (2060ec1f9f, 2020-04-08)"
   sodipodi:docname="aucune-excuse-100M.svg">
  <defs
     id="defs1015" />
  <sodipodi:namedview
     id="base"
     pagecolor="#ffffff"
     bordercolor="#666666"
     borderopacity="1.0"
     inkscape:pageopacity="0.0"
     inkscape:pageshadow="2"
     inkscape:zoom="0.49497475"
     inkscape:cx="398.89092"
     inkscape:cy="735.65702"
     inkscape:document-units="mm"
     inkscape:current-layer="layer1"
     showgrid="false"
     inkscape:window-width="1855"
     inkscape:window-height="1056"
     inkscape:window-x="65"
     inkscape:window-y="24"
     inkscape:window-maximized="1" />
  <metadata
     id="metadata1018">
    <rdf:RDF>
      <cc:Work
         rdf:about="">
        <dc:format>image/svg+xml</dc:format>
        <dc:type
           rdf:resource="http://purl.org/dc/dcmitype/StillImage" />
        <dc:title></dc:title>
      </cc:Work>
    </rdf:RDF>
  </metadata>
  <g
     inkscape:label="Layer 1"
     inkscape:groupmode="layer"
     id="layer1"
     transform="translate(0,3)">
    <path
       id="path6"
       d="m 93.148388,137.28314 h -7.621974 c -1.814609,0 -3.124706,-1.73684 -2.626192,-3.48164 l 2.731408,-9.55991 -4.67523,-0.20673 -3.219236,11.26733 c -0.335012,1.17254 -1.40673,1.98095 -2.626197,1.98095 H 56.756862 c -1.81461,0 -3.124709,-1.73684 -2.626197,-3.48164 l 2.651072,-9.27898 -10.178654,-0.0637 -3.243706,11.35298 c -0.278875,0.97606 -0.420353,1.98623 -0.420352,3.00136 v 20.32025 c 10e-7,4.02252 3.260905,7.28341 7.283434,7.28341 h 23.6713 c 10e-7,-5.85476 3.123481,-11.26478 8.193858,-14.19218 2.80159,-1.61749 5.78279,-2.30172 8.667241,-2.21226 z m 90.323602,0 h -11.63671 c -1.81461,0 -3.12471,-1.73684 -2.6262,-3.48165 l 2.69349,-9.42747 -4.77289,0.13537 -3.08366,10.79277 c -0.335,1.17254 -1.40672,1.98097 -2.62619,1.98097 h -18.35426 c -1.8146,-3e-5 -3.1247,-1.73686 -2.62619,-3.48165 l 2.67194,-9.35175 -4.71026,-0.0839 -3.12455,10.93635 c -0.33501,1.17255 -1.40673,1.98094 -2.62619,1.98095 h -18.3542 c -1.81463,0 -3.12472,-1.73684 -2.62622,-3.48164 l 2.59761,-9.09178 -4.68017,-0.18919 -3.08048,10.78166 c -0.33502,1.17255 -1.40675,1.98095 -2.6262,1.98095 h -7.810032 l -2.782753,13.00879 c 7.296015,1.39077 13.381305,7.70385 13.381305,16.12494 h 67.37181 c 0,-5.85477 3.1235,-11.26479 8.19385,-14.19218 1.08805,-0.62817 2.20316,-1.11558 3.3292,-1.47158 z m 5.57887,12.77876 c 9.06661,-0.76849 17.76557,6.28653 17.76557,16.35497 h 1.3e-4 21.85028 c 2.01127,1e-5 3.64174,-1.63044 3.64174,-3.64172 v -18.50123 c 0,-1.25227 -0.2153,-2.49522 -0.63648,-3.67454 l -5.2009,-14.5628 -3.60389,0.10643 2.67508,7.49029 c 0.63526,1.77874 -0.6834,3.64993 -2.57216,3.64993 h -21.79831 c -1.50845,0 -2.73129,-1.22284 -2.73129,-2.73128 v -8.7983 l -4.73422,0.19925 v 8.59905 c 0,1.50844 -1.22284,2.73128 -2.73129,2.73128 h -3.78391 z m -131.648882,-27.71027 2.451281,-8.5797 c 0.335015,-1.17256 1.406733,-1.98095 2.626197,-1.98095 h 18.354247 c 1.814606,2e-5 3.124703,1.73685 2.626194,3.48162 l -2.024813,7.08686 4.670206,0.22425 2.517664,-8.81178 c 0.335017,-1.17257 1.406724,-1.98095 2.626199,-1.98095 h 7.743708 l 0.664143,-7.28344 H 57.797368 c -3.25191,0 -6.109826,2.15574 -7.003193,5.28252 L 47.230424,122.2632 M 185.32221,111.79098 h 5.65291 c 1.50845,0 2.73129,1.22283 2.73129,2.73129 v 8.70753 l 4.73422,0.0664 v -8.77393 c 0,-1.50847 1.22284,-2.73129 2.73129,-2.73129 h 14.64492 c 1.15429,0 2.18395,0.72562 2.57217,1.81264 l 3.57943,10.02247 3.63578,-0.0172 -3.37849,-9.4599 c -0.37209,-1.04187 0.26326,-2.17209 1.34674,-2.3957 l -1.3e-4,-1e-5 c 0.84595,-0.17458 1.45282,-0.91951 1.45282,-1.78327 v -3.64172 c 0,-1.00565 -0.81523,-1.82087 -1.82087,-1.82086 h -38.44564 z m -3.00559,-7.28344 h -80.13588 l -0.13283,7.28344 h 7.55548 c 1.8146,0 3.12471,1.73682 2.62619,3.48162 l -2.08839,7.30938 4.69771,0.12778 2.55359,-8.93782 c 0.33501,-1.17257 1.40674,-1.98094 2.62621,-1.98094 h 18.35417 c 1.8146,1e-5 3.1247,1.73684 2.62619,3.48161 l -2.08423,7.29503 4.70775,0.0927 2.53952,-8.8884 c 0.33503,-1.17253 1.40675,-1.98092 2.6262,-1.98092 h 18.35425 c 1.81462,0 3.12472,1.73683 2.62621,3.48162 l -2.17794,7.62281 4.71022,0.0839 2.63062,-9.20741 c 0.33502,-1.17253 1.40674,-1.98093 2.62619,-1.98093 h 5.51016 z M 77.535474,166.41685 c 0,-9.81187 10.621666,-15.9443 19.119001,-11.03836 8.497275,4.90595 8.497275,17.17074 0,22.07669 -8.497308,4.90592 -19.118959,-1.22646 -19.119001,-11.03833 m 100.147236,0 c 0,-9.81187 10.62167,-15.9443 19.11901,-11.03836 8.49728,4.90595 8.49728,17.17074 0,22.07669 -8.49733,4.90592 -19.11896,-1.22646 -19.11901,-11.03833 z"
       inkscape:connector-curvature="0"
       style="opacity:1;fill:#cccccc;fill-rule:evenodd;stroke:none;stroke-width:0.26458332"
       sodipodi:nodetypes="cccccssscccccsscscccsccccsccccccscccssccccsccccccsccccccssccssccccscscccsccssccssccssscccccccsccccccsscccccccccssccccscccccccccc" />
    <path
       style="opacity:1;fill:#cccccc;fill-opacity:1;stroke:none;stroke-width:5.9920001;stroke-miterlimit:4;stroke-dasharray:17.97599939, 5.99199979;stroke-dashoffset:0;stroke-opacity:1"
       d="M 20.36261,104.50658 H 48.319209 L 39.39311,137.2727 v 29.17769 h -19.0305 z"
       id="rect1576"
       inkscape:connector-curvature="0"
       sodipodi:nodetypes="cccccc" />
    <path
       style="opacity:1;fill:#cccccc;fill-opacity:1;stroke:none;stroke-width:5.9920001;stroke-miterlimit:4;stroke-dasharray:17.97599951, 5.99199985;stroke-dashoffset:0;stroke-opacity:1"
       d="m 228.63743,104.50658 h 5.86413 l 42.59059,28.49258 -41.76016,33.45123 v -29.13071 l -8.7375,-24.59687 z"
       id="rect1578"
       inkscape:connector-curvature="0"
       sodipodi:nodetypes="ccccccc" />
    <path
       inkscape:connector-curvature="0"
       id="path1615"
       style="font-style:normal;font-variant:normal;font-weight:bold;font-stretch:normal;font-size:29.7144413px;line-height:125%;font-family:Tofino;-inkscape-font-specification:Tofino;letter-spacing:0px;word-spacing:0px;opacity:1;fill:#cccccc;fill-opacity:1;stroke:none;stroke-width:0.26458332px;stroke-linecap:butt;stroke-linejoin:miter;stroke-opacity:1"
       d="m 92.755719,207.30131 c 0,4.20385 0.393647,7.16734 1.180942,8.89046 0.787292,1.72313 2.101919,2.58469 3.943877,2.58469 1.82712,0 3.134332,-0.86156 3.921632,-2.58469 0.7873,-1.72312 1.18095,-4.68661 1.18095,-8.89046 l 8.57858,0.067 c 0,5.51104 -1.18838,9.76688 -3.56513,12.76749 -2.37675,2.9858 -5.74876,4.47869 -10.116032,4.47869 -4.382089,0 -7.76151,-1.49289 -10.138246,-4.47869 -2.376734,-3.00061 -3.565101,-7.25645 -3.565101,-12.76749 z m 10.215241,-1.98252 c -0.0718,-3.51222 -0.4614,-5.27501 -1.16879,-6.79655 -0.77244,-1.70828 -2.079654,-2.56241 -3.921632,-2.56241 -1.841958,0 -3.156585,0.85413 -3.943877,2.56241 -0.707951,1.52275 -1.0976,3.33798 -1.168948,6.85462 l -8.560387,-0.0562 c 0.198426,-4.80579 1.376748,-8.00866 3.534966,-10.71992 2.376736,-3.00064 5.756157,-4.50095 10.138246,-4.50095 4.367272,0 7.739282,1.50031 10.116032,4.50095 2.23985,2.81378 3.42427,5.64421 3.55329,10.71393"
       sodipodi:nodetypes="ccsccccscccccsccccscc" />
    <path
       inkscape:connector-curvature="0"
       id="path3193"
       style="font-style:normal;font-variant:normal;font-weight:bold;font-stretch:normal;font-size:18.30161667px;line-height:125%;font-family:Tofino;-inkscape-font-specification:Tofino;letter-spacing:0px;word-spacing:0px;fill:#cccccc;fill-opacity:1;stroke:none;stroke-width:0.26458332px;stroke-linecap:butt;stroke-linejoin:miter;stroke-opacity:1"
       d="m 20.966988,74.933184 h 12.911769 v 2.730595 H 29.233898 V 88.942753 H 25.62123 V 77.663779 h -4.654242 z" />
    <path
       inkscape:connector-curvature="0"
       id="path3325"
       style="font-style:normal;font-variant:normal;font-weight:bold;font-stretch:normal;font-size:18.30161667px;line-height:125%;font-family:Tofino;-inkscape-font-specification:Tofino;letter-spacing:0px;word-spacing:0px;fill:#cccccc;fill-opacity:1;stroke:none;stroke-width:0.26458332px;stroke-linecap:butt;stroke-linejoin:miter;stroke-opacity:1"
       d="m 42.943302,78.821793 c -0.05429,-0.44694 -0.177942,-0.639307 -0.441062,-0.857737 -0.325293,-0.275247 -0.866413,-0.412877 -1.623359,-0.412877 h -1.520129 v 1.129464 l -3.612668,0.0351 v -3.782539 h 5.517523 c 1.845433,0 3.196662,0.309657 4.053698,0.928964 0.863284,0.619307 1.294926,1.598321 1.294926,2.937035 z m 3.580193,1.014964 c -0.06227,0.726484 -0.211147,0.746864 -0.586874,1.242621 -0.444158,0.594287 -1.116638,1.032184 -2.017461,1.313694 0.494203,0.11259 0.935222,0.369077 1.323077,0.769444 0.394114,0.39411 0.791346,0.994644 1.191707,1.801621 l 1.961168,3.978616 H 44.547853 L 42.84005,85.461474 c -0.344068,-0.700637 -0.694384,-1.179194 -1.050959,-1.435681 -0.350326,-0.25648 -0.819497,-0.38472 -1.407532,-0.38472 h -1.022807 v 5.30168 h -3.612668 v -9.127636 l 3.542507,-0.0701 0.07016,1.400101 h 1.520129 c 0.756946,0 1.298066,-0.14075 1.623359,-0.422257 0.331552,-0.2815 0.497333,-0.18877 0.497333,-0.833104 z"
       sodipodi:nodetypes="ccsccccsccccccccccccsccccccsccc" />
    <path
       sodipodi:nodetypes="ccccccccccccccccccccc"
       inkscape:connector-curvature="0"
       id="path3180-3-7"
       style="font-style:normal;font-variant:normal;font-weight:bold;font-stretch:normal;font-size:15.70561504px;line-height:125%;font-family:Tofino;-inkscape-font-specification:Tofino;letter-spacing:0px;word-spacing:0px;opacity:1;fill:#cccccc;fill-opacity:1;stroke:none;stroke-width:0.26458332px;stroke-linecap:butt;stroke-linejoin:miter;stroke-opacity:1"
       d="m 51.787729,81.044878 2.267824,-6.122674 h 4.321459 l 2.357089,6.363674 -3.41629,0.055 -1.096814,-3.123492 -1.045519,2.854042 z m 3.110175,1.155304 -0.606973,1.609671 h 3.850714 l -0.575502,-1.531721 3.321201,-0.0229 2.696148,6.723371 H 59.939899 L 59.05489,86.417748 h -5.667795 l -0.894418,2.560855 h -3.643582 l 2.658015,-6.823911 z" />
    <path
       inkscape:connector-curvature="0"
       id="path3199"
       style="font-style:normal;font-variant:normal;font-weight:bold;font-stretch:normal;font-size:18.30161667px;line-height:125%;font-family:Tofino;-inkscape-font-specification:Tofino;letter-spacing:0px;word-spacing:0px;fill:#cccccc;fill-opacity:1;stroke:none;stroke-width:0.26458332px;stroke-linecap:butt;stroke-linejoin:miter;stroke-opacity:1"
       d="m 65.41688,74.933184 h 4.034928 l 5.09527,9.608706 v -9.608706 h 3.424997 v 14.009569 h -4.034928 l -5.09527,-9.608713 v 9.608713 H 65.41688 Z" />
    <path
       inkscape:connector-curvature="0"
       id="path3201"
       style="font-style:normal;font-variant:normal;font-weight:bold;font-stretch:normal;font-size:18.30161667px;line-height:125%;font-family:Tofino;-inkscape-font-specification:Tofino;letter-spacing:0px;word-spacing:0px;fill:#cccccc;fill-opacity:1;stroke:none;stroke-width:0.26458332px;stroke-linecap:butt;stroke-linejoin:miter;stroke-opacity:1"
       d="m 91.249805,75.374211 v 2.965182 q -1.154176,-0.516097 -2.252053,-0.778834 -1.097875,-0.26273 -2.073765,-0.26273 -1.29493,0 -1.914244,0.35657 -0.619315,0.356577 -0.619315,1.107244 0,0.563017 0.412876,0.882054 0.42226,0.309657 1.520136,0.534857 l 1.538903,0.309657 q 2.336505,0.469177 3.321778,1.426294 0.985273,0.957124 0.985273,2.721215 0,2.317735 -1.379382,3.453129 -1.369999,1.126014 -4.194449,1.126014 -1.332464,0 -2.674312,-0.25335 -1.341849,-0.253357 -2.683697,-0.750674 v -3.049632 q 1.341848,0.713144 2.589861,1.079094 1.257396,0.356577 2.420957,0.356577 1.182327,0 1.811025,-0.394107 0.628698,-0.39412 0.628698,-1.126024 0,-0.656837 -0.431643,-1.013424 -0.42226,-0.35657 -1.698423,-0.638077 l -1.39815,-0.30966 q -2.101915,-0.450397 -3.077805,-1.435661 -0.966506,-0.985274 -0.966506,-2.655535 0,-2.092518 1.351231,-3.218542 1.351232,-1.126014 3.884792,-1.126014 1.154177,0 2.374039,0.17828 1.219861,0.1689 2.524175,0.516097 z" />
    <path
       inkscape:connector-curvature="0"
       id="path3203"
       style="font-style:normal;font-variant:normal;font-weight:bold;font-stretch:normal;font-size:18.30161667px;line-height:125%;font-family:Tofino;-inkscape-font-specification:Tofino;letter-spacing:0px;word-spacing:0px;fill:#cccccc;fill-opacity:1;stroke:none;stroke-width:0.26458332px;stroke-linecap:butt;stroke-linejoin:miter;stroke-opacity:1"
       d="m 95.34103,78.93734 v -4.004156 h 5.99609 c 1.78288,0 3.14974,0.397227 4.10061,1.191704 0.82848,0.682254 1.29838,1.617621 1.40975,2.806082 l -3.73178,-0.0485 c -0.0692,-0.424567 -0.24918,-0.567137 -0.54,-0.824574 -0.3816,-0.337807 -0.92272,-0.506707 -1.62336,-0.506707 h -1.998646 l -0.04967,1.410971 z m 3.612664,1.076574 v 1.450184 h 1.998696 c 0.70064,0 1.24176,-0.1689 1.62336,-0.50671 0.3816,-0.344057 0.5724,-0.273227 0.5724,-0.898784 h 3.72527 c 0,1.470071 -0.47856,2.046698 -1.43569,2.841175 -0.95087,0.788204 -2.31773,1.182324 -4.10061,1.182324 h -2.383426 v 4.86065 H 95.34103 v -8.928849 z"
       sodipodi:nodetypes="ccscccsscccccsccccsccccc" />
    <path
       inkscape:connector-curvature="0"
       id="path3205"
       style="font-style:normal;font-variant:normal;font-weight:bold;font-stretch:normal;font-size:18.30161667px;line-height:125%;font-family:Tofino;-inkscape-font-specification:Tofino;letter-spacing:0px;word-spacing:0px;fill:#cccccc;fill-opacity:1;stroke:none;stroke-width:0.26458332px;stroke-linecap:butt;stroke-linejoin:miter;stroke-opacity:1"
       d="m 123.0319,82.507692 c 0,2.264545 -0.63808,3.485509 -1.91425,4.774183 -1.27616,1.288661 -3.04027,1.932988 -5.29232,1.932988 -2.24579,0 -4.0099,-0.644327 -5.29232,-1.932988 -1.27617,-1.288674 -1.91425,-2.509638 -1.91425,-4.774183 h 3.73466 c 0,1.470081 0.3034,2.056088 0.9102,2.869322 0.6068,0.813247 1.46071,1.219864 2.56171,1.219864 1.10726,0 1.96429,-0.406617 2.5711,-1.219864 0.6068,-0.813234 0.9102,-1.399241 0.9102,-2.869322 z m -14.3733,-1.507734 c 0.15753,-1.821978 0.78233,-3.284359 1.87441,-4.387133 1.28242,-1.288664 3.04653,-1.932991 5.29232,-1.932991 2.25205,0 4.01616,0.644327 5.29232,1.932991 1.10052,1.111304 1.72652,2.500095 1.87799,4.341773 l -3.73693,0.0336 c -0.10728,-1.020354 -0.39471,-1.843858 -0.86228,-2.470495 -0.60681,-0.813234 -1.46384,-1.219854 -2.5711,-1.219854 -1.101,0 -1.95491,0.40662 -2.56171,1.219854 -0.47793,0.640507 -0.76763,1.486701 -0.86914,2.538575 z"
       sodipodi:nodetypes="cssccccscccccsscccsscc" />
    <path
       inkscape:connector-curvature="0"
       id="path3209"
       style="font-style:normal;font-variant:normal;font-weight:bold;font-stretch:normal;font-size:18.30161667px;line-height:125%;font-family:Tofino;-inkscape-font-specification:Tofino;letter-spacing:0px;word-spacing:0px;fill:#cccccc;fill-opacity:1;stroke:none;stroke-width:0.26458332px;stroke-linecap:butt;stroke-linejoin:miter;stroke-opacity:1"
       d="m 138.02682,74.933184 h 12.91177 v 2.730595 h -4.64487 v 11.278974 h -3.61266 V 77.663779 h -4.65424 z" />
    <path
       inkscape:connector-curvature="0"
       id="path3211"
       style="font-style:normal;font-variant:normal;font-weight:bold;font-stretch:normal;font-size:18.30161667px;line-height:125%;font-family:Tofino;-inkscape-font-specification:Tofino;letter-spacing:0px;word-spacing:0px;fill:#cccccc;fill-opacity:1;stroke:none;stroke-width:0.26458332px;stroke-linecap:butt;stroke-linejoin:miter;stroke-opacity:1"
       d="m 162.55543,75.374211 v 2.965182 q -1.15418,-0.516097 -2.25206,-0.778834 -1.09787,-0.26273 -2.07376,-0.26273 -1.29493,0 -1.91425,0.35657 -0.61931,0.356577 -0.61931,1.107244 0,0.563017 0.41287,0.882054 0.42227,0.309657 1.52014,0.534857 l 1.53891,0.309657 q 2.3365,0.469177 3.32177,1.426294 0.98528,0.957124 0.98528,2.721215 0,2.317735 -1.37939,3.453129 -1.36999,1.126014 -4.19445,1.126014 -1.33246,0 -2.6743,-0.25335 -1.34186,-0.253357 -2.68371,-0.750674 v -3.049632 q 1.34185,0.713144 2.58986,1.079094 1.2574,0.356577 2.42097,0.356577 1.18233,0 1.81102,-0.394107 0.6287,-0.39412 0.6287,-1.126024 0,-0.656837 -0.43165,-1.013424 -0.42225,-0.35657 -1.69842,-0.638077 l -1.39815,-0.30966 q -2.10192,-0.450397 -3.07781,-1.435661 -0.9665,-0.985274 -0.9665,-2.655535 0,-2.092518 1.35123,-3.218542 1.35124,-1.126014 3.8848,-1.126014 1.15417,0 2.37403,0.17828 1.21986,0.1689 2.52418,0.516097 z" />
    <path
       inkscape:connector-curvature="0"
       id="path3213"
       style="font-style:normal;font-variant:normal;font-weight:bold;font-stretch:normal;font-size:18.30161667px;line-height:125%;font-family:Tofino;-inkscape-font-specification:Tofino;letter-spacing:0px;word-spacing:0px;fill:#cccccc;fill-opacity:1;stroke:none;stroke-width:0.26458332px;stroke-linecap:butt;stroke-linejoin:miter;stroke-opacity:1"
       d="m 175.41674,75.983418 c 1.28964,-0.869064 2.92356,-1.303584 4.90175,-1.303584 0.9321,0 1.82354,0.0876 2.67432,0.26274 0.85703,0.17516 1.66401,0.434757 2.42095,0.778824 v 2.899505 c -0.78195,-0.444157 -1.56079,-0.775707 -2.3365,-0.994654 -0.76946,-0.21894 -1.54204,-0.32842 -2.31774,-0.32842 -1.07609,0 -1.96847,0.2257 -2.67716,0.677087 z m 1.85376,2.577495 c -0.77571,0.800727 -1.0057,1.896018 -1.0057,3.391132 0,1.105444 0.20867,2.023098 0.62601,2.752942 l -2.93774,1.868861 c -0.94862,-1.218604 -1.42293,-2.759195 -1.42293,-4.621803 0,-2.258298 0.69439,-4.034919 2.08316,-5.32983 z m 0.22557,7.035971 c 0.75068,0.806984 1.71203,0.999994 3.09454,0.999994 0.37534,0 0.72254,-0.0219 1.04159,-0.0657 0.32529,-0.0501 0.61618,-0.12513 0.87267,-0.2252 v -2.721222 h -2.20514 v -2.420938 h 5.63013 v 6.737391 c -0.90082,0.4379 -1.83604,0.766327 -2.80569,0.985267 -0.96963,0.218947 -1.97054,0.328417 -3.00273,0.328417 -2.33337,0 -3.97146,-0.580427 -5.3352,-1.881591 z"
       sodipodi:nodetypes="csccccscccsccscccsccccccccscc" />
    <path
       inkscape:connector-curvature="0"
       id="path3219"
       style="font-style:normal;font-variant:normal;font-weight:bold;font-stretch:normal;font-size:18.30161667px;line-height:125%;font-family:Tofino;-inkscape-font-specification:Tofino;letter-spacing:0px;word-spacing:0px;fill:#cccccc;fill-opacity:1;stroke:none;stroke-width:0.26458332px;stroke-linecap:butt;stroke-linejoin:miter;stroke-opacity:1"
       d="m 215.61943,74.933184 h 12.91177 v 2.730595 h -4.64487 v 11.278974 h -3.61266 V 77.663779 h -4.65424 z" />
    <path
       inkscape:connector-curvature="0"
       id="path3221"
       style="font-style:normal;font-variant:normal;font-weight:bold;font-stretch:normal;font-size:18.30161667px;line-height:125%;font-family:Tofino;-inkscape-font-specification:Tofino;letter-spacing:0px;word-spacing:0px;fill:#cccccc;fill-opacity:1;stroke:none;stroke-width:0.26458332px;stroke-linecap:butt;stroke-linejoin:miter;stroke-opacity:1"
       d="m 230.39851,74.933184 h 3.61267 v 8.398232 q 0,1.735941 0.56301,2.486625 0.5724,0.741297 1.85795,0.741297 1.29493,0 1.85794,-0.741297 0.5724,-0.750684 0.5724,-2.486625 v -8.398232 h 3.61267 v 8.398232 q 0,2.974572 -1.49199,4.429016 -1.49198,1.454431 -4.55102,1.454431 -3.04965,0 -4.54164,-1.454431 -1.49199,-1.454444 -1.49199,-4.429016 z" />
    <path
       inkscape:connector-curvature="0"
       id="path3223"
       style="font-style:normal;font-variant:normal;font-weight:bold;font-stretch:normal;font-size:18.30161667px;line-height:125%;font-family:Tofino;-inkscape-font-specification:Tofino;letter-spacing:0px;word-spacing:0px;fill:#cccccc;fill-opacity:1;stroke:none;stroke-width:0.26458332px;stroke-linecap:butt;stroke-linejoin:miter;stroke-opacity:1"
       d="m 246.00336,74.933184 h 3.61267 v 14.009569 h -3.61267 z" />
    <path
       inkscape:connector-curvature="0"
       id="path3225"
       style="font-style:normal;font-variant:normal;font-weight:bold;font-stretch:normal;font-size:18.30161667px;line-height:125%;font-family:Tofino;-inkscape-font-specification:Tofino;letter-spacing:0px;word-spacing:0px;fill:#cccccc;fill-opacity:1;stroke:none;stroke-width:0.26458332px;stroke-linecap:butt;stroke-linejoin:miter;stroke-opacity:1"
       d="m 251.48337,74.933184 h 12.91177 v 2.730595 h -4.64486 v 11.278974 h -3.61267 V 77.663779 h -4.65424 z" />
    <path
       inkscape:connector-curvature="0"
       id="path3227"
       style="font-style:normal;font-variant:normal;font-weight:bold;font-stretch:normal;font-size:18.30161667px;line-height:125%;font-family:Tofino;-inkscape-font-specification:Tofino;letter-spacing:0px;word-spacing:0px;fill:#cccccc;fill-opacity:1;stroke:none;stroke-width:0.26458332px;stroke-linecap:butt;stroke-linejoin:miter;stroke-opacity:1"
       d="m 276.01198,75.374211 v 2.965182 q -1.15418,-0.516097 -2.25207,-0.778834 -1.09787,-0.26273 -2.07376,-0.26273 -1.29493,0 -1.91424,0.35657 -0.61932,0.356577 -0.61932,1.107244 0,0.563017 0.41288,0.882054 0.42226,0.309657 1.52014,0.534857 l 1.5389,0.309657 q 2.33651,0.469177 3.32177,1.426294 0.98528,0.957124 0.98528,2.721215 0,2.317735 -1.37939,3.453129 -1.36999,1.126014 -4.19444,1.126014 -1.33247,0 -2.67431,-0.25335 -1.34185,-0.253357 -2.68371,-0.750674 v -3.049632 q 1.34186,0.713144 2.58987,1.079094 1.25739,0.356577 2.42096,0.356577 1.18233,0 1.81102,-0.394107 0.62871,-0.39412 0.62871,-1.126024 0,-0.656837 -0.43166,-1.013424 -0.42225,-0.35657 -1.69841,-0.638077 l -1.39816,-0.30966 q -2.10192,-0.450397 -3.07781,-1.435661 -0.9665,-0.985274 -0.9665,-2.655535 0,-2.092518 1.35123,-3.218542 1.35124,-1.126014 3.8848,-1.126014 1.15418,0 2.37403,0.17828 1.21986,0.1689 2.52419,0.516097 z" />
    <text
       xml:space="preserve"
       style="font-style:normal;font-variant:normal;font-weight:normal;font-stretch:normal;font-size:26.3452034px;line-height:125%;font-family:Tofino;-inkscape-font-specification:Tofino;letter-spacing:0px;word-spacing:0px;opacity:1;fill:#cccccc;fill-opacity:1;stroke:none;stroke-width:0.26458335px;stroke-linecap:butt;stroke-linejoin:miter;stroke-opacity:1"
       x="114.75916"
       y="224.6151"
       id="text1725"><tspan
         sodipodi:role="line"
         id="tspan1723"
         x="114.75916"
         y="224.6151"
         style="font-weight:bold;fill:#cccccc;stroke-width:0.26458335px">M</tspan></text>
    <g
       aria-label="#"
       style="font-style:normal;font-variant:normal;font-weight:normal;font-stretch:normal;font-size:39.8807106px;line-height:125%;font-family:Tofino;-inkscape-font-specification:Tofino;letter-spacing:0px;word-spacing:0px;opacity:1;fill:#cccccc;fill-opacity:1;stroke:none;stroke-width:0.25197336px;stroke-linecap:butt;stroke-linejoin:miter;stroke-opacity:1"
       id="text1729"
       transform="matrix(1.0500448,0,0,1.0500448,-7.426145,-39.578912)">
      <path
         d="m 188.38725,237.58941 -0.57948,2.16995 h 5.53034 v 4.1867 h -6.54293 l -1.86941,7.45816 h -4.30353 l 1.8694,-7.45816 h -5.14087 l -1.86941,7.45816 h -4.34248 l 1.86941,-7.45816 h -5.43297 v -4.1867 h 6.38715 l 0.68464,-2.34543 4.28377,0.0322 -0.62593,2.31323 h 5.14087 l 0.66279,-2.22651 z m -4.06452,-1.26253 0.4862,-1.90312 h -5.14087 l -0.44756,1.81581 -4.3448,-0.0549 0.44988,-1.76095 h -5.51086 v -4.14775 h 6.58187 l 1.86941,-7.4971 h 4.34248 l -1.86941,7.4971 h 5.14088 l 1.88888,-7.4971 h 4.30353 l -1.88888,7.4971 h 5.39402 v 4.14775 h -6.42609 l -0.49884,1.9809 z"
         style="font-weight:bold;fill:#cccccc;stroke-width:0.25197336px"
         id="path3327"
         inkscape:connector-curvature="0"
         sodipodi:nodetypes="cccccccccccccccccccccccccccccccccccccccccc" />
    </g>
    <path
       sodipodi:nodetypes="ccccccccccccccccccccc"
       inkscape:connector-curvature="0"
       id="path3180"
       style="font-style:normal;font-variant:normal;font-weight:bold;font-stretch:normal;font-size:15.70561504px;line-height:125%;font-family:Tofino;-inkscape-font-specification:Tofino;letter-spacing:0px;word-spacing:0px;fill:#cccccc;fill-opacity:1;stroke:none;stroke-width:0.26458332px;stroke-linecap:butt;stroke-linejoin:miter;stroke-opacity:1"
       d="m 203.76637,199.53719 1.79934,-4.82139 h 3.69611 l 1.91076,4.95735 -2.81668,0.037 -0.9381,-2.17588 -0.89423,2.03543 z m 2.63982,0.92821 -0.63917,1.852 h 3.29349 l -0.58223,-1.69531 2.93061,-0.0395 2.306,6.15558 h -3.11634 l -0.75694,-2.1903 h -4.84763 l -0.76499,2.1903 h -3.11633 l 2.3934,-6.25127 z" />
    <path
       inkscape:connector-curvature="0"
       id="path3182"
       style="font-style:normal;font-variant:normal;font-weight:bold;font-stretch:normal;font-size:15.70561504px;line-height:125%;font-family:Tofino;-inkscape-font-specification:Tofino;letter-spacing:0px;word-spacing:0px;fill:#cccccc;fill-opacity:1;stroke:none;stroke-width:0.26458332px;stroke-linecap:butt;stroke-linejoin:miter;stroke-opacity:1"
       d="m 214.80198,194.7158 h 3.10022 v 7.20702 q 0,1.48972 0.48316,2.13392 0.4912,0.63615 1.5944,0.63615 1.11125,0 1.5944,-0.63615 0.49121,-0.6442 0.49121,-2.13392 v -7.20702 h 3.10022 v 7.20702 q 0,2.55266 -1.28035,3.80079 -1.28036,1.24815 -3.90548,1.24815 -2.61708,0 -3.89743,-1.24815 -1.28035,-1.24813 -1.28035,-3.80079 z" />
    <path
       inkscape:connector-curvature="0"
       id="path3184"
       style="font-style:normal;font-variant:normal;font-weight:bold;font-stretch:normal;font-size:15.70561504px;line-height:125%;font-family:Tofino;-inkscape-font-specification:Tofino;letter-spacing:0px;word-spacing:0px;fill:#cccccc;fill-opacity:1;stroke:none;stroke-width:0.26458332px;stroke-linecap:butt;stroke-linejoin:miter;stroke-opacity:1"
       d="m 237.72755,206.07793 q -0.85357,0.44289 -1.7796,0.66835 -0.92605,0.22548 -1.93262,0.22548 -3.00359,0 -4.75905,-1.67493 -1.75545,-1.68298 -1.75545,-4.55774 0,-2.8828 1.75545,-4.55773 1.75546,-1.68299 4.75905,-1.68299 1.00657,0 1.93262,0.22548 0.92603,0.22548 1.7796,0.66836 v 2.48823 q -0.86162,-0.58783 -1.69909,-0.86161 -0.83746,-0.27379 -1.7635,-0.27379 -1.65882,0 -2.60902,1.06293 -0.95021,1.06294 -0.95021,2.93112 0,1.86014 0.95021,2.92308 0.9502,1.06294 2.60902,1.06294 0.92604,0 1.7635,-0.27379 0.83747,-0.27379 1.69909,-0.86163 z" />
    <path
       inkscape:connector-curvature="0"
       id="path3186"
       style="font-style:normal;font-variant:normal;font-weight:bold;font-stretch:normal;font-size:15.70561504px;line-height:125%;font-family:Tofino;-inkscape-font-specification:Tofino;letter-spacing:0px;word-spacing:0px;fill:#cccccc;fill-opacity:1;stroke:none;stroke-width:0.26458332px;stroke-linecap:butt;stroke-linejoin:miter;stroke-opacity:1"
       d="m 240.29631,194.7158 h 3.10023 v 7.20702 q 0,1.48972 0.48315,2.13392 0.49121,0.63615 1.5944,0.63615 1.11125,0 1.59441,-0.63615 0.4912,-0.6442 0.4912,-2.13392 v -7.20702 h 3.10022 v 7.20702 q 0,2.55266 -1.28035,3.80079 -1.28035,1.24815 -3.90548,1.24815 -2.61707,0 -3.89742,-1.24815 -1.28036,-1.24813 -1.28036,-3.80079 z" />
    <path
       inkscape:connector-curvature="0"
       id="path3188"
       style="font-style:normal;font-variant:normal;font-weight:bold;font-stretch:normal;font-size:15.70561504px;line-height:125%;font-family:Tofino;-inkscape-font-specification:Tofino;letter-spacing:0px;word-spacing:0px;fill:#cccccc;fill-opacity:1;stroke:none;stroke-width:0.26458332px;stroke-linecap:butt;stroke-linejoin:miter;stroke-opacity:1"
       d="m 253.68769,194.7158 h 3.46258 l 4.37254,8.2458 v -8.2458 h 2.93917 v 12.02244 h -3.46259 l -4.37253,-8.2458 v 8.2458 h -2.93917 z" />
    <path
       inkscape:connector-curvature="0"
       id="path3190"
       style="font-style:normal;font-variant:normal;font-weight:bold;font-stretch:normal;font-size:15.70561504px;line-height:125%;font-family:Tofino;-inkscape-font-specification:Tofino;letter-spacing:0px;word-spacing:0px;fill:#cccccc;fill-opacity:1;stroke:none;stroke-width:0.26458332px;stroke-linecap:butt;stroke-linejoin:miter;stroke-opacity:1"
       d="m 267.48974,194.7158 h 8.36659 v 2.34329 h -5.26637 v 2.2386 h 4.95231 v 2.34329 h -4.95231 v 2.75397 h 5.44352 v 2.34329 h -8.54374 z" />
    <text
       xml:space="preserve"
       style="font-style:normal;font-variant:normal;font-weight:normal;font-stretch:normal;font-size:16.49160004px;line-height:125%;font-family:Tofino;-inkscape-font-specification:Tofino;letter-spacing:0px;word-spacing:0px;opacity:1;fill:#cccccc;fill-opacity:1;stroke:none;stroke-width:0.26458332px;stroke-linecap:butt;stroke-linejoin:miter;stroke-opacity:1"
       x="199.24249"
       y="222.76099"
       id="text1741"><tspan
         sodipodi:role="line"
         id="tspan1739"
         x="199.24249"
         y="222.76099"
         style="font-weight:bold;fill:#cccccc;stroke-width:0.26458332px">EXCUSE</tspan></text>
    <path
       sodipodi:nodetypes="ccsccccsccccccccccccsccccccsccc"
       d="m 132.95973,78.821793 c -0.0543,-0.44694 -0.17794,-0.639307 -0.44106,-0.857737 -0.32529,-0.275247 -0.86641,-0.412877 -1.62336,-0.412877 h -1.52013 v 1.129464 l -3.61267,0.0351 v -3.782539 h 5.51753 c 1.84543,0 3.19666,0.309657 4.0537,0.928964 0.86328,0.619307 1.29492,1.598321 1.29492,2.937035 z m 3.58019,1.014964 c -0.0623,0.726484 -0.21114,0.746864 -0.58687,1.242621 -0.44416,0.594287 -1.11664,1.032184 -2.01746,1.313694 0.4942,0.11259 0.93522,0.369077 1.32308,0.769444 0.39411,0.39411 0.79134,0.994644 1.1917,1.801621 l 1.96117,3.978616 h -3.84726 l -1.7078,-3.481279 c -0.34407,-0.700637 -0.69438,-1.179194 -1.05096,-1.435681 -0.35032,-0.25648 -0.8195,-0.38472 -1.40753,-0.38472 h -1.02281 v 5.30168 h -3.61267 v -9.127636 l 3.54251,-0.0701 0.0701,1.400101 h 1.52013 c 0.75695,0 1.29807,-0.14075 1.62336,-0.422257 0.33155,-0.2815 0.49733,-0.18877 0.49733,-0.833104 z"
       style="font-style:normal;font-variant:normal;font-weight:bold;font-stretch:normal;font-size:18.30161667px;line-height:125%;font-family:Tofino;-inkscape-font-specification:Tofino;letter-spacing:0px;word-spacing:0px;fill:#cccccc;fill-opacity:1;stroke:none;stroke-width:0.26458332px;stroke-linecap:butt;stroke-linejoin:miter;stroke-opacity:1"
       id="path3330"
       inkscape:connector-curvature="0" />
    <path
       inkscape:connector-curvature="0"
       id="path3332"
       style="font-style:normal;font-variant:normal;font-weight:bold;font-stretch:normal;font-size:18.30161667px;line-height:125%;font-family:Tofino;-inkscape-font-specification:Tofino;letter-spacing:0px;word-spacing:0px;fill:#cccccc;fill-opacity:1;stroke:none;stroke-width:0.26458332px;stroke-linecap:butt;stroke-linejoin:miter;stroke-opacity:1"
       d="m 196.30813,78.821773 c -0.0543,-0.44694 -0.17795,-0.639307 -0.44107,-0.857737 -0.32529,-0.275247 -0.86641,-0.412877 -1.62335,-0.412877 h -1.52013 v 1.129464 l -3.61267,0.0351 v -3.782529 h 5.51752 c 1.84543,0 3.19666,0.309657 4.0537,0.928964 0.86328,0.619307 1.29493,1.598321 1.29493,2.937035 z m 3.58019,1.014964 c -0.0623,0.726484 -0.21115,0.746864 -0.58687,1.242621 -0.44416,0.594287 -1.11664,1.032184 -2.01747,1.313694 0.49421,0.11259 0.93523,0.369077 1.32308,0.769444 0.39412,0.39411 0.79135,0.994644 1.19171,1.801621 l 1.96117,3.978606 h -3.84726 l -1.70781,-3.481269 c -0.34406,-0.700647 -0.69438,-1.179194 -1.05095,-1.435681 -0.35033,-0.25648 -0.8195,-0.38472 -1.40754,-0.38472 h -1.0228 v 5.30167 h -3.61267 v -9.127626 l 3.5425,-0.0701 0.0701,1.400101 h 1.52012 c 0.75695,0 1.29807,-0.14075 1.62336,-0.422257 0.33156,-0.2815 0.49734,-0.18877 0.49734,-0.833104 z"
       sodipodi:nodetypes="ccsccccsccccccccccccsccccccsccc" />
    <path
       d="m 205.63154,81.055868 2.26782,-6.122684 h 4.32146 l 2.35709,6.363674 -3.41629,0.055 -1.09682,-3.123492 -1.04551,2.854042 z m 3.11018,1.155304 -0.60698,1.609671 h 3.85071 l -0.5755,-1.531731 3.3212,-0.0229 2.69615,6.723381 h -3.64359 l -0.88501,-2.560855 h -5.6678 l -0.89442,2.560855 h -3.64358 l 2.65802,-6.823921 z"
       style="font-style:normal;font-variant:normal;font-weight:bold;font-stretch:normal;font-size:15.70561504px;line-height:125%;font-family:Tofino;-inkscape-font-specification:Tofino;letter-spacing:0px;word-spacing:0px;opacity:1;fill:#cccccc;fill-opacity:1;stroke:none;stroke-width:0.26458332px;stroke-linecap:butt;stroke-linejoin:miter;stroke-opacity:1"
       id="path3334"
       inkscape:connector-curvature="0"
       sodipodi:nodetypes="ccccccccccccccccccccc" />
    <path
       inkscape:connector-curvature="0"
       id="path882"
       style="font-style:normal;font-variant:normal;font-weight:bold;font-stretch:normal;font-size:42.84928513px;line-height:125%;font-family:Tofino;-inkscape-font-specification:Tofino;letter-spacing:0px;word-spacing:0px;fill:#cccccc;fill-opacity:1;stroke:none;stroke-width:0.26458335px;stroke-linecap:butt;stroke-linejoin:miter;stroke-opacity:1"
       d="m 21.28782,218.66815 h 7.600581 v -21.5722 l -7.80177,1.60953 v -5.85692 l 7.757056,-1.60953 h 8.181792 v 27.42912 h 7.600571 v 5.94634 H 21.28782 Z" />
    <path
       sodipodi:nodetypes="ccsccccscccccsccccscc"
       d="m 58.861126,207.30131 c 0,4.20385 0.393647,7.16734 1.180943,8.89046 0.787292,1.72313 2.101922,2.58469 3.943893,2.58469 1.827115,0 3.134318,-0.86156 3.921611,-2.58469 0.787295,-1.72312 1.180942,-4.68661 1.180942,-8.89046 l 8.57853,0.067 c 0,5.51104 -1.188371,9.76688 -3.565103,12.76749 -2.376736,2.9858 -5.748729,4.47869 -10.11598,4.47869 -4.382106,0 -7.761527,-1.49289 -10.138262,-4.47869 -2.376735,-3.00061 -3.565102,-7.25645 -3.565102,-12.76749 z m 10.215222,-1.98252 c -0.0718,-3.51222 -0.461392,-5.27501 -1.168775,-6.79655 -0.772437,-1.70828 -2.079641,-2.56241 -3.921611,-2.56241 -1.841971,0 -3.156601,0.85413 -3.943893,2.56241 -0.707951,1.52275 -1.097601,3.33798 -1.168948,6.85462 l -8.560387,-0.0562 c 0.198425,-4.80579 1.376748,-8.00866 3.534966,-10.71992 2.376735,-3.00064 5.756156,-4.50095 10.138262,-4.50095 4.367251,0 7.739244,1.50031 10.11598,4.50095 2.239827,2.81378 3.42425,5.64421 3.553269,10.71393"
       style="font-style:normal;font-variant:normal;font-weight:bold;font-stretch:normal;font-size:29.7144413px;line-height:125%;font-family:Tofino;-inkscape-font-specification:Tofino;letter-spacing:0px;word-spacing:0px;opacity:1;fill:#cccccc;fill-opacity:1;stroke:none;stroke-width:0.26458332px;stroke-linecap:butt;stroke-linejoin:miter;stroke-opacity:1"
       id="path880"
       inkscape:connector-curvature="0" />
  </g>
</svg>
