<?xml version="1.0" encoding="UTF-8" standalone="no"?>
<!-- Created with Inkscape (http://www.inkscape.org/) -->

<svg
   xmlns:dc="http://purl.org/dc/elements/1.1/"
   xmlns:cc="http://creativecommons.org/ns#"
   xmlns:rdf="http://www.w3.org/1999/02/22-rdf-syntax-ns#"
   xmlns:svg="http://www.w3.org/2000/svg"
   xmlns="http://www.w3.org/2000/svg"
   xmlns:sodipodi="http://sodipodi.sourceforge.net/DTD/sodipodi-0.dtd"
   xmlns:inkscape="http://www.inkscape.org/namespaces/inkscape"
   width="148mm"
   height="105mm"
   viewBox="0 0 148 105"
   version="1.1"
   id="svg1021"
   sodipodi:docname="aucune-excuse.svg"
   inkscape:version="0.92.5 (2060ec1f9f, 2020-04-08)">
  <defs
     id="defs1015" />
  <sodipodi:namedview
     id="base"
     pagecolor="#ffffff"
     bordercolor="#666666"
     borderopacity="1.0"
     inkscape:pageopacity="0.0"
     inkscape:pageshadow="2"
     inkscape:zoom="0.7"
     inkscape:cx="269.8502"
     inkscape:cy="267.47778"
     inkscape:document-units="mm"
     inkscape:current-layer="layer1"
     showgrid="false"
     inkscape:window-width="1855"
     inkscape:window-height="1056"
     inkscape:window-x="65"
     inkscape:window-y="24"
     inkscape:window-maximized="1" />
  <metadata
     id="metadata1018">
    <rdf:RDF>
      <cc:Work
         rdf:about="">
        <dc:format>image/svg+xml</dc:format>
        <dc:type
           rdf:resource="http://purl.org/dc/dcmitype/StillImage" />
        <dc:title></dc:title>
      </cc:Work>
    </rdf:RDF>
  </metadata>
  <g
     inkscape:label="Layer 1"
     inkscape:groupmode="layer"
     id="layer1"
     transform="translate(0,-192)">
    <path
       id="path6-3"
       d="m 21.854529,228.52725 1.839307,-6.43756 c 0.46108,-1.61378 1.936095,-2.72639 3.614449,-2.72639 h 85.368875 c 0.51902,0 0.93977,0.42075 0.93977,0.93978 v 1.87954 c 0,0.44581 -0.31321,0.83026 -0.74982,0.92038 h 7e-5 c -0.55921,0.11541 -0.88712,0.69873 -0.69507,1.23645 l 1.74368,4.8824 0.44746,1.25291 2.68427,7.51608 c 0.21738,0.60867 0.3285,1.25017 0.3285,1.89648 v 9.54875 c 0,1.03805 -0.84151,1.87955 -1.87955,1.87955 h -11.27726 -6e-5 c 0,-6.51093 -7.048272,-10.58026 -12.686879,-7.3248 -2.616878,1.51087 -4.228939,4.30307 -4.228939,7.3248 h -34.77157 c 0,-6.51093 -7.048292,-10.58026 -12.686915,-7.3248 -2.616893,1.51087 -4.228973,4.30307 -4.228973,7.3248 H 23.398768 c -2.076092,0 -3.759091,-1.683 -3.759091,-3.75909 v -10.48755 c 0,-0.52393 0.07302,-1.04529 0.216952,-1.54905 l 1.674122,-5.85944 m 91.025609,6.61879 h -11.25044 c -0.77854,0 -1.409657,-0.63112 -1.409657,-1.40966 v -4.54094 -1.26826 -4.52837 c 0,-0.77853 0.631117,-1.40965 1.409657,-1.40965 h 7.55847 c 0.59574,0 1.12716,0.3745 1.32753,0.93553 l 1.84739,5.17275 0.46391,1.29896 1.38066,3.86586 c 0.32786,0.91803 -0.35271,1.88378 -1.32752,1.88378 z m -16.513136,0 h -9.878293 c -0.936547,0 -1.612701,-0.89641 -1.355414,-1.79693 l 1.390144,-4.86566 0.205657,-0.71983 1.357684,-4.75208 c 0.172917,-0.60516 0.726044,-1.02239 1.355431,-1.02238 h 6.924791 c 0.778527,0 1.409651,0.63112 1.409651,1.40965 v 4.49409 1.40537 4.43811 c 0,0.77854 -0.631124,1.40966 -1.409651,1.40966 z m -15.253843,0 h -9.472903 c -0.936548,0 -1.612703,-0.89641 -1.355419,-1.79693 l 1.379029,-4.82658 0.26387,-0.92356 1.310695,-4.58743 c 0.172909,-0.60516 0.726042,-1.02239 1.355419,-1.02238 h 9.472891 c 0.936544,0 1.612711,0.89641 1.355414,1.79691 l -1.124054,3.93425 -0.23801,0.833 -1.591511,5.57032 c -0.172906,0.60517 -0.726028,1.0224 -1.355421,1.0224 z m -14.848358,0 h -9.472887 c -0.936559,0 -1.612714,-0.89641 -1.35543,-1.79693 l 1.340665,-4.69241 0.294903,-1.03221 1.317951,-4.61295 c 0.172898,-0.60516 0.726037,-1.02239 1.355414,-1.02238 h 9.472865 c 0.936548,0 1.612703,0.89641 1.355408,1.79691 l -1.075687,3.76508 -0.265167,0.92807 -1.612638,5.64442 c -0.172898,0.60516 -0.72602,1.0224 -1.355397,1.0224 z m -14.848461,0 h -9.4729 c -0.936551,0 -1.61271,-0.89641 -1.355423,-1.79693 l 1.409717,-4.93401 0.24447,-0.85565 1.299409,-4.54791 c 0.172896,-0.60516 0.726029,-1.02238 1.355418,-1.02238 h 9.472893 c 0.936548,0 1.612708,0.89641 1.355419,1.79691 l -1.07785,3.77248 -0.285863,1.00052 -1.589882,5.56457 c -0.172897,0.60517 -0.726025,1.0224 -1.355408,1.0224 z m -23.988344,-7.70638 1.265147,-4.42812 c 0.172906,-0.60516 0.72603,-1.02238 1.355419,-1.02238 h 9.472901 c 0.936542,0 1.612702,0.89641 1.355413,1.79691 l -1.045034,3.65763 -0.247056,0.8647 -1.661495,5.81524 c -0.172906,0.60517 -0.726029,1.0224 -1.355419,1.0224 h -9.472828 c -0.936548,0 -1.612708,-0.89641 -1.355419,-1.79693 l 1.368259,-4.78902 m 10.711314,21.62229 c 0,-5.06405 5.481999,-8.22909 9.867601,-5.69706 4.385573,2.53203 4.385573,8.86206 0,11.39409 -4.385598,2.53202 -9.867585,-0.63299 -9.867601,-5.69703 m 51.687433,0 c 0,-5.06406 5.48198,-8.22909 9.867543,-5.69706 4.385574,2.53203 4.385574,8.86206 0,11.39409 -4.385563,2.53203 -9.867523,-0.63299 -9.867543,-5.69703 z"
       inkscape:connector-curvature="0"
       style="fill:#000000;fill-opacity:1;fill-rule:evenodd;stroke:none;stroke-width:0.26458332"
       sodipodi:nodetypes="csscsccccccccscccsccscssccccssccssscccccssccccsssccssscccccssccccscscccccccccccscccccsssccssccscsccssscccccccccc" />
    <path
       style="opacity:1;fill:#000000;fill-opacity:1;stroke:none;stroke-width:5.99200058;stroke-miterlimit:4;stroke-dasharray:17.97600019, 5.99200005;stroke-dashoffset:0;stroke-opacity:1"
       d="M 8.3793772,219.38297 H 22.774021 L 18.178039,236.254 v 15.02337 H 8.3793772 Z"
       id="rect1576"
       inkscape:connector-curvature="0"
       sodipodi:nodetypes="cccccc" />
    <path
       style="opacity:1;fill:#000000;fill-opacity:1;stroke:none;stroke-width:5.99200058;stroke-miterlimit:4;stroke-dasharray:17.97600031, 5.99200011;stroke-dashoffset:0;stroke-opacity:1"
       d="m 115.61843,219.38297 h 3.0194 l 21.92957,14.67062 -21.50199,17.22378 v -14.99918 l -4.49887,-12.66475 z"
       id="rect1578"
       inkscape:connector-curvature="0"
       sodipodi:nodetypes="ccccccc" />
    <path
       inkscape:connector-curvature="0"
       id="path1615"
       style="font-style:normal;font-variant:normal;font-weight:bold;font-stretch:normal;font-size:29.7144413px;line-height:125%;font-family:Tofino;-inkscape-font-specification:Tofino;letter-spacing:0px;word-spacing:0px;opacity:1;fill:#000000;fill-opacity:1;stroke:none;stroke-width:0.26458332px;stroke-linecap:butt;stroke-linejoin:miter;stroke-opacity:1"
       d="m 46.190599,269.53691 c 0,-0.21737 -0.0021,-0.42821 -0.0063,-0.6325 -0.03697,-1.80842 -0.237568,-3.10435 -0.601794,-3.88777 -0.397722,-0.87958 -1.070792,-1.31937 -2.019208,-1.31937 -0.948417,0 -1.625311,0.43979 -2.030682,1.31937 -0.364518,0.78405 -0.565146,2.08143 -0.601882,3.89212 -0.0041,0.20294 -0.0062,0.41232 -0.0062,0.62815 0,2.16454 0.202686,3.69041 0.608059,4.57764 0.405371,0.88722 1.082264,1.33083 2.030681,1.33083 0.940768,0 1.613837,-0.44361 2.019208,-1.33083 0.405373,-0.88723 0.608059,-2.4131 0.608059,-4.57764 z m 4.417034,0.0345 c 0,2.83759 -0.611887,5.02889 -1.835655,6.57389 -1.223767,1.53736 -2.959981,2.30604 -5.208646,2.30604 -2.256313,0 -3.996352,-0.76868 -5.220115,-2.30604 -1.223763,-1.545 -1.835645,-3.7363 -1.835645,-6.57389 0,-0.2616 0.0052,-0.51766 0.01552,-0.76819 0.102168,-2.47447 0.708878,-4.40971 1.820128,-5.80571 1.223763,-1.54501 2.963802,-2.31751 5.220116,-2.31751 2.248665,0 3.984879,0.7725 5.208645,2.31751 1.153277,1.44879 1.763131,3.47836 1.829562,6.08871 0.0038,0.15956 0.0061,0.32129 0.0061,0.48519 z"
       sodipodi:nodetypes="sscscsscscsscscsscscss" />
    <text
       xml:space="preserve"
       style="font-style:normal;font-variant:normal;font-weight:normal;font-stretch:normal;font-size:9.89495659px;line-height:125%;font-family:Tofino;-inkscape-font-specification:Tofino;letter-spacing:0px;word-spacing:0px;opacity:1;fill:#000000;fill-opacity:1;stroke:none;stroke-width:0.26458332px;stroke-linecap:butt;stroke-linejoin:miter;stroke-opacity:1"
       x="8.6422577"
       y="212.03656"
       id="text1721"><tspan
         sodipodi:role="line"
         id="tspan1719"
         x="8.6422577"
         y="212.03656"
         style="font-weight:bold;fill:#000000;stroke-width:0.26458332px">TRANSPORTS GRATUITS</tspan></text>
    <text
       xml:space="preserve"
       style="font-style:normal;font-variant:normal;font-weight:normal;font-stretch:normal;font-size:13.56494904px;line-height:125%;font-family:Tofino;-inkscape-font-specification:Tofino;letter-spacing:0px;word-spacing:0px;opacity:1;fill:#000000;fill-opacity:1;stroke:none;stroke-width:0.26458335px;stroke-linecap:butt;stroke-linejoin:miter;stroke-opacity:1"
       x="52.253998"
       y="277.48972"
       id="text1725"><tspan
         sodipodi:role="line"
         id="tspan1723"
         x="52.253998"
         y="277.48972"
         style="font-weight:bold;fill:#000000;stroke-width:0.26458335px">M</tspan></text>
    <text
       xml:space="preserve"
       style="font-style:normal;font-variant:normal;font-weight:normal;font-stretch:normal;font-size:21.56191444px;line-height:125%;font-family:Tofino;-inkscape-font-specification:Tofino;letter-spacing:0px;word-spacing:0px;opacity:1;fill:#000000;fill-opacity:1;stroke:none;stroke-width:0.26458332px;stroke-linecap:butt;stroke-linejoin:miter;stroke-opacity:1"
       x="83.209023"
       y="278.17606"
       id="text1729"><tspan
         sodipodi:role="line"
         id="tspan1727"
         x="83.209023"
         y="278.17606"
         style="font-weight:bold;fill:#000000;stroke-width:0.26458332px">#</tspan></text>
    <text
       xml:space="preserve"
       style="font-style:normal;font-variant:normal;font-weight:normal;font-stretch:normal;font-size:8.49140167px;line-height:125%;font-family:Tofino;-inkscape-font-specification:Tofino;letter-spacing:0px;word-spacing:0px;opacity:1;fill:#000000;fill-opacity:1;stroke:none;stroke-width:0.26458332px;stroke-linecap:butt;stroke-linejoin:miter;stroke-opacity:1"
       x="101.40477"
       y="269.0787"
       id="text1733"><tspan
         sodipodi:role="line"
         x="101.40477"
         y="269.0787"
         style="font-weight:bold;fill:#000000;stroke-width:0.26458332px"
         id="tspan1735">AUCUNE</tspan></text>
    <text
       xml:space="preserve"
       style="font-style:normal;font-variant:normal;font-weight:normal;font-stretch:normal;font-size:8.49140167px;line-height:125%;font-family:Tofino;-inkscape-font-specification:Tofino;letter-spacing:0px;word-spacing:0px;opacity:1;fill:#000000;fill-opacity:1;stroke:none;stroke-width:0.26458332px;stroke-linecap:butt;stroke-linejoin:miter;stroke-opacity:1"
       x="100.48332"
       y="277.32843"
       id="text1741"><tspan
         sodipodi:role="line"
         id="tspan1739"
         x="100.48332"
         y="277.32843"
         style="font-weight:bold;fill:#000000;stroke-width:0.26458332px">EXCUSE</tspan></text>
    <text
       xml:space="preserve"
       style="font-style:normal;font-variant:normal;font-weight:normal;font-stretch:normal;font-size:3.8146584px;line-height:125%;font-family:Tofino;-inkscape-font-specification:Tofino;letter-spacing:0px;word-spacing:0px;fill:#000000;fill-opacity:1;stroke:none;stroke-width:0.26458332px;stroke-linecap:butt;stroke-linejoin:miter;stroke-opacity:1"
       x="8.2352629"
       y="291.20602"
       id="text3655"><tspan
         sodipodi:role="line"
         x="8.2352629"
         y="291.20602"
         style="stroke-width:0.26458332px"
         id="tspan3657">Recouvrement uniquement : sous ce sticker, des idées nauséabondes.</tspan></text>
    <path
       inkscape:connector-curvature="0"
       id="path3667"
       style="font-style:normal;font-variant:normal;font-weight:bold;font-stretch:normal;font-size:23.94311142px;line-height:125%;font-family:Tofino;-inkscape-font-specification:Tofino;letter-spacing:0px;word-spacing:0px;fill:#000000;fill-opacity:1;stroke:none;stroke-width:0.26458332px;stroke-linecap:butt;stroke-linejoin:miter;stroke-opacity:1"
       d="m 8.3747921,275.18473 h 3.9749309 v -11.28179 l -4.0801496,0.84175 v -3.06304 l 4.0567676,-0.84175 h 4.278896 v 14.34483 h 3.97493 v 3.1098 H 8.3747921 Z" />
    <path
       sodipodi:nodetypes="sscscsscscsscscsscscss"
       d="m 30.741223,269.53691 c 0,-0.21737 -0.0021,-0.42821 -0.0063,-0.6325 -0.03697,-1.80842 -0.237567,-3.10435 -0.601794,-3.88777 -0.397722,-0.87958 -1.070791,-1.31937 -2.019208,-1.31937 -0.948417,0 -1.62531,0.43979 -2.030681,1.31937 -0.364519,0.78405 -0.565146,2.08143 -0.601883,3.89212 -0.0041,0.20294 -0.0062,0.41232 -0.0062,0.62815 0,2.16454 0.202686,3.69041 0.608058,4.57764 0.405371,0.88722 1.082265,1.33083 2.030682,1.33083 0.940768,0 1.613837,-0.44361 2.019208,-1.33083 0.405373,-0.88723 0.608059,-2.4131 0.608059,-4.57764 z m 4.417019,0.0345 c 0,2.83759 -0.611881,5.02889 -1.835644,6.57389 -1.223763,1.53736 -2.959977,2.30604 -5.208642,2.30604 -2.256314,0 -3.996352,-0.76868 -5.220116,-2.30604 -1.223763,-1.545 -1.835644,-3.7363 -1.835644,-6.57389 0,-0.2616 0.0052,-0.51766 0.01552,-0.76819 0.102168,-2.47447 0.708877,-4.40971 1.820128,-5.80571 1.223763,-1.54501 2.963802,-2.31751 5.220115,-2.31751 2.248665,0 3.98488,0.7725 5.208643,2.31751 1.153269,1.44879 1.76312,3.47836 1.829553,6.08871 0.0041,0.15956 0.0061,0.32129 0.0061,0.48519 z"
       style="font-style:normal;font-variant:normal;font-weight:bold;font-stretch:normal;font-size:29.7144413px;line-height:125%;font-family:Tofino;-inkscape-font-specification:Tofino;letter-spacing:0px;word-spacing:0px;opacity:1;fill:#000000;fill-opacity:1;stroke:none;stroke-width:0.26458332px;stroke-linecap:butt;stroke-linejoin:miter;stroke-opacity:1"
       id="path3665"
       inkscape:connector-curvature="0" />
  </g>
</svg>
