<?xml version="1.0" encoding="UTF-8" standalone="no"?>
<svg
   xmlns:dc="http://purl.org/dc/elements/1.1/"
   xmlns:cc="http://creativecommons.org/ns#"
   xmlns:rdf="http://www.w3.org/1999/02/22-rdf-syntax-ns#"
   xmlns:svg="http://www.w3.org/2000/svg"
   xmlns="http://www.w3.org/2000/svg"
   id="svg8"
   version="1.1"
   viewBox="0 0 270.93333 203.2"
   height="768"
   width="1024">
  <title
     id="title844">Quartier Barlet-Centre-Faubourg de Cambrai de Douai</title>
  <defs
     id="defs2">
    <filter
       height="1.2260475"
       y="-0.11302373"
       width="1.2557882"
       x="-0.12789412"
       id="filter1218"
       style="color-interpolation-filters:sRGB">
      <feGaussianBlur
         id="feGaussianBlur1220"
         stdDeviation="2.0424079" />
    </filter>
  </defs>
  <metadata
     id="metadata5">
    <rdf:RDF>
      <cc:Work
         rdf:about="">
        <dc:format>image/svg+xml</dc:format>
        <dc:type
           rdf:resource="http://purl.org/dc/dcmitype/StillImage" />
        <dc:title>Quartier Barlet-Centre-Faubourg de Cambrai de Douai</dc:title>
        <dc:description>Carte de la Ville de Douai et ses quartiers avec le quartier Barlet-Centre-Faubourg de Cambrai mis en évidence.</dc:description>
        <dc:creator>
          <cc:Agent>
            <dc:title>Nicolas Froidure</dc:title>
          </cc:Agent>
        </dc:creator>
        <dc:language>FR</dc:language>
        <cc:license
           rdf:resource="http://creativecommons.org/licenses/by-nc/4.0/" />
      </cc:Work>
      <cc:License
         rdf:about="http://creativecommons.org/licenses/by-nc/4.0/">
        <cc:permits
           rdf:resource="http://creativecommons.org/ns#Reproduction" />
        <cc:permits
           rdf:resource="http://creativecommons.org/ns#Distribution" />
        <cc:requires
           rdf:resource="http://creativecommons.org/ns#Notice" />
        <cc:requires
           rdf:resource="http://creativecommons.org/ns#Attribution" />
        <cc:prohibits
           rdf:resource="http://creativecommons.org/ns#CommercialUse" />
        <cc:permits
           rdf:resource="http://creativecommons.org/ns#DerivativeWorks" />
      </cc:License>
    </rdf:RDF>
  </metadata>
  <g
     transform="translate(0,-93.800004)"
     id="layer1">
    <path
       id="path1040"
       d="m 206.76006,107.21553 c -2.4486,0.17526 -4.89716,0.35127 -7.3458,0.52607 -1.32233,1.85113 -2.29346,4.06752 -4.53338,4.96461 -2.86934,1.93699 -6.07581,3.48096 -8.74247,5.6542 -2.62877,2.99881 -4.98605,6.28113 -8.37234,8.48887 -2.71644,1.94685 -5.13142,4.41787 -8.03782,6.03442 -3.78496,1.50018 -7.56993,3.00035 -11.35489,4.50052 -9.33563,-3.08073 -19.27153,-3.46605 -29.02097,-3.44113 -1.31863,-1.31059 -2.36189,-3.05356 -4.38107,-3.26487 -1.78931,-0.40023 -3.57034,-1.58068 -5.36449,-1.52589 -3.56389,0.9791 -7.03608,2.4558 -10.65733,3.12355 -4.21795,0.30419 -8.48512,0.44975 -12.673176,0.8502 -1.32604,1.4587 -2.96023,0.34337 -4.5088,-0.0568 -3.22809,-0.99533 -6.45582,-1.99185 -9.68413,-2.98645 -0.28389,1.09601 -2.97696,2.99252 -1.11819,3.37899 2.37179,0.0955 1.77772,2.58168 -0.40625,1.80813 -2.103558,0.12861 -4.336853,-0.28405 -6.366197,0.15424 -1.914625,0.84723 -3.766431,2.20647 -5.718566,2.74799 -1.695881,-0.18149 -3.132103,-0.8484 -4.199943,-2.204 -0.934773,-1.80342 -2.43509,-0.2612 -3.819999,-0.0976 -2.970368,-0.0411 -5.940738,-0.0823 -8.911108,-0.12346 -3.820416,-3.91744 -7.641015,-7.8347 -11.461316,-11.75225 -1.337042,2.06849 -2.674004,4.13704 -4.010608,6.20582 1.637957,2.61996 2.898616,5.5414 5.455209,7.4276 1.764797,1.87177 3.973119,3.43064 5.460678,5.498 2.177209,4.86162 4.354418,9.72324 6.531627,14.58487 -0.200677,2.1835 -0.401354,4.367 -0.60203,6.5505 -1.910253,-0.13715 -2.952118,0.5689 -2.64689,2.58039 -1.866718,0.26015 -2.395061,1.29387 -1.713967,3.04591 0.340163,1.52167 0.51585,3.1428 0.0079,4.45753 0.799541,1.38373 1.889206,2.76413 0.51866,4.17292 -0.505957,1.46826 -1.953113,2.86314 -1.846039,4.37918 0.526999,1.61619 0.990692,3.25693 1.785498,4.76884 -1.07761,0.83948 -3.527544,0.63698 -3.546377,2.28029 0.263515,2.03365 -2.336136,1.80875 -3.629936,2.61395 -2.143252,0.81901 -4.254891,1.74821 -6.555148,2.01852 0.04326,2.29436 -0.496565,4.719 -0.102162,6.93507 0.370053,1.36939 2.407316,3.18944 1.639376,4.25123 -2.282677,0.62477 -0.0753,2.42328 0.394023,3.76777 1.447013,1.51823 -1.947131,2.2288 0.874682,3.08925 1.43452,1.51621 3.251611,-0.31433 4.891052,-0.59302 1.028763,1.64552 1.061025,2.78357 -1.219254,2.35126 -2.302953,0.15329 -4.191589,1.88458 -6.325511,2.68176 -1.957221,0.45216 0.438456,2.37016 0.607862,3.53828 2.209902,4.54777 4.428904,9.09042 7.306422,13.26364 0.921089,0.98474 1.372238,3.14776 2.578338,3.41759 5.243608,-1.34893 10.487216,-2.69786 15.730824,-4.04678 0.74631,2.08154 2.11391,-0.96698 3.177413,-1.50179 1.087954,-1.33909 2.71717,0.83739 4.047469,1.07236 -3.04764,6.51815 -6.095802,13.03605 -9.143111,19.55436 1.510951,0.83969 3.022224,1.6788 4.533056,2.51871 0.324919,-1.89364 1.814034,-2.14791 3.502059,-2.12293 1.25662,-0.20279 1.862013,1.43832 2.725984,2.14618 0.857792,1.02155 1.692158,2.06135 2.561084,3.07371 0.752465,-1.72803 2.287813,-1.67463 3.91727,-1.40754 1.192702,0.70754 1.345325,2.89041 2.135266,4.16925 1.5708,3.42443 2.52806,7.19152 5.07097,10.07269 0.8049,1.67819 2.66477,2.21498 4.0983,3.2132 -0.98859,1.51721 -1.97696,3.03456 -2.96571,4.55166 4.20612,1.12334 8.37536,2.5347 12.60382,3.48521 4.134386,0.0412 8.311106,-0.4647 12.418436,-0.0735 1.15292,-0.0984 4.05766,1.34683 4.08252,0.25413 -1.5446,-4.80231 -2.94338,-9.69277 -4.57651,-14.44137 -1.76044,-1.76044 -3.5209,-3.52089 -5.28135,-5.28133 2.5638,-3.27736 5.12799,-6.55442 7.69154,-9.83196 -0.6058,-1.11753 -3.61548,-2.09261 -1.9879,-3.34419 1.08652,-0.99664 2.06166,-3.77368 3.349,-1.56017 1.12081,1.9856 1.98579,-0.3717 2.93651,-1.26936 2.32288,-2.76478 4.64642,-5.529 6.96889,-8.29412 -2.40997,-1.13616 -4.6204,-2.87111 -7.14863,-3.65179 -0.86926,-0.19463 -4.72789,-0.50301 -3.50536,-0.71878 2.39739,0.36583 4.79482,0.73141 7.19218,1.09738 2.30978,-4.64612 4.75068,-9.25914 6.97839,-13.92628 0.23345,-5.26181 0.25355,-10.56427 0.62006,-15.80073 1.60772,-4.51152 3.21647,-9.02268 4.82353,-13.53444 -2.1455,-1.65408 -4.29085,-3.30834 -6.4363,-4.96249 7.31939,-9.76088 14.4581,-19.68146 21.8902,-29.34272 2.63809,-2.61453 5.66474,-4.89892 7.47801,-8.214 1.534,-1.98811 2.47089,-4.63374 5.04341,-5.47828 3.37162,-1.85452 6.74324,-3.70905 10.11486,-5.56358 1.84693,0.61777 3.67952,1.57433 5.53455,2.00039 1.81022,-0.40759 3.63747,-1.27772 5.43745,-1.40721 3.99629,1.48055 7.99259,2.9611 11.98888,4.44165 0.42874,2.70061 0.85748,5.40122 1.28622,8.10183 -3.59207,3.08791 -7.38832,5.99262 -10.85813,9.19023 -1.46503,2.20038 -2.93035,4.40056 -4.3952,6.60106 0.68533,1.21585 0.89738,3.06815 1.86163,3.90977 1.95129,0.0254 4.03225,0.73577 5.90813,0.36284 1.83222,-0.94134 3.66429,-1.88299 5.49661,-2.82412 -0.71259,-1.19163 -1.27483,-4.00696 0.83777,-2.76477 3.86482,2.47727 7.72989,4.95415 11.59455,7.43167 1.52645,-5.51758 3.69855,-10.88644 4.30223,-16.61677 0.27831,-1.70818 0.55662,-3.41636 0.83492,-5.12454 2.2947,-0.24493 3.82319,1.63471 5.69475,2.52181 2.3467,0.1271 4.68516,0.19633 6.87171,-0.80992 1.54794,-0.35399 3.02906,-0.80861 3.80289,-2.3226 0.60566,-1.19574 2.76424,-2.1136 1.76355,-3.59695 0.30727,-1.59212 1.6666,-3.09297 2.3637,-4.65127 0.92627,-1.02027 1.11068,-3.86346 2.95322,-2.63232 1.11445,0.33019 3.7053,-0.98375 2.51372,-2.35913 -2.90675,-7.61914 -5.81324,-15.23838 -8.72014,-22.85746 -2.10623,-1.15021 -3.9516,-2.95442 -6.21116,-3.72042 -4.29634,-0.6685 -8.50557,-1.68241 -12.5985,-3.15753 -0.69624,-0.18512 -1.38087,-0.50603 -2.08468,-0.62339 z"
       style="opacity:1;fill:#000000;fill-rule:evenodd;stroke:none;stroke-width:0.26458332px;stroke-linecap:butt;stroke-linejoin:miter;stroke-opacity:1" />
    <path
       id="path826-3-2"
       d="m 206.79779,107.74314 -7.08949,0.50799 -2.43034,3.58685 -10.39317,6.46575 -5.42395,6.31228 -10.72803,8.43876 -12.3424,4.89169 c -9.43787,-3.1418 -19.32143,-3.49778 -29.26591,-3.47421 l -2.56471,-2.70474 -6.54275,-2.1885 -10.17767,3.17138 -13.292256,0.83044 -1.6769,0.99943 -12.56099,-3.87418 -1.4087,2.16782 2.34301,0.86713 -0.39533,2.06809 -8.17831,-0.0351 -5.869408,3.01842 -3.044259,-0.7152 -2.697509,-2.52078 -2.246892,0.84853 -9.494511,-0.13177 -11.151257,-11.43393 -3.471623,5.37176 2.903182,4.84054 7.614522,7.28121 6.846611,15.28847 -0.653707,7.10912 -2.420008,0.32298 -0.224275,2.1885 -1.955436,0.73587 0.758093,5.06739 -0.529167,1.05833 1.486214,2.75798 -2.863391,5.62033 1.047482,3.20962 1.024227,2.25102 -3.660759,1.5472 -0.274918,2.13785 -7.782988,2.95589 -2.209684,0.4346 -0.267167,6.01566 2.439644,4.63951 -1.684135,1.05317 2.224154,4.0659 -1.020093,0.81235 1.829346,1.17823 3.988903,-1.43144 1.329635,3.40186 -3.744991,0.20515 -5.669421,2.80138 5.204333,10.44433 5.372799,8.56537 16.102893,-4.14239 0.467672,0.73484 3.006535,-2.87321 4.20956,2.07171 -9.153961,19.5771 3.608049,2.00453 0.791165,-1.67277 0.01085,0.0693 3.741888,-0.40101 c 1.677773,1.46353 3.024687,3.32048 4.476731,5.01158 l 1.041797,-1.26762 3.635436,0.19843 4.877739,11.62617 2.87321,4.00906 3.54087,2.13837 -2.8727,4.40955 11.49232,3.27422 11.693396,-0.26717 4.47673,0.8015 -4.34341,-13.89786 -5.6126,-5.61258 7.68379,-9.82214 -2.6727,-2.53886 3.54139,-4.27674 2.20503,2.07171 8.08478,-9.62164 -5.87975,-3.20755 -5.07824,-0.73484 0.13384,-1.26969 7.88427,1.20302 6.74895,-13.36352 0.53433,-15.63522 4.81056,-13.49738 -6.54327,-5.04517 v 0 l 21.84466,-29.43231 5.73195,-5.4653 5.117,-7.49411 12.52689,-6.89054 5.42809,2.07377 5.35626,-1.54719 12.6907,4.70152 1.38182,8.70387 -10.84068,9.05009 -4.38577,6.58668 1.37045,3.32951 5.32578,0.53433 5.32835,-2.73781 -0.87695,-2.63602 1.71825,-0.90537 11.93157,7.6476 3.27628,-10.91613 1.72496,-10.58696 2.7404,0.32763 3.40445,2.25103 3.92482,0.0682 5.15111,-1.58285 3.1166,-3.76152 -0.43511,-1.23972 4.46484,-7.96954 2.16318,0.63872 1.66243,-1.06608 -8.94106,-23.43682 -5.35626,-3.45353 -7.10086,-1.33686 z"
       style="opacity:1;fill:#b3b3b3;fill-rule:evenodd;stroke:none;stroke-width:0.26458332px;stroke-linecap:butt;stroke-linejoin:miter;stroke-opacity:1" />
    <path
       id="path1050"
       d="m 70.044781,232.83381 c -2.98112,6.37566 -5.96224,12.75131 -8.943359,19.12696 3.235634,3.88159 2.684121,-1.34791 6.720703,0.26757 2.004599,0.60184 4.579461,6.66411 5.810547,3.41797 3.079679,-1.23332 5.038431,2.22792 5.977942,4.93327 2.67058,4.12951 3.41563,10.06323 8.42943,12.05572 4.7829,0.85783 -3.74191,5.31053 0.45308,5.82454 4.861,1.44301 9.59553,3.9222 14.781876,2.69996 3.27746,-0.21794 6.57234,-0.76669 9.7835,0.23651 -1.73538,-4.47932 -2.33868,-9.64371 -4.79328,-13.68781 -1.44444,-2.36083 -7.1374,-4.49394 -3.48216,-7.12832 2.6668,-2.50288 4.3592,-4.96834 0.43077,-7.21784 -2.30945,-2.33023 -5.935996,1.79877 -8.816946,2.27134 -2.67387,0.4923 -6.8128,5.00425 -7.66782,0.50323 -2.89272,-5.09266 -4.52304,-10.77488 -6.28975,-16.29333 0.52013,-3.44429 3.11025,-5.27502 -1.681,-6.53706 -2.741,-0.99318 -5.962392,-3.92719 -8.419745,-3.77445 -0.764596,1.10058 -1.529192,2.20116 -2.293788,3.30174 z"
       style="opacity:0.63500007;fill:#ececec;fill-opacity:1;fill-rule:evenodd;stroke:none;stroke-width:0.26458332px;stroke-linecap:butt;stroke-linejoin:miter;stroke-opacity:1" />
    <path
       id="path1052"
       d="m 98.503764,165.68146 c -0.37551,8.60326 -5.38804,16.51777 -12.59332,21.11042 -8.86855,7.46013 -18.849152,13.8254 -26.523502,22.5584 -5.608845,7.19568 -11.217691,14.39137 -16.826536,21.58705 1.925013,2.35112 2.857994,7.47904 6.613484,4.70647 4.055968,-0.66477 9.160656,0.53159 12.325969,-2.97405 2.56108,-1.36247 4.438257,-4.17579 7.228516,-0.60547 2.665573,-6.48019 9.954598,-8.84294 13.508189,-14.64875 2.74688,-2.46987 1.72971,-6.44317 3.1332,-9.63017 0.12154,-4.72282 4.10949,-7.55247 7.92449,-9.49663 4.70698,-1.65469 5.4551,-6.98845 7.988816,-10.65414 3.17922,-1.58668 6.82547,-3.17096 7.39066,-7.12305 0.93856,-3.45491 -0.16682,-7.35271 -2.54102,-10.01172 -0.9311,-1.70638 -1.01496,-3.6988 -1.65626,-5.50586 -1.49652,0.5024 -5.961296,-1.27561 -5.972686,0.6875 z"
       style="opacity:0.63500007;fill:#ececec;fill-opacity:1;fill-rule:evenodd;stroke:none;stroke-width:0.26458332px;stroke-linecap:butt;stroke-linejoin:miter;stroke-opacity:1" />
    <path
       style="opacity:1;fill:#4d4d4d;fill-rule:evenodd;stroke:none;stroke-width:0.26458332px;stroke-linecap:butt;stroke-linejoin:miter;stroke-opacity:1;filter:url(#filter1218)"
       d="m 80.492044,221.39045 c -2.371581,2.28352 -5.07346,4.25919 -7.152341,6.84571 4.130437,1.94091 8.259171,3.88547 12.390621,5.82422 0.142,2.917 -3.59225,4.15908 -1.71644,7.34315 1.70793,5.40261 3.6012,10.72843 6.36879,15.692 6.21536,-3.33184 13.720356,-4.93211 18.791056,-10.04687 2.57661,-3.70117 2.9491,-8.32453 2.05274,-12.67383 -1.29138,-1.62877 -5.02486,-2.63933 -6.11275,-5.69568 -1.06512,-2.48605 -2.65041,-2.79173 -4.46064,-4.55863 -2.864366,-4.15045 -6.882296,-7.22939 -11.608156,-8.91225 -3.45205,-3.02601 -5.3144,-1.0587 -6.6186,2.66173 -0.64476,1.17348 -1.28952,2.34697 -1.93428,3.52045 z"
       id="path1136" />
    <path
       id="path1022"
       d="m 80.492044,221.39045 c -2.371581,2.28352 -5.07346,4.25919 -7.152341,6.84571 4.130437,1.94091 8.259171,3.88547 12.390621,5.82422 0.142,2.917 -3.59225,4.15908 -1.71644,7.34315 1.70793,5.40261 3.6012,10.72843 6.36879,15.692 6.21536,-3.33184 13.720356,-4.93211 18.791056,-10.04687 2.57661,-3.70117 2.9491,-8.32453 2.05274,-12.67383 -1.29138,-1.62877 -5.02486,-2.63933 -6.11275,-5.69568 -1.06512,-2.48605 -2.65041,-2.79173 -4.46064,-4.55863 -2.864366,-4.15045 -6.882296,-7.22939 -11.608156,-8.91225 -3.45205,-3.02601 -5.3144,-1.0587 -6.6186,2.66173 -0.64476,1.17348 -1.28952,2.34697 -1.93428,3.52045 z"
       style="opacity:1;fill:#abc837;fill-rule:evenodd;stroke:none;stroke-width:0.26458332px;stroke-linecap:butt;stroke-linejoin:miter;stroke-opacity:1" />
    <path
       id="path1054"
       d="m 47.869,183.76647 c 0.834468,2.26002 4.290221,5.59829 0.312481,6.51701 -5.052376,0.93809 4.280911,5.34015 -1.580135,5.04589 -3.439428,0.66458 -6.878856,1.32917 -10.318284,1.99375 -0.97282,3.34545 -0.3583,6.30462 2.100508,8.815 -1.419989,1.42182 -1.134095,4.04047 0.241289,6.67133 2.076572,1.23879 5.815374,-2.3019 6.273485,2.61217 0.963894,2.52481 -5.564606,0.52899 -7.323587,2.77053 -3.515521,1.0019 1.618955,5.29751 1.920404,7.75283 1.079411,3.97104 2.726967,4.07867 4.554568,0.42021 5.830562,-7.10363 10.980281,-14.82567 17.217746,-21.55971 4.112105,-2.06783 2.441223,-4.50548 -0.272027,-7.00979 -2.531812,-2.3187 -3.984502,-4.50695 0.07668,-6.04094 -3.040352,1.53836 -5.648994,1.96401 -7.023067,-2.2033 -1.883585,-1.70185 -3.554111,-7.60208 -5.579448,-6.51068 l -0.33739,0.40766 z"
       style="opacity:0.63500007;fill:#ececec;fill-opacity:1;fill-rule:evenodd;stroke:none;stroke-width:0.26458332px;stroke-linecap:butt;stroke-linejoin:miter;stroke-opacity:1" />
    <path
       id="path1056"
       d="m 200.00234,108.76014 c -1.24609,1.72316 -2.11983,3.83297 -4.24206,4.64503 -2.92427,1.94041 -6.12067,3.56342 -8.87155,5.70609 -2.60591,2.93157 -4.87478,6.21509 -8.22013,8.37445 -2.77788,2.02694 -5.30793,4.48483 -8.23291,6.25599 -3.9559,1.64582 -8.07605,3.04508 -11.92975,4.8443 -4.6906,4.81063 -9.38119,9.62126 -14.07179,14.43189 1.09193,1.35909 2.18385,2.71818 3.27577,4.07727 3.13319,-3.41928 6.0275,-7.02279 8.49639,-10.9544 0.78664,-1.44871 1.81397,-2.63256 3.40722,-3.19311 3.62907,-1.99626 7.25825,-3.99234 10.88725,-5.98872 1.91802,0.61149 3.81607,1.69548 5.74585,2.02463 1.83316,-0.3363 3.69462,-1.44759 5.51089,-1.32035 4.24415,1.57239 8.48838,3.14457 12.73249,4.71709 0.49261,3.10212 0.98522,6.20423 1.47743,9.30641 -3.70023,3.155 -7.5532,6.17307 -11.15888,9.41295 -1.3469,2.02293 -2.6938,4.04586 -4.04071,6.06879 0.60851,1.50594 0.90479,3.43109 2.98539,2.96053 1.61883,0.16597 3.29326,0.62527 4.65897,-0.54419 1.05355,-0.89618 4.01247,-1.0148 2.72081,-2.86803 -1.27404,-1.51668 1.04787,-2.39827 2.15304,-2.49178 3.79253,2.43081 7.58499,4.86171 11.37749,7.29256 1.50448,-5.18871 3.40237,-10.28673 3.95804,-15.69415 0.30265,-1.85672 0.60495,-3.7135 0.90782,-5.57019 1.87821,0.18615 3.81517,0.21343 5.23883,1.63917 1.45487,1.45535 3.59596,1.01481 5.44962,0.98477 2.01127,-0.86067 4.69689,-0.71095 5.84823,-2.86007 1.71077,-1.15601 1.17857,-2.58353 1.73287,-4.06646 1.42755,-2.54876 2.85618,-5.09691 4.28307,-7.64603 1.14161,0.66481 4.14005,1.04495 3.05564,-1.00226 -2.78277,-7.29456 -5.56556,-14.58912 -8.34834,-21.88368 -2.44935,-1.34548 -4.52175,-3.63641 -7.46439,-3.74468 -4.34165,-0.55868 -8.43754,-2.0918 -12.59123,-3.39596 -2.24379,0.16071 -4.48758,0.32143 -6.73137,0.48214 z"
       style="opacity:0.63500007;fill:#ececec;fill-rule:evenodd;stroke:none;stroke-width:0.26458332px;stroke-linecap:butt;stroke-linejoin:miter;stroke-opacity:1" />
    <path
       id="path1058"
       d="m 101.93541,188.48224 c -2.332206,3.89318 -3.367286,8.89246 -7.836506,10.96144 -2.68379,2.60142 -7.56088,3.74116 -7.585,8.11504 -1.8782,3.68627 -0.79293,5.80142 3.32841,6.30696 4.90828,3.43226 9.49069,7.41532 14.350916,10.95837 1.77114,-1.38377 2.84932,-7.24001 5.34416,-3.95715 2.66504,1.2542 4.6937,5.59104 7.94077,4.02587 3.08522,-0.97378 6.02398,-1.8701 7.77932,-0.3257 1.67755,-1.9026 0.40712,-6.28609 0.96231,-9.13322 0.28976,-5.15533 -0.43845,-10.50183 2.11138,-15.23105 0.29982,-2.78774 3.76485,-6.60104 2.02482,-8.72787 -2.73904,-1.48154 -5.46115,-4.54753 -8.21071,-5.04432 -2.62612,1.56518 -5.15839,3.68543 -7.83873,4.93054 -3.62715,0.0172 -4.34459,-5.65007 -7.75635,-5.42413 -1.53826,0.84841 -3.07652,1.69682 -4.61479,2.54522 z"
       style="opacity:0.63500007;fill:#ececec;fill-opacity:1;fill-rule:evenodd;stroke:none;stroke-width:0.26458332px;stroke-linecap:butt;stroke-linejoin:miter;stroke-opacity:1" />
    <path
       id="path1060"
       d="m 110.14444,133.21662 c -1.82771,2.54632 -5.85054,0.63071 -8.59257,1.31721 -4.185186,-0.80164 -5.962526,0.60572 -4.651176,4.84671 0.54543,8.12961 1.09085,16.25921 1.63627,24.38881 2.937956,0.49839 7.477236,-1.33759 7.818636,2.94337 0.74312,3.87609 2.79056,5.59872 6.69391,4.25715 3.73783,-0.57888 8.12588,0.39099 10.64664,-3.08685 11.18928,-9.54801 22.38803,-19.08534 33.11039,-29.16054 -9.08711,-2.78667 -18.79009,-2.7402 -28.0664,-2.82813 -2.13583,-2.98652 -5.93395,-4.36412 -9.27391,-5.09751 -3.10726,0.80659 -6.21453,1.61318 -9.32179,2.41978 z"
       style="opacity:0.63500007;fill:#ececec;fill-opacity:1;fill-rule:evenodd;stroke:none;stroke-width:0.26458332px;stroke-linecap:butt;stroke-linejoin:miter;stroke-opacity:1" />
    <path
       id="path1062"
       d="m 81.542824,133.22834 c 3.79745,1.98631 0.40665,5.70491 -2.957758,3.89298 -3.80246,-1.28605 -6.613829,1.56745 -9.694582,3.29452 -2.848633,0.21684 -4.537667,-2.20179 -6.21875,-3.53321 -3.395479,1.88107 -7.233095,-0.0264 -10.787109,0.91992 0.01408,2.78954 3.184076,5.32136 -1.152344,4.39454 -1.39455,0.28473 -4.788082,0.66187 -2.864475,2.61035 1.961797,4.46712 4.680448,8.73991 6.215409,13.31667 0.04715,2.65792 0.511229,6.01385 -1.077497,8.17844 -2.420831,0.83288 -3.930553,3.48227 -3.424752,6.52434 0.570398,3.06592 1.055126,5.6199 1.938446,7.95121 4.707707,6.50565 9.414366,13.03098 14.673806,19.10845 9.325802,-7.52894 20.251516,-13.72959 27.217786,-23.73717 2.75235,-4.76532 2.66719,-10.60845 2.958,-15.96206 -0.10727,-2.55053 -1.71496,-4.45234 -1.20721,-7.13544 -0.26752,-5.56358 -0.53504,-11.12715 -0.80256,-16.69073 -4.09375,-1.48438 -8.1875,-2.96875 -12.28125,-4.45313 -0.17838,0.44011 -0.35677,0.88021 -0.53516,1.32032 z"
       style="opacity:0.63500007;fill:#ececec;fill-opacity:1;fill-rule:evenodd;stroke:none;stroke-width:0.26458332px;stroke-linecap:butt;stroke-linejoin:miter;stroke-opacity:1" />
    <path
       id="path864"
       d="m 98.970186,221.98029 c -0.784937,-0.0264 -1.338048,0.88187 -0.996323,1.57717 -1.079529,-0.1413 -1.449737,-1.98565 -2.948141,-0.51832 0.283491,1.01725 -0.994264,0.15494 -1.512567,0.50436 -0.584147,0.0838 -1.464448,0.33035 -1.258322,0.85163 -0.6547,-1.24142 -2.347026,-1.00335 -3.469039,-0.65112 -0.893241,-0.25114 -3.276647,-0.40696 -4.043164,0.078 -0.86083,-1.98658 -4.344987,-1.96215 -5.073076,0.22479 -0.666877,1.55842 0.114517,3.67996 1.839683,4.06332 0.461086,1.07098 2.240415,1.46417 2.966323,0.96893 0.87158,-1.14027 -0.201875,-1.47701 -0.126704,-1.78903 0.283869,-0.2151 0.474739,-1.11677 0.54777,-0.28267 0.597117,1.56917 2.628709,1.20143 3.889168,0.82785 -0.06956,-0.55698 0.681789,0.43948 1.11156,0.27389 1.374963,0.10615 2.448642,-0.25207 3.709334,-0.0346 1.667957,0.4828 -0.06264,-2.64749 1.028361,-2.63705 0.715058,0.3401 0.108291,1.90399 1.104842,2.39831 1.051544,0.718 2.292784,-0.0826 3.296441,0.23874 1.277738,0.82114 0.702318,-1.4901 1.183908,-0.67489 0.85739,0.98801 2.40147,0.91561 3.49746,0.41083 1.61984,1.18423 2.54982,-0.56207 2.03812,-2.38177 1.15353,0.53246 1.20423,-0.62088 1.35134,-1.63556 -1.0831,-0.48472 -2.31327,-0.33162 -3.38946,0.0951 0.1901,1.16621 -0.37226,-0.20593 -0.88367,-0.23823 -0.99669,-0.45257 -2.31423,-0.0655 -2.81791,0.92966 -0.004,-0.85036 0.4422,-2.38629 -0.840263,-2.58589 -0.06793,-0.0103 -0.136998,-0.0155 -0.205671,-0.0134 z m -16.638778,2.33785 c 1.343462,0.25534 0.21712,2.90251 -0.676444,1.48363 -0.199766,-0.52741 -0.110969,-1.5826 0.676444,-1.48363 z m 6.540169,0.71261 c -0.08486,1.45162 -0.146423,-1.54308 0,0 z m 8.839769,0.4005 c 1.183211,1.16719 -2.111706,0.71661 -0.118337,0 z m 6.006354,1.23609 c 0.0911,0.31283 -0.10764,-0.026 0,0 z m -20.091797,3.78582 c -1.794668,-0.55097 -1.028298,1.45627 -1.758032,1.60972 -0.993817,-0.32689 -2.554083,0.4432 -2.549715,0.72295 -0.795758,-1.25111 -2.524077,-0.61655 -3.534669,-0.60771 -0.685861,-1.66637 -2.93039,-1.26059 -4.345472,-1.03818 0,1.76699 0,3.53398 0,5.30097 1.404043,0.39163 3.370342,0.34576 4.354256,-0.53175 0.977037,1.41479 3.063256,0.3757 4.16357,0.69763 2.141345,0.71905 1.305365,-1.57347 1.60197,-2.67942 1.270744,0.001 0.119312,1.89179 1.234552,2.40347 0.657156,0.42569 2.016937,0.61091 1.922877,-0.29456 0.936459,0.92334 2.467539,0.77586 3.563091,0.24133 -0.130876,-0.94603 -0.29161,-1.35001 0.09612,-0.35192 0.63431,1.05809 2.635941,0.96539 3.088611,0.13859 -0.889664,-1.4321 1.393571,-1.07992 2.016503,-0.83363 0.761889,1.79666 3.235534,1.72166 4.642612,0.95549 0.911484,0.72048 2.233373,0.60883 3.238563,0.15865 0.75142,0.416 3.29819,0.43825 4.04368,-0.003 -0.19867,-1.21271 0.426,0.38047 1.03353,0.26665 1.27781,0.17354 2.21261,-0.18658 3.48816,-0.002 0.93313,-0.13592 -0.56427,-3.02886 0.75706,-2.59571 -0.29797,1.61976 1.23579,3.01327 2.80603,2.66392 0.88271,-0.0426 1.76143,-0.43618 1.19269,-1.47536 0.73934,-0.72878 0.22214,-2.85765 -1.1498,-3.11868 -0.68746,-0.18873 -1.47341,-0.0588 -2.02314,0.40773 -0.65695,-0.6944 -2.12277,-0.51325 -3.09335,-0.15451 -1.43868,-0.0599 -0.92954,-2.04764 -3.03105,-1.05648 -0.53722,0.0949 0.21522,2.51228 -0.48449,1.28902 -0.94787,-0.90151 -2.4131,-0.52306 -3.53932,-0.23719 0.0898,0.79051 -0.004,0.63847 -0.35295,0.20515 -1.243048,-1.20793 -3.417693,-0.23224 -3.670579,1.31103 0.256948,1.20855 -2.481868,1.26797 -2.000911,-0.21497 0.0223,-1.18552 1.538084,-0.76147 2.137854,-0.30179 0.254368,-0.83488 1.083152,-1.96668 -0.139009,-2.21588 -1.612482,-0.7036 -3.823861,0.16949 -4.069003,2.02881 -1.96763,0.40631 -2.166252,-0.95638 -3.142443,-1.54151 -0.06654,-1.32103 -3.04582,-0.27569 -2.037601,1.32757 -0.877697,-1.49467 -3.427757,-1.07998 -3.846793,0.59066 -0.301496,-0.71569 0.660027,-3.60373 -0.6134,-3.06544 z m -7.73648,2.32079 c 0.158893,0.53342 0.26561,1.68596 -0.234093,0.74827 0.202327,-0.12168 0.220113,-1.09597 0.234093,-0.74827 z m 14.787211,1.18959 c 0.216384,2.09081 -1.612461,-0.12668 0,0 z m 17.209806,0 c 1.18043,1.16797 -2.11177,0.71613 -0.11886,0 z m -34.285766,0.65836 c 0.848358,-0.0911 -0.09345,0.37715 -0.104902,0 z m 27.760066,0.57774 c 0.0915,0.31421 -0.10797,-0.026 0,0 z m -17.850076,3.78581 c -1.664443,-0.44346 -1.116012,1.15633 -1.688269,1.56684 -2.491941,0.008 -2.667328,4.25931 -0.248047,4.61212 0.847474,0.10139 2.144159,0.11948 2.549715,-0.52814 -0.159467,-1.01782 0.437587,0.37317 0.922941,0.36691 0.913895,0.38703 2.499731,0.34662 2.894468,-0.45738 -0.289571,-0.84067 0.40445,-1.24922 0.151857,-2.21429 -0.109077,-2.00969 -3.147615,-2.4411 -3.969266,-0.68575 -0.288639,-0.6802 0.634445,-3.17594 -0.613399,-2.66031 z m 20.948076,5.3e-4 c -1.88683,-0.40624 -1.37219,1.58578 -1.45366,2.51923 -0.45033,-1.07855 -1.86341,-1.08918 -2.76262,-0.77153 -0.915378,-0.40191 -1.951245,-0.0885 -2.875795,0.11989 0.08483,0.89189 -0.0097,0.55851 -0.377237,0.14418 -0.853789,-0.71022 -2.08679,-0.48166 -3.069064,-0.20361 0.687973,-1.16939 -1.19109,-1.41353 -2.091346,-1.36219 -2.704634,0.0417 -3.499686,4.16538 -1.27899,5.44618 1.101447,0.65438 2.538182,0.24325 3.557921,-0.031 1.271661,0.8249 2.900637,-0.0513 4.052466,0.29249 1.873055,0.0308 4.058745,-0.0281 5.611545,-0.0413 1.12578,0.27443 2.62739,0.19773 3.23339,-0.9617 -0.28945,1.93991 3.16215,1.13147 2.03812,-0.84904 -0.76707,-0.92708 1.02616,-1.08316 0.58033,-0.42427 -0.60614,1.23224 0.5918,2.56135 1.88412,2.3487 1.44239,-0.1688 2.41221,-0.0944 3.88038,-0.0724 -0.10722,-1.81188 0.1417,-3.66742 0.006,-5.43429 -0.53376,-1.34606 -2.72267,-0.38082 -2.04432,0.92604 0.0149,0.69254 0.10317,1.09505 -0.29766,0.44442 -1.10965,-1.08784 -2.70651,-0.10048 -3.98891,-0.52142 -0.78723,-5.3e-4 -2.23129,0.1493 -2.09186,0.93328 -0.36502,-0.66667 -1.15935,-1.00856 -1.89962,-0.92914 -0.20492,-0.55562 0.52652,-2.13061 -0.6134,-1.57252 z m -33.570045,1.06764 c 0,1.69533 0,3.39066 0,5.08599 2.639584,1.05346 1.382755,-1.78949 2.87786,-1.8805 0.950002,-0.22227 1.161452,1.30102 0.845584,1.97172 -0.5198,1.20148 1.324502,1.15486 2.182657,1.11129 1.580565,-0.0868 2.044824,-1.92586 1.780251,-3.22409 -0.113001,-0.9661 0.491681,-2.53317 -0.915188,-2.4784 -0.898216,-0.17414 -1.962259,-0.16868 -2.661854,0.51108 0.704247,-2.30467 -1.688113,-1.51273 -3.175,-1.62626 -0.480489,0.0901 -1.183823,-0.31647 -0.93431,0.52917 z m 22.940719,1.25315 c 0.804389,1.42029 -1.115637,2.35402 -2.21537,1.77767 -0.686305,-0.82683 0.122275,-2.24857 1.198894,-1.572 0.953079,0.91303 0.762923,-0.35581 1.016476,-0.20567 z m -17.292484,1.75442 c -0.369678,-0.17754 0.224102,-1.26954 0,-0.11834 z m 5.549014,-0.62374 c 0.173278,0.71894 -0.151091,1.22425 -0.1757,0.3266 0.02646,-0.10254 -0.0099,-0.36854 0.1757,-0.3266 z m 22.991366,0 c 0.52346,0.0982 -0.19725,1.6475 -0.005,0.35347 0.33145,0.21191 -0.12267,-0.36176 0.005,-0.35347 z"
       style="font-style:normal;font-variant:normal;font-weight:bold;font-stretch:normal;font-size:6.57501793px;line-height:125%;font-family:Ubuntu;-inkscape-font-specification:'Ubuntu Bold';text-align:center;letter-spacing:0px;word-spacing:0px;text-anchor:middle;fill:#ffffff;fill-opacity:1;stroke:none;stroke-width:0.26458332px;stroke-linecap:butt;stroke-linejoin:miter;stroke-opacity:1" />
    <g
       transform="translate(5.93122,57.50115)"
       id="text1132"
       style="font-style:normal;font-variant:normal;font-weight:normal;font-stretch:normal;font-size:6.57501793px;line-height:125%;font-family:Tofino;-inkscape-font-specification:Tofino;text-align:center;letter-spacing:0px;word-spacing:0px;text-anchor:middle;fill:#000000;fill-opacity:1;stroke:none;stroke-width:0.26458332px;stroke-linecap:butt;stroke-linejoin:miter;stroke-opacity:1"
       aria-label="Quartier Barlet-Centre Fg de Cambrai">
      <path
         id="path863"
         style="font-style:normal;font-variant:normal;font-weight:bold;font-stretch:normal;font-family:Ubuntu;-inkscape-font-specification:'Ubuntu Bold';text-align:center;text-anchor:middle;stroke-width:0.26458332px"
         d="m 75.106124,167.76251 q 0,0.33532 0.0789,0.6049 0.08548,0.26957 0.2367,0.46682 0.157801,0.19068 0.381352,0.29588 0.22355,0.1052 0.512851,0.1052 0.282726,0 0.506276,-0.1052 0.230126,-0.1052 0.381351,-0.29588 0.157801,-0.19725 0.236701,-0.46682 0.08548,-0.26958 0.08548,-0.6049 0,-0.33533 -0.08548,-0.60491 -0.0789,-0.27615 -0.236701,-0.46682 -0.151225,-0.19725 -0.381351,-0.30245 -0.22355,-0.1052 -0.506276,-0.1052 -0.289301,0 -0.512851,0.11177 -0.223551,0.1052 -0.381352,0.30245 -0.151225,0.19068 -0.2367,0.46683 -0.0789,0.26957 -0.0789,0.59833 z m 3.478184,0 q 0,0.47997 -0.11835,0.8679 -0.118351,0.38135 -0.335326,0.67065 -0.210401,0.2893 -0.506277,0.47998 -0.295875,0.19067 -0.650926,0.27615 0.03288,0.1315 0.14465,0.2104 0.111775,0.0855 0.282726,0.13807 0.17095,0.0526 0.394501,0.0789 0.230126,0.0263 0.493126,0.046 l -0.2104,0.74955 q -0.512852,-0.0197 -0.881053,-0.1052 -0.361626,-0.0789 -0.618051,-0.22355 -0.249851,-0.14465 -0.401076,-0.35505 -0.144651,-0.2104 -0.223551,-0.48655 -0.407651,-0.0526 -0.756127,-0.22355 -0.348476,-0.17753 -0.604902,-0.4734 -0.256425,-0.29588 -0.401076,-0.71011 -0.14465,-0.41422 -0.14465,-0.94022 0,-0.58518 0.1841,-1.02571 0.184101,-0.4471 0.493127,-0.74955 0.3156,-0.30245 0.723252,-0.45368 0.414226,-0.15122 0.867902,-0.15122 0.466826,0 0.881052,0.15122 0.414226,0.15123 0.723252,0.45368 0.309026,0.30245 0.486552,0.74955 0.177525,0.44053 0.177525,1.02571 z" />
      <path
         id="path865"
         style="font-style:normal;font-variant:normal;font-weight:bold;font-stretch:normal;font-family:Ubuntu;-inkscape-font-specification:'Ubuntu Bold';text-align:center;text-anchor:middle;stroke-width:0.26458332px"
         d="m 82.325487,169.92569 q -0.249851,0.0723 -0.644352,0.1315 -0.394501,0.0658 -0.828452,0.0658 -0.440526,0 -0.736402,-0.11835 -0.289301,-0.11835 -0.460251,-0.32875 -0.170951,-0.21698 -0.243276,-0.51286 -0.07233,-0.29587 -0.07233,-0.65092 v -1.92648 h 0.979677 v 1.80813 q 0,0.4734 0.124926,0.6838 0.124925,0.2104 0.466826,0.2104 0.1052,0 0.223551,-0.007 0.11835,-0.0131 0.2104,-0.0263 v -2.66945 h 0.979678 z" />
      <path
         id="path867"
         style="font-style:normal;font-variant:normal;font-weight:bold;font-stretch:normal;font-family:Ubuntu;-inkscape-font-specification:'Ubuntu Bold';text-align:center;text-anchor:middle;stroke-width:0.26458332px"
         d="m 84.56756,169.36024 q 0.144651,0 0.276151,-0.007 0.1315,-0.007 0.210401,-0.0197 v -0.74297 q -0.05918,-0.0131 -0.177526,-0.0263 -0.11835,-0.0131 -0.216976,-0.0131 -0.138075,0 -0.263,0.0197 -0.118351,0.0131 -0.210401,0.0592 -0.09205,0.046 -0.14465,0.12492 -0.0526,0.0789 -0.0526,0.19725 0,0.23013 0.151225,0.32218 0.1578,0.0855 0.427376,0.0855 z m -0.0789,-2.86671 q 0.433951,0 0.723252,0.0986 0.289301,0.0986 0.460251,0.28273 0.177526,0.1841 0.249851,0.4471 0.07232,0.263 0.07232,0.58518 v 2.03825 q -0.2104,0.046 -0.585176,0.1052 -0.374777,0.0657 -0.907353,0.0657 -0.335326,0 -0.611477,-0.0592 -0.269575,-0.0592 -0.466826,-0.19068 -0.19725,-0.13807 -0.302451,-0.35505 -0.1052,-0.21698 -0.1052,-0.53258 0,-0.30245 0.11835,-0.51285 0.124926,-0.2104 0.328751,-0.33532 0.203826,-0.12493 0.466826,-0.17753 0.263001,-0.0592 0.545727,-0.0592 0.190675,0 0.335326,0.0197 0.151225,0.0132 0.243276,0.0395 v -0.0921 q 0,-0.24985 -0.151226,-0.40108 -0.151225,-0.15122 -0.526001,-0.15122 -0.249851,0 -0.493127,0.0394 -0.243275,0.0329 -0.420801,0.0986 l -0.124925,-0.789 q 0.08548,-0.0263 0.2104,-0.0526 0.131501,-0.0329 0.282726,-0.0526 0.151226,-0.0263 0.315601,-0.0394 0.170951,-0.0197 0.341901,-0.0197 z" />
      <path
         id="path869"
         style="font-style:normal;font-variant:normal;font-weight:bold;font-stretch:normal;font-family:Ubuntu;-inkscape-font-specification:'Ubuntu Bold';text-align:center;text-anchor:middle;stroke-width:0.26458332px"
         d="m 88.966244,167.45348 q -0.1315,-0.0329 -0.309026,-0.0658 -0.177525,-0.0395 -0.381351,-0.0395 -0.09205,0 -0.223551,0.0197 -0.124925,0.0131 -0.190675,0.0329 v 2.64316 h -0.979678 v -3.27436 q 0.263001,-0.0921 0.618052,-0.17095 0.361626,-0.0855 0.802152,-0.0855 0.0789,0 0.190676,0.0131 0.111775,0.007 0.22355,0.0263 0.111775,0.0132 0.223551,0.0395 0.111775,0.0197 0.190675,0.0526 z" />
      <path
         id="path871"
         style="font-style:normal;font-variant:normal;font-weight:bold;font-stretch:normal;font-family:Ubuntu;-inkscape-font-specification:'Ubuntu Bold';text-align:center;text-anchor:middle;stroke-width:0.26458332px"
         d="m 89.623739,165.72425 0.979677,-0.1578 v 1.01913 h 1.176929 v 0.8153 h -1.176929 v 1.21638 q 0,0.30902 0.105201,0.49312 0.111775,0.1841 0.440526,0.1841 0.1578,0 0.322176,-0.0263 0.17095,-0.0329 0.309026,-0.0855 l 0.138075,0.7627 q -0.177526,0.0723 -0.394501,0.12493 -0.216976,0.0526 -0.532577,0.0526 -0.401076,0 -0.664076,-0.1052 -0.263001,-0.11178 -0.420802,-0.30245 -0.1578,-0.19725 -0.22355,-0.47341 -0.05917,-0.27615 -0.05917,-0.61147 z" />
      <path
         id="path873"
         style="font-style:normal;font-variant:normal;font-weight:bold;font-stretch:normal;font-family:Ubuntu;-inkscape-font-specification:'Ubuntu Bold';text-align:center;text-anchor:middle;stroke-width:0.26458332px"
         d="M 93.555588,170.04404 H 92.57591 v -3.45846 h 0.979678 z m 0.09205,-4.45787 q 0,0.26958 -0.177526,0.42738 -0.17095,0.15123 -0.407651,0.15123 -0.2367,0 -0.414226,-0.15123 -0.17095,-0.1578 -0.17095,-0.42738 0,-0.26957 0.17095,-0.4208 0.177526,-0.1578 0.414226,-0.1578 0.236701,0 0.407651,0.1578 0.177526,0.15123 0.177526,0.4208 z" />
      <path
         id="path875"
         style="font-style:normal;font-variant:normal;font-weight:bold;font-stretch:normal;font-family:Ubuntu;-inkscape-font-specification:'Ubuntu Bold';text-align:center;text-anchor:middle;stroke-width:0.26458332px"
         d="m 94.311713,168.34111 q 0,-0.46025 0.138076,-0.80215 0.14465,-0.34848 0.374776,-0.57861 0.230126,-0.23012 0.526001,-0.34847 0.302451,-0.11835 0.618052,-0.11835 0.736402,0 1.163778,0.45367 0.427376,0.4471 0.427376,1.32158 0,0.0855 -0.0066,0.19068 -0.0066,0.0986 -0.01315,0.17752 h -2.222356 q 0.03288,0.30245 0.282726,0.47998 0.249851,0.17752 0.670652,0.17752 0.269576,0 0.526001,-0.046 0.263001,-0.0526 0.427376,-0.12493 l 0.131501,0.79558 q -0.0789,0.0395 -0.210401,0.0789 -0.1315,0.0395 -0.295876,0.0658 -0.1578,0.0329 -0.341901,0.0526 -0.1841,0.0197 -0.368201,0.0197 -0.466826,0 -0.815302,-0.13808 -0.341901,-0.13807 -0.572026,-0.37477 -0.223551,-0.24328 -0.335326,-0.57203 -0.105201,-0.32875 -0.105201,-0.7101 z m 2.301257,-0.37478 q -0.0066,-0.12492 -0.04603,-0.24327 -0.03288,-0.11835 -0.111776,-0.21041 -0.07232,-0.0921 -0.190675,-0.15122 -0.111776,-0.0592 -0.282726,-0.0592 -0.164375,0 -0.282726,0.0592 -0.11835,0.0526 -0.19725,0.14465 -0.0789,0.0921 -0.124926,0.21698 -0.03945,0.11835 -0.05918,0.24327 z" />
      <path
         id="path877"
         style="font-style:normal;font-variant:normal;font-weight:bold;font-stretch:normal;font-family:Ubuntu;-inkscape-font-specification:'Ubuntu Bold';text-align:center;text-anchor:middle;stroke-width:0.26458332px"
         d="m 100.40018,167.45348 q -0.1315,-0.0329 -0.30903,-0.0658 -0.177524,-0.0395 -0.38135,-0.0395 -0.09205,0 -0.22355,0.0197 -0.124926,0.0131 -0.190676,0.0329 v 2.64316 h -0.979678 v -3.27436 q 0.263001,-0.0921 0.618052,-0.17095 0.361626,-0.0855 0.802152,-0.0855 0.0789,0 0.190676,0.0131 0.111774,0.007 0.223554,0.0263 0.11177,0.0132 0.22355,0.0395 0.11177,0.0197 0.19067,0.0526 z" />
      <path
         id="path879"
         style="font-style:normal;font-variant:normal;font-weight:bold;font-stretch:normal;font-family:Ubuntu;-inkscape-font-specification:'Ubuntu Bold';text-align:center;text-anchor:middle;stroke-width:0.26458332px"
         d="m 67.554741,178.63579 q -0.374776,0 -0.749552,-0.0263 -0.368201,-0.0197 -0.769277,-0.1052 v -4.41841 q 0.315601,-0.0592 0.690377,-0.0855 0.374776,-0.0329 0.696952,-0.0329 0.433951,0 0.795577,0.0657 0.368201,0.0592 0.631202,0.2104 0.263001,0.15122 0.407651,0.40107 0.151226,0.24328 0.151226,0.6049 0,0.54573 -0.526002,0.86133 0.433951,0.16438 0.591752,0.4471 0.1578,0.28273 0.1578,0.63778 0,0.71668 -0.526001,1.0783 -0.519427,0.36163 -1.551705,0.36163 z m -0.519426,-2.04483 v 1.17693 q 0.111775,0.0131 0.243276,0.0197 0.1315,0.007 0.2893,0.007 0.460252,0 0.742978,-0.1315 0.282725,-0.1315 0.282725,-0.48656 0,-0.3156 -0.2367,-0.4471 -0.236701,-0.13807 -0.677227,-0.13807 z m 0,-0.78243 h 0.499701 q 0.473402,0 0.677227,-0.11835 0.203826,-0.12493 0.203826,-0.3945 0,-0.27615 -0.210401,-0.38793 -0.2104,-0.11177 -0.618051,-0.11177 -0.131501,0 -0.282726,0.007 -0.151226,0 -0.269576,0.0131 z" />
      <path
         id="path881"
         style="font-style:normal;font-variant:normal;font-weight:bold;font-stretch:normal;font-family:Ubuntu;-inkscape-font-specification:'Ubuntu Bold';text-align:center;text-anchor:middle;stroke-width:0.26458332px"
         d="m 71.710146,177.89281 q 0.144651,0 0.276151,-0.007 0.1315,-0.007 0.210401,-0.0197 v -0.74298 q -0.05918,-0.0131 -0.177526,-0.0263 -0.11835,-0.0131 -0.216975,-0.0131 -0.138076,0 -0.263001,0.0197 -0.118351,0.0131 -0.210401,0.0592 -0.09205,0.046 -0.14465,0.12493 -0.0526,0.0789 -0.0526,0.19725 0,0.23013 0.151225,0.32218 0.157801,0.0855 0.427376,0.0855 z m -0.0789,-2.86671 q 0.433951,0 0.723252,0.0986 0.289301,0.0986 0.460251,0.28272 0.177526,0.1841 0.249851,0.44711 0.07233,0.263 0.07233,0.58517 v 2.03826 q -0.2104,0.046 -0.585176,0.1052 -0.374776,0.0658 -0.907353,0.0658 -0.335326,0 -0.611477,-0.0592 -0.269575,-0.0592 -0.466826,-0.19067 -0.19725,-0.13808 -0.302451,-0.35505 -0.1052,-0.21698 -0.1052,-0.53258 0,-0.30245 0.11835,-0.51285 0.124926,-0.2104 0.328751,-0.33533 0.203826,-0.12492 0.466827,-0.17752 0.263,-0.0592 0.545726,-0.0592 0.190676,0 0.335326,0.0197 0.151225,0.0131 0.243276,0.0394 v -0.0921 q 0,-0.24985 -0.151226,-0.40108 -0.151225,-0.15122 -0.526001,-0.15122 -0.249851,0 -0.493127,0.0395 -0.243275,0.0329 -0.420801,0.0986 l -0.124925,-0.789 q 0.08547,-0.0263 0.2104,-0.0526 0.131501,-0.0329 0.282726,-0.0526 0.151226,-0.0263 0.315601,-0.0395 0.170951,-0.0197 0.341901,-0.0197 z" />
      <path
         id="path883"
         style="font-style:normal;font-variant:normal;font-weight:bold;font-stretch:normal;font-family:Ubuntu;-inkscape-font-specification:'Ubuntu Bold';text-align:center;text-anchor:middle;stroke-width:0.26458332px"
         d="m 76.10883,175.98606 q -0.1315,-0.0329 -0.309026,-0.0658 -0.177525,-0.0394 -0.381351,-0.0394 -0.09205,0 -0.223551,0.0197 -0.124925,0.0131 -0.190675,0.0329 v 2.64315 h -0.979678 v -3.27436 q 0.263001,-0.0921 0.618052,-0.17095 0.361626,-0.0855 0.802152,-0.0855 0.0789,0 0.190676,0.0131 0.111775,0.007 0.22355,0.0263 0.111776,0.0131 0.223551,0.0394 0.111775,0.0197 0.190675,0.0526 z" />
      <path
         id="path885"
         style="font-style:normal;font-variant:normal;font-weight:bold;font-stretch:normal;font-family:Ubuntu;-inkscape-font-specification:'Ubuntu Bold';text-align:center;text-anchor:middle;stroke-width:0.26458332px"
         d="m 78.179954,178.64236 q -0.427377,-0.007 -0.696952,-0.0921 -0.263001,-0.0855 -0.420801,-0.2367 -0.151226,-0.1578 -0.210401,-0.37477 -0.0526,-0.22355 -0.0526,-0.4997 v -3.80694 l 0.979677,-0.1578 v 3.76748 q 0,0.1315 0.01973,0.23671 0.01972,0.1052 0.07233,0.17752 0.05917,0.0723 0.164375,0.11835 0.1052,0.046 0.282726,0.0592 z" />
      <path
         id="path887"
         style="font-style:normal;font-variant:normal;font-weight:bold;font-stretch:normal;font-family:Ubuntu;-inkscape-font-specification:'Ubuntu Bold';text-align:center;text-anchor:middle;stroke-width:0.26458332px"
         d="m 78.712531,176.87368 q 0,-0.46025 0.138075,-0.80215 0.14465,-0.34847 0.374776,-0.5786 0.230126,-0.23013 0.526002,-0.34848 0.30245,-0.11835 0.618051,-0.11835 0.736402,0 1.163778,0.45368 0.427377,0.4471 0.427377,1.32158 0,0.0855 -0.0066,0.19067 -0.0066,0.0986 -0.01315,0.17753 h -2.222356 q 0.03288,0.30245 0.282726,0.47998 0.249851,0.17752 0.670652,0.17752 0.269576,0 0.526001,-0.046 0.263001,-0.0526 0.427377,-0.12493 l 0.1315,0.79558 q -0.0789,0.0394 -0.210401,0.0789 -0.1315,0.0395 -0.295875,0.0658 -0.157801,0.0329 -0.341901,0.0526 -0.184101,0.0197 -0.368201,0.0197 -0.466827,0 -0.815303,-0.13807 -0.3419,-0.13808 -0.572026,-0.37478 -0.223551,-0.24327 -0.335326,-0.57202 -0.1052,-0.32876 -0.1052,-0.71011 z m 2.301256,-0.37477 q -0.0066,-0.12493 -0.04603,-0.24328 -0.03287,-0.11835 -0.111775,-0.2104 -0.07233,-0.0921 -0.190676,-0.15122 -0.111775,-0.0592 -0.282726,-0.0592 -0.164375,0 -0.282726,0.0592 -0.11835,0.0526 -0.19725,0.14465 -0.0789,0.0921 -0.124925,0.21697 -0.03945,0.11835 -0.05918,0.24328 z" />
      <path
         id="path889"
         style="font-style:normal;font-variant:normal;font-weight:bold;font-stretch:normal;font-family:Ubuntu;-inkscape-font-specification:'Ubuntu Bold';text-align:center;text-anchor:middle;stroke-width:0.26458332px"
         d="m 82.683839,174.25683 0.979677,-0.1578 v 1.01912 h 1.176928 v 0.81531 h -1.176928 v 1.21637 q 0,0.30903 0.105201,0.49313 0.111775,0.1841 0.440526,0.1841 0.1578,0 0.322176,-0.0263 0.17095,-0.0329 0.309025,-0.0855 l 0.138076,0.7627 q -0.177526,0.0723 -0.394501,0.12492 -0.216976,0.0526 -0.532577,0.0526 -0.401076,0 -0.664077,-0.1052 -0.263,-0.11177 -0.420801,-0.30245 -0.1578,-0.19725 -0.22355,-0.4734 -0.05917,-0.27615 -0.05917,-0.61148 z" />
      <path
         id="path891"
         style="font-style:normal;font-variant:normal;font-weight:bold;font-stretch:normal;font-family:Ubuntu;-inkscape-font-specification:'Ubuntu Bold';text-align:center;text-anchor:middle;stroke-width:0.26458332px"
         d="m 85.274384,176.17016 h 1.906755 v 0.88762 h -1.906755 z" />
      <path
         id="path893"
         style="font-style:normal;font-variant:normal;font-weight:bold;font-stretch:normal;font-family:Ubuntu;-inkscape-font-specification:'Ubuntu Bold';text-align:center;text-anchor:middle;stroke-width:0.26458332px"
         d="m 90.080701,178.66866 q -1.111178,0 -1.696355,-0.61805 -0.578601,-0.61805 -0.578601,-1.75553 0,-0.56545 0.177525,-1.00598 0.177526,-0.4471 0.486552,-0.74955 0.309025,-0.30902 0.736402,-0.46682 0.427376,-0.1578 0.927077,-0.1578 0.289301,0 0.526002,0.046 0.2367,0.0395 0.414226,0.0986 0.177525,0.0526 0.295875,0.11177 0.118351,0.0592 0.170951,0.0921 l -0.295876,0.82845 q -0.2104,-0.11177 -0.493126,-0.19067 -0.276151,-0.0789 -0.631202,-0.0789 -0.236701,0 -0.466826,0.0789 -0.223551,0.0789 -0.401076,0.25642 -0.170951,0.17095 -0.276151,0.44711 -0.1052,0.27615 -0.1052,0.67065 0,0.3156 0.06575,0.59175 0.07232,0.26957 0.22355,0.46682 0.157801,0.19726 0.407652,0.31561 0.24985,0.11177 0.604901,0.11177 0.223551,0 0.401076,-0.0263 0.177526,-0.0263 0.315601,-0.0592 0.138076,-0.0394 0.243276,-0.0855 0.1052,-0.046 0.190675,-0.0855 l 0.282726,0.82187 q -0.216975,0.1315 -0.611477,0.2367 -0.394501,0.1052 -0.913927,0.1052 z" />
      <path
         id="path895"
         style="font-style:normal;font-variant:normal;font-weight:bold;font-stretch:normal;font-family:Ubuntu;-inkscape-font-specification:'Ubuntu Bold';text-align:center;text-anchor:middle;stroke-width:0.26458332px"
         d="m 91.954566,176.87368 q 0,-0.46025 0.138075,-0.80215 0.14465,-0.34847 0.374776,-0.5786 0.230126,-0.23013 0.526001,-0.34848 0.302451,-0.11835 0.618052,-0.11835 0.736402,0 1.163778,0.45368 0.427376,0.4471 0.427376,1.32158 0,0.0855 -0.0066,0.19067 -0.0066,0.0986 -0.01315,0.17753 h -2.222356 q 0.03288,0.30245 0.282726,0.47998 0.249851,0.17752 0.670652,0.17752 0.269576,0 0.526001,-0.046 0.263001,-0.0526 0.427377,-0.12493 l 0.1315,0.79558 q -0.0789,0.0394 -0.210401,0.0789 -0.1315,0.0395 -0.295875,0.0658 -0.157801,0.0329 -0.341901,0.0526 -0.184101,0.0197 -0.368201,0.0197 -0.466827,0 -0.815303,-0.13807 -0.341901,-0.13808 -0.572026,-0.37478 -0.223551,-0.24327 -0.335326,-0.57202 -0.1052,-0.32876 -0.1052,-0.71011 z m 2.301256,-0.37477 q -0.0066,-0.12493 -0.04603,-0.24328 -0.03287,-0.11835 -0.111776,-0.2104 -0.07233,-0.0921 -0.190675,-0.15122 -0.111775,-0.0592 -0.282726,-0.0592 -0.164375,0 -0.282726,0.0592 -0.11835,0.0526 -0.19725,0.14465 -0.0789,0.0921 -0.124925,0.21697 -0.03945,0.11835 -0.05918,0.24328 z" />
      <path
         id="path897"
         style="font-style:normal;font-variant:normal;font-weight:bold;font-stretch:normal;font-family:Ubuntu;-inkscape-font-specification:'Ubuntu Bold';text-align:center;text-anchor:middle;stroke-width:0.26458332px"
         d="m 95.958749,175.2365 q 0.24985,-0.0723 0.644351,-0.1315 0.394501,-0.0657 0.828453,-0.0657 0.440526,0 0.729827,0.11835 0.295875,0.11178 0.466826,0.32218 0.17095,0.2104 0.243275,0.4997 0.07233,0.2893 0.07233,0.64435 v 1.95278 h -0.979678 v -1.83443 q 0,-0.4734 -0.124925,-0.67065 -0.124926,-0.19725 -0.466827,-0.19725 -0.1052,0 -0.22355,0.0131 -0.118351,0.007 -0.210401,0.0197 v 2.66945 h -0.979677 z" />
      <path
         id="path899"
         style="font-style:normal;font-variant:normal;font-weight:bold;font-stretch:normal;font-family:Ubuntu;-inkscape-font-specification:'Ubuntu Bold';text-align:center;text-anchor:middle;stroke-width:0.26458332px"
         d="m 99.79855,174.25683 0.97968,-0.1578 v 1.01912 h 1.17693 v 0.81531 h -1.17693 v 1.21637 q 0,0.30903 0.1052,0.49313 0.11177,0.1841 0.44052,0.1841 0.1578,0 0.32218,-0.0263 0.17095,-0.0329 0.30903,-0.0855 l 0.13807,0.7627 q -0.17752,0.0723 -0.3945,0.12492 -0.21698,0.0526 -0.53258,0.0526 -0.40107,0 -0.66407,-0.1052 -0.263,-0.11177 -0.4208,-0.30245 -0.157804,-0.19725 -0.223555,-0.4734 -0.05917,-0.27615 -0.05917,-0.61148 z" />
      <path
         id="path901"
         style="font-style:normal;font-variant:normal;font-weight:bold;font-stretch:normal;font-family:Ubuntu;-inkscape-font-specification:'Ubuntu Bold';text-align:center;text-anchor:middle;stroke-width:0.26458332px"
         d="m 104.83501,175.98606 q -0.1315,-0.0329 -0.30903,-0.0658 -0.17753,-0.0394 -0.38135,-0.0394 -0.0921,0 -0.22355,0.0197 -0.12493,0.0131 -0.19068,0.0329 v 2.64315 h -0.97967 v -3.27436 q 0.263,-0.0921 0.61805,-0.17095 0.36162,-0.0855 0.80215,-0.0855 0.0789,0 0.19067,0.0131 0.11178,0.007 0.22356,0.0263 0.11177,0.0131 0.22355,0.0394 0.11177,0.0197 0.19067,0.0526 z" />
      <path
         id="path903"
         style="font-style:normal;font-variant:normal;font-weight:bold;font-stretch:normal;font-family:Ubuntu;-inkscape-font-specification:'Ubuntu Bold';text-align:center;text-anchor:middle;stroke-width:0.26458332px"
         d="m 105.29525,176.87368 q 0,-0.46025 0.13807,-0.80215 0.14465,-0.34847 0.37478,-0.5786 0.23012,-0.23013 0.526,-0.34848 0.30245,-0.11835 0.61805,-0.11835 0.7364,0 1.16378,0.45368 0.42738,0.4471 0.42738,1.32158 0,0.0855 -0.007,0.19067 -0.007,0.0986 -0.0132,0.17753 h -2.22236 q 0.0329,0.30245 0.28273,0.47998 0.24985,0.17752 0.67065,0.17752 0.26958,0 0.526,-0.046 0.263,-0.0526 0.42738,-0.12493 l 0.1315,0.79558 q -0.0789,0.0394 -0.2104,0.0789 -0.1315,0.0395 -0.29588,0.0658 -0.1578,0.0329 -0.3419,0.0526 -0.1841,0.0197 -0.3682,0.0197 -0.46682,0 -0.8153,-0.13807 -0.3419,-0.13808 -0.57203,-0.37478 -0.22355,-0.24327 -0.33532,-0.57202 -0.1052,-0.32876 -0.1052,-0.71011 z m 2.30125,-0.37477 q -0.007,-0.12493 -0.046,-0.24328 -0.0329,-0.11835 -0.11178,-0.2104 -0.0723,-0.0921 -0.19067,-0.15122 -0.11178,-0.0592 -0.28273,-0.0592 -0.16437,0 -0.28272,0.0592 -0.11835,0.0526 -0.19726,0.14465 -0.0789,0.0921 -0.12492,0.21697 -0.0395,0.11835 -0.0592,0.24328 z" />
      <path
         id="path905"
         style="font-style:normal;font-variant:normal;font-weight:bold;font-stretch:normal;font-family:Ubuntu;-inkscape-font-specification:'Ubuntu Bold';text-align:center;text-anchor:middle;stroke-width:0.26458332px"
         d="m 65.486886,187.10919 v -4.55649 h 3.050809 v 0.86133 h -2.025106 v 0.95338 h 1.801555 v 0.86132 h -1.801555 v 1.88046 z" />
      <path
         id="path907"
         style="font-style:normal;font-variant:normal;font-weight:bold;font-stretch:normal;font-family:Ubuntu;-inkscape-font-specification:'Ubuntu Bold';text-align:center;text-anchor:middle;stroke-width:0.26458332px"
         d="m 69.964468,185.26818 q 0,0.82188 0.664077,0.82188 0.151225,0 0.282726,-0.0394 0.1315,-0.0395 0.22355,-0.0921 v -1.56485 q -0.07233,-0.0131 -0.17095,-0.0197 -0.09862,-0.0131 -0.230126,-0.0131 -0.387926,0 -0.578601,0.25643 -0.190676,0.25642 -0.190676,0.65092 z m 2.150031,1.40706 q 0,0.84818 -0.433951,1.25583 -0.427376,0.41422 -1.328154,0.41422 -0.315601,0 -0.631202,-0.0592 -0.3156,-0.0526 -0.585176,-0.14465 l 0.17095,-0.82188 q 0.230126,0.0921 0.479977,0.14465 0.256425,0.0526 0.578601,0.0526 0.420801,0 0.591752,-0.1841 0.177525,-0.1841 0.177525,-0.4734 v -0.12493 q -0.1578,0.0723 -0.328751,0.11178 -0.164375,0.0329 -0.361626,0.0329 -0.716677,0 -1.098028,-0.4208 -0.381351,-0.42737 -0.381351,-1.19008 0,-0.38135 0.118351,-0.69037 0.11835,-0.3156 0.341901,-0.53915 0.230125,-0.22355 0.558876,-0.3419 0.328751,-0.12493 0.742977,-0.12493 0.177526,0 0.361626,0.0197 0.190676,0.0131 0.374776,0.0394 0.184101,0.0263 0.348476,0.0658 0.170951,0.0329 0.302451,0.0723 z" />
      <path
         id="path909"
         style="font-style:normal;font-variant:normal;font-weight:bold;font-stretch:normal;font-family:Ubuntu;-inkscape-font-specification:'Ubuntu Bold';text-align:center;text-anchor:middle;stroke-width:0.26458332px"
         d="m 75.44803,185.35366 q 0,0.45368 0.203826,0.72983 0.203825,0.27615 0.604902,0.27615 0.1315,0 0.243275,-0.007 0.111776,-0.0131 0.184101,-0.0263 v -1.78183 q -0.09205,-0.0592 -0.243276,-0.0986 -0.14465,-0.0395 -0.295876,-0.0395 -0.696952,0 -0.696952,0.9468 z m 2.215781,1.64375 q -0.1315,0.0394 -0.30245,0.0789 -0.170951,0.0329 -0.361626,0.0592 -0.184101,0.0263 -0.381351,0.0394 -0.190676,0.0197 -0.368201,0.0197 -0.427377,0 -0.762703,-0.12492 -0.335325,-0.12493 -0.565451,-0.35505 -0.230126,-0.2367 -0.355051,-0.56545 -0.11835,-0.33533 -0.11835,-0.74956 0,-0.4208 0.1052,-0.75612 0.1052,-0.3419 0.302451,-0.5786 0.19725,-0.2367 0.479976,-0.36163 0.289301,-0.12493 0.657502,-0.12493 0.203825,0 0.361626,0.0395 0.164375,0.0394 0.328751,0.11178 v -1.56485 l 0.979677,-0.1578 z" />
      <path
         id="path911"
         style="font-style:normal;font-variant:normal;font-weight:bold;font-stretch:normal;font-family:Ubuntu;-inkscape-font-specification:'Ubuntu Bold';text-align:center;text-anchor:middle;stroke-width:0.26458332px"
         d="m 78.419927,185.40626 q 0,-0.46025 0.138075,-0.80215 0.144651,-0.34848 0.374776,-0.5786 0.230126,-0.23013 0.526002,-0.34848 0.30245,-0.11835 0.618051,-0.11835 0.736402,0 1.163778,0.45368 0.427377,0.4471 0.427377,1.32157 0,0.0855 -0.0066,0.19068 -0.0066,0.0986 -0.01315,0.17753 H 79.42588 q 0.03288,0.30245 0.282725,0.47997 0.249851,0.17753 0.670652,0.17753 0.269576,0 0.526002,-0.046 0.263,-0.0526 0.427376,-0.12492 l 0.1315,0.79557 q -0.0789,0.0394 -0.2104,0.0789 -0.131501,0.0394 -0.295876,0.0657 -0.157801,0.0329 -0.341901,0.0526 -0.184101,0.0197 -0.368201,0.0197 -0.466826,0 -0.815302,-0.13808 -0.341901,-0.13807 -0.572027,-0.37477 -0.223551,-0.24328 -0.335326,-0.57203 -0.1052,-0.32875 -0.1052,-0.7101 z m 2.301256,-0.37478 q -0.0066,-0.12492 -0.04603,-0.24327 -0.03287,-0.11835 -0.111775,-0.2104 -0.07233,-0.0921 -0.190676,-0.15123 -0.111775,-0.0592 -0.282726,-0.0592 -0.164375,0 -0.282725,0.0592 -0.118351,0.0526 -0.197251,0.14465 -0.0789,0.092 -0.124925,0.21698 -0.03945,0.11835 -0.05917,0.24327 z" />
      <path
         id="path913"
         style="font-style:normal;font-variant:normal;font-weight:bold;font-stretch:normal;font-family:Ubuntu;-inkscape-font-specification:'Ubuntu Bold';text-align:center;text-anchor:middle;stroke-width:0.26458332px"
         d="m 86.145569,187.20124 q -1.111179,0 -1.696355,-0.61805 -0.578602,-0.61805 -0.578602,-1.75553 0,-0.56545 0.177526,-1.00598 0.177525,-0.4471 0.486551,-0.74955 0.309026,-0.30903 0.736402,-0.46683 0.427376,-0.1578 0.927078,-0.1578 0.2893,0 0.526001,0.046 0.236701,0.0395 0.414226,0.0986 0.177526,0.0526 0.295876,0.11178 0.11835,0.0592 0.170951,0.092 l -0.295876,0.82845 q -0.210401,-0.11178 -0.493127,-0.19068 -0.27615,-0.0789 -0.631201,-0.0789 -0.236701,0 -0.466827,0.0789 -0.22355,0.0789 -0.401076,0.25643 -0.17095,0.17095 -0.27615,0.4471 -0.105201,0.27615 -0.105201,0.67065 0,0.3156 0.06575,0.59175 0.07233,0.26958 0.223551,0.46683 0.1578,0.19725 0.407651,0.3156 0.249851,0.11178 0.604902,0.11178 0.22355,0 0.401076,-0.0263 0.177525,-0.0263 0.315601,-0.0592 0.138075,-0.0394 0.243275,-0.0855 0.105201,-0.046 0.190676,-0.0855 l 0.282726,0.82188 q -0.216976,0.1315 -0.611477,0.2367 -0.394501,0.1052 -0.913927,0.1052 z" />
      <path
         id="path915"
         style="font-style:normal;font-variant:normal;font-weight:bold;font-stretch:normal;font-family:Ubuntu;-inkscape-font-specification:'Ubuntu Bold';text-align:center;text-anchor:middle;stroke-width:0.26458332px"
         d="m 89.650035,186.42539 q 0.14465,0 0.276151,-0.007 0.1315,-0.007 0.2104,-0.0197 v -0.74298 q -0.05917,-0.0132 -0.177525,-0.0263 -0.118351,-0.0131 -0.216976,-0.0131 -0.138075,0 -0.263001,0.0197 -0.11835,0.0131 -0.2104,0.0592 -0.09205,0.046 -0.144651,0.12493 -0.0526,0.0789 -0.0526,0.19725 0,0.23012 0.151226,0.32217 0.1578,0.0855 0.427376,0.0855 z m -0.0789,-2.86671 q 0.433951,0 0.723252,0.0986 0.2893,0.0986 0.460251,0.28273 0.177525,0.1841 0.249851,0.4471 0.07232,0.263 0.07232,0.58518 v 2.03825 q -0.210401,0.046 -0.585177,0.1052 -0.374776,0.0658 -0.907352,0.0658 -0.335326,0 -0.611477,-0.0592 -0.269576,-0.0592 -0.466826,-0.19068 -0.197251,-0.13807 -0.302451,-0.35505 -0.1052,-0.21697 -0.1052,-0.53257 0,-0.30245 0.11835,-0.51285 0.124925,-0.21041 0.328751,-0.33533 0.203825,-0.12493 0.466826,-0.17753 0.263001,-0.0592 0.545727,-0.0592 0.190675,0 0.335325,0.0197 0.151226,0.0131 0.243276,0.0394 v -0.0921 q 0,-0.24985 -0.151225,-0.40107 -0.151226,-0.15123 -0.526002,-0.15123 -0.24985,0 -0.493126,0.0395 -0.243276,0.0329 -0.420801,0.0986 l -0.124926,-0.789 q 0.08548,-0.0263 0.210401,-0.0526 0.1315,-0.0329 0.282726,-0.0526 0.151225,-0.0263 0.315601,-0.0395 0.17095,-0.0197 0.341901,-0.0197 z" />
      <path
         id="path917"
         style="font-style:normal;font-variant:normal;font-weight:bold;font-stretch:normal;font-family:Ubuntu;-inkscape-font-specification:'Ubuntu Bold';text-align:center;text-anchor:middle;stroke-width:0.26458332px"
         d="m 93.864617,185.27476 q 0,-0.4734 -0.124925,-0.67065 -0.118351,-0.19725 -0.414226,-0.19725 -0.09205,0 -0.190676,0.0131 -0.09862,0.007 -0.190676,0.0197 v 2.66946 h -0.979677 v -3.34011 q 0.124925,-0.0329 0.289301,-0.0658 0.17095,-0.0394 0.355051,-0.0657 0.190675,-0.0329 0.387926,-0.046 0.19725,-0.0197 0.387926,-0.0197 0.374776,0 0.604901,0.0986 0.236701,0.0921 0.387926,0.22356 0.210401,-0.15123 0.479977,-0.23671 0.27615,-0.0855 0.506276,-0.0855 0.414226,0 0.677227,0.11835 0.269576,0.11178 0.427376,0.32218 0.157801,0.2104 0.216976,0.4997 0.05917,0.2893 0.05917,0.64435 v 1.95278 h -0.979678 v -1.83443 q 0,-0.4734 -0.124925,-0.67065 -0.11835,-0.19725 -0.414226,-0.19725 -0.0789,0 -0.223551,0.0395 -0.138075,0.0394 -0.230126,0.0986 0.04603,0.15123 0.05918,0.32218 0.01315,0.16437 0.01315,0.35505 v 1.88703 h -0.979678 z" />
      <path
         id="path919"
         style="font-style:normal;font-variant:normal;font-weight:bold;font-stretch:normal;font-family:Ubuntu;-inkscape-font-specification:'Ubuntu Bold';text-align:center;text-anchor:middle;stroke-width:0.26458332px"
         d="m 99.847881,185.35366 q 0,-0.9468 -0.696951,-0.9468 -0.151226,0 -0.302451,0.0395 -0.144651,0.0394 -0.236701,0.0986 v 1.78183 q 0.07232,0.0131 0.184101,0.0263 0.111775,0.007 0.243275,0.007 0.401076,0 0.604902,-0.27615 0.203825,-0.27615 0.203825,-0.72983 z m 0.999399,0.0263 q 0,0.41423 -0.12492,0.74955 -0.11835,0.33533 -0.34848,0.57203 -0.23012,0.2367 -0.565449,0.3682 -0.335326,0.12492 -0.762702,0.12492 -0.177525,0 -0.374776,-0.0197 -0.190675,-0.0131 -0.381351,-0.0394 -0.1841,-0.0263 -0.355051,-0.0592 -0.17095,-0.0395 -0.302451,-0.0789 v -4.83263 l 0.979678,-0.1578 v 1.72265 q 0.164376,-0.0723 0.341901,-0.11178 0.177525,-0.0395 0.381351,-0.0395 0.368201,0 0.650927,0.13151 0.282723,0.12492 0.473403,0.36162 0.19067,0.2367 0.2893,0.57203 0.0986,0.32875 0.0986,0.7364 z" />
      <path
         id="path921"
         style="font-style:normal;font-variant:normal;font-weight:bold;font-stretch:normal;font-family:Ubuntu;-inkscape-font-specification:'Ubuntu Bold';text-align:center;text-anchor:middle;stroke-width:0.26458332px"
         d="m 103.68768,184.51863 q -0.1315,-0.0329 -0.30903,-0.0658 -0.17752,-0.0394 -0.38135,-0.0394 -0.0921,0 -0.22355,0.0197 -0.12492,0.0132 -0.19067,0.0329 v 2.64316 h -0.97968 v -3.27436 q 0.263,-0.0921 0.61805,-0.17095 0.36163,-0.0855 0.80215,-0.0855 0.0789,0 0.19068,0.0132 0.11177,0.007 0.22355,0.0263 0.11177,0.0131 0.22355,0.0394 0.11177,0.0197 0.19067,0.0526 z" />
      <path
         id="path923"
         style="font-style:normal;font-variant:normal;font-weight:bold;font-stretch:normal;font-family:Ubuntu;-inkscape-font-specification:'Ubuntu Bold';text-align:center;text-anchor:middle;stroke-width:0.26458332px"
         d="m 105.63388,186.42539 q 0.14465,0 0.27615,-0.007 0.1315,-0.007 0.2104,-0.0197 v -0.74298 q -0.0592,-0.0132 -0.17753,-0.0263 -0.11835,-0.0131 -0.21697,-0.0131 -0.13808,0 -0.263,0.0197 -0.11835,0.0131 -0.2104,0.0592 -0.092,0.046 -0.14465,0.12493 -0.0526,0.0789 -0.0526,0.19725 0,0.23012 0.15122,0.32217 0.1578,0.0855 0.42738,0.0855 z m -0.0789,-2.86671 q 0.43395,0 0.72325,0.0986 0.2893,0.0986 0.46025,0.28273 0.17753,0.1841 0.24985,0.4471 0.0723,0.263 0.0723,0.58518 v 2.03825 q -0.2104,0.046 -0.58518,0.1052 -0.37478,0.0658 -0.90735,0.0658 -0.33533,0 -0.61148,-0.0592 -0.26957,-0.0592 -0.46683,-0.19068 -0.19725,-0.13807 -0.30245,-0.35505 -0.1052,-0.21697 -0.1052,-0.53257 0,-0.30245 0.11835,-0.51285 0.12493,-0.21041 0.32875,-0.33533 0.20383,-0.12493 0.46683,-0.17753 0.263,-0.0592 0.54573,-0.0592 0.19067,0 0.33532,0.0197 0.15123,0.0131 0.24328,0.0394 v -0.0921 q 0,-0.24985 -0.15123,-0.40107 -0.15122,-0.15123 -0.526,-0.15123 -0.24985,0 -0.49312,0.0395 -0.24328,0.0329 -0.42081,0.0986 l -0.12492,-0.789 q 0.0855,-0.0263 0.2104,-0.0526 0.1315,-0.0329 0.28273,-0.0526 0.15122,-0.0263 0.3156,-0.0395 0.17095,-0.0197 0.3419,-0.0197 z" />
      <path
         id="path925"
         style="font-style:normal;font-variant:normal;font-weight:bold;font-stretch:normal;font-family:Ubuntu;-inkscape-font-specification:'Ubuntu Bold';text-align:center;text-anchor:middle;stroke-width:0.26458332px"
         d="m 108.92796,187.10919 h -0.97968 v -3.45846 h 0.97968 z m 0.0921,-4.45786 q 0,0.26957 -0.17753,0.42737 -0.17095,0.15123 -0.40765,0.15123 -0.2367,0 -0.41422,-0.15123 -0.17095,-0.1578 -0.17095,-0.42737 0,-0.26958 0.17095,-0.4208 0.17752,-0.1578 0.41422,-0.1578 0.2367,0 0.40765,0.1578 0.17753,0.15122 0.17753,0.4208 z" />
    </g>
    <path
       transform="matrix(0.34703801,0.45596862,-0.45596862,0.34703801,356.24882,249.57246)"
       id="path848"
       d="m -70.303571,192.67858 -5.654583,-8.01741 -9.086487,-3.69985 8.017409,-5.65458 3.699852,-9.08649 5.654583,8.01741 9.086487,3.69985 -8.017409,5.65459 z"
       style="opacity:1;fill:#808080;fill-opacity:1;stroke:none;stroke-width:0.50958788;stroke-miterlimit:4;stroke-dasharray:none;stroke-dashoffset:0;stroke-opacity:1" />
    <path
       transform="matrix(0.72628256,0.07665653,-0.07665653,0.72628256,315.48231,154.50426)"
       id="path846"
       d="m -70.303571,192.67858 -5.010068,-8.81403 -9.731002,-2.90323 8.814031,-5.01006 2.90323,-9.73101 5.010068,8.81403 9.731002,2.90323 -8.814031,5.01007 z"
       style="opacity:1;fill:#000000;fill-opacity:1;stroke:none;stroke-width:0.3998265;stroke-miterlimit:4;stroke-dasharray:none;stroke-dashoffset:0;stroke-opacity:1" />
    <g
       id="text852"
       style="font-style:normal;font-variant:normal;font-weight:normal;font-stretch:normal;font-size:6.10405827px;line-height:125%;font-family:Ubuntu;-inkscape-font-specification:Ubuntu;letter-spacing:0px;word-spacing:0px;fill:#000000;fill-opacity:1;stroke:none;stroke-width:0.26458332px;stroke-linecap:butt;stroke-linejoin:miter;stroke-opacity:1"
       aria-label="N">
      <path
         id="path860"
         style="font-style:normal;font-variant:normal;font-weight:normal;font-stretch:normal;font-family:Ubuntu;-inkscape-font-specification:Ubuntu;stroke-width:0.26458332px"
         d="m 250.82133,267.78247 q -0.13429,-0.22585 -0.3113,-0.50664 -0.17092,-0.28078 -0.37235,-0.57988 -0.20143,-0.3052 -0.42118,-0.61651 -0.21364,-0.31131 -0.42728,-0.5982 -0.21365,-0.29299 -0.41508,-0.54936 -0.20143,-0.25637 -0.37235,-0.4517 v 3.30229 h -0.57988 v -4.23011 h 0.47001 q 0.28689,0.3052 0.6104,0.71417 0.32962,0.40287 0.64703,0.83626 0.32352,0.42728 0.60431,0.84236 0.28689,0.41508 0.48222,0.73859 v -3.13138 h 0.57988 v 4.23011 z" />
    </g>
  </g>
</svg>
