<?xml version="1.0" encoding="UTF-8" standalone="no"?>
<svg
   xmlns:dc="http://purl.org/dc/elements/1.1/"
   xmlns:cc="http://creativecommons.org/ns#"
   xmlns:rdf="http://www.w3.org/1999/02/22-rdf-syntax-ns#"
   xmlns:svg="http://www.w3.org/2000/svg"
   xmlns="http://www.w3.org/2000/svg"
   width="1024"
   height="768"
   viewBox="0 0 270.93333 203.2"
   version="1.1"
   id="svg8">
  <title
     id="title844">Quartier Barlet-Centre-Faubourg de Cambrai de Douai</title>
  <defs
     id="defs2">
    <filter
       style="color-interpolation-filters:sRGB"
       id="filter859"
       x="-0.060240775"
       width="1.1204815"
       y="-0.089463638"
       height="1.1789273">
      <feGaussianBlur
         stdDeviation="1.5143066"
         id="feGaussianBlur861" />
    </filter>
  </defs>
  <metadata
     id="metadata5">
    <rdf:RDF>
      <cc:Work
         rdf:about="">
        <dc:format>image/svg+xml</dc:format>
        <dc:type
           rdf:resource="http://purl.org/dc/dcmitype/StillImage" />
        <dc:title>Quartier Barlet-Centre-Faubourg de Cambrai de Douai</dc:title>
        <dc:description>Carte de la Ville de Douai et ses quartiers avec le quartier Barlet-Centre-Faubourg de Cambrai mis en évidence.</dc:description>
        <dc:creator>
          <cc:Agent>
            <dc:title>Nicolas Froidure</dc:title>
          </cc:Agent>
        </dc:creator>
        <dc:language>FR</dc:language>
        <cc:license
           rdf:resource="http://creativecommons.org/licenses/by-nc/4.0/" />
      </cc:Work>
      <cc:License
         rdf:about="http://creativecommons.org/licenses/by-nc/4.0/">
        <cc:permits
           rdf:resource="http://creativecommons.org/ns#Reproduction" />
        <cc:permits
           rdf:resource="http://creativecommons.org/ns#Distribution" />
        <cc:requires
           rdf:resource="http://creativecommons.org/ns#Notice" />
        <cc:requires
           rdf:resource="http://creativecommons.org/ns#Attribution" />
        <cc:prohibits
           rdf:resource="http://creativecommons.org/ns#CommercialUse" />
        <cc:permits
           rdf:resource="http://creativecommons.org/ns#DerivativeWorks" />
      </cc:License>
    </rdf:RDF>
  </metadata>
  <path
     id="path1040"
     d="m 206.76006,13.415526 c -2.4486,0.17526 -4.89716,0.35127 -7.3458,0.52607 -1.32233,1.85113 -2.29346,4.06752 -4.53338,4.96461 -2.86934,1.93699 -6.07581,3.48096 -8.74247,5.6542 -2.62877,2.99881 -4.98605,6.28113 -8.37234,8.48887 -2.71644,1.94685 -5.13142,4.41787 -8.03782,6.03442 -3.78496,1.50018 -7.56993,3.00035 -11.35489,4.50052 -9.33563,-3.08073 -19.27153,-3.46605 -29.02097,-3.44113 -1.31863,-1.31059 -2.36189,-3.05356 -4.38107,-3.26487 -1.78931,-0.40023 -3.57034,-1.58068 -5.36449,-1.52589 -3.56389,0.9791 -7.03608,2.4558 -10.65733,3.12355 -4.21795,0.30419 -8.48512,0.44975 -12.673176,0.8502 -1.32604,1.4587 -2.96023,0.34337 -4.5088,-0.0568 -3.22809,-0.99533 -6.45582,-1.99185 -9.68413,-2.98645 -0.28389,1.09601 -2.97696,2.99252 -1.11819,3.37899 2.37179,0.0955 1.77772,2.58168 -0.40625,1.80813 -2.103558,0.12861 -4.336853,-0.28405 -6.366197,0.15424 -1.914625,0.84723 -3.766431,2.20647 -5.718566,2.74799 -1.695881,-0.18149 -3.132103,-0.8484 -4.199943,-2.204 -0.934773,-1.80342 -2.43509,-0.2612 -3.819999,-0.0976 -2.970368,-0.0411 -5.940738,-0.0823 -8.911108,-0.12346 -3.820416,-3.91744 -7.641015,-7.8347 -11.461316,-11.75225 -1.337042,2.06849 -2.674004,4.13704 -4.010608,6.20582 1.637957,2.61996 2.898616,5.5414 5.455209,7.4276 1.764797,1.87177 3.973119,3.43064 5.460678,5.498 2.177209,4.86162 4.354418,9.72324 6.531627,14.58487 -0.200677,2.1835 -0.401354,4.367 -0.60203,6.5505 -1.910253,-0.13715 -2.952118,0.5689 -2.64689,2.58039 -1.866718,0.26015 -2.395061,1.29387 -1.713967,3.04591 0.340163,1.52167 0.51585,3.1428 0.0079,4.45753 0.799541,1.38373 1.889206,2.76413 0.51866,4.17292 -0.505957,1.46826 -1.953113,2.86314 -1.846039,4.37918 0.526999,1.61619 0.990692,3.25693 1.785498,4.76884 -1.07761,0.83948 -3.527544,0.63698 -3.546377,2.28029 0.263515,2.03365 -2.336136,1.80875 -3.629936,2.61395 -2.143252,0.81901 -4.254891,1.748214 -6.555148,2.018524 0.04326,2.29436 -0.496565,4.719 -0.102162,6.93507 0.370053,1.36939 2.407316,3.18944 1.639376,4.25123 -2.282677,0.62477 -0.0753,2.42328 0.394023,3.76777 1.447013,1.51823 -1.947131,2.2288 0.874682,3.08925 1.43452,1.51621 3.251611,-0.31433 4.891052,-0.59302 1.028763,1.64552 1.061025,2.78357 -1.219254,2.35126 -2.302953,0.15329 -4.191589,1.88458 -6.325511,2.68176 -1.957221,0.45216 0.438456,2.37016 0.607862,3.53828 2.209902,4.54777 4.428904,9.09042 7.306422,13.26364 0.921089,0.98474 1.372238,3.14776 2.578338,3.41759 5.243608,-1.34893 10.487216,-2.69786 15.730824,-4.04678 0.74631,2.08154 2.11391,-0.96698 3.177413,-1.50179 1.087954,-1.33909 2.71717,0.83739 4.047469,1.07236 -3.04764,6.51815 -6.095802,13.03605 -9.143111,19.55436 1.510951,0.83969 3.022224,1.6788 4.533056,2.51871 0.324919,-1.89364 1.814034,-2.14791 3.502059,-2.12293 1.25662,-0.20279 1.862013,1.43832 2.725984,2.14618 0.857792,1.02155 1.692158,2.06135 2.561084,3.07371 0.752465,-1.72803 2.287813,-1.67463 3.91727,-1.40754 1.192702,0.70754 1.345325,2.89041 2.135266,4.16925 1.5708,3.42443 2.52806,7.19152 5.07097,10.07269 0.8049,1.67819 2.66477,2.21498 4.0983,3.2132 -0.98859,1.51721 -1.97696,3.03456 -2.96571,4.55166 4.20612,1.12334 8.37536,2.5347 12.60382,3.48521 4.134386,0.0412 8.311106,-0.4647 12.418436,-0.0735 1.15292,-0.0984 4.05766,1.34683 4.08252,0.25413 -1.5446,-4.80231 -2.94338,-9.69277 -4.57651,-14.44137 -1.76044,-1.76044 -3.5209,-3.52089 -5.28135,-5.28133 2.5638,-3.27736 5.12799,-6.55442 7.69154,-9.83196 -0.6058,-1.11753 -3.61548,-2.09261 -1.9879,-3.34419 1.08652,-0.99664 2.06166,-3.77368 3.349,-1.56017 1.12081,1.9856 1.98579,-0.3717 2.93651,-1.26936 2.32288,-2.76478 4.64642,-5.529 6.96889,-8.29412 -2.40997,-1.13616 -4.6204,-2.87111 -7.14863,-3.65179 -0.86926,-0.19463 -4.72789,-0.50301 -3.50536,-0.71878 2.39739,0.36583 4.79482,0.73141 7.19218,1.09738 2.30978,-4.64612 4.75068,-9.25914 6.97839,-13.92628 0.23345,-5.26181 0.25355,-10.56427 0.62006,-15.80073 1.60772,-4.51152 3.21647,-9.02268 4.82353,-13.534444 -2.1455,-1.65408 -4.29085,-3.30834 -6.4363,-4.96249 7.31939,-9.76088 14.4581,-19.68146 21.8902,-29.34272 2.63809,-2.61453 5.66474,-4.89892 7.47801,-8.214 1.534,-1.98811 2.47089,-4.63374 5.04341,-5.47828 3.37162,-1.85452 6.74324,-3.70905 10.11486,-5.56358 1.84693,0.61777 3.67952,1.57433 5.53455,2.00039 1.81022,-0.40759 3.63747,-1.27772 5.43745,-1.40721 3.99629,1.48055 7.99259,2.9611 11.98888,4.44165 0.42874,2.70061 0.85748,5.40122 1.28622,8.10183 -3.59207,3.08791 -7.38832,5.99262 -10.85813,9.19023 -1.46503,2.20038 -2.93035,4.40056 -4.3952,6.60106 0.68533,1.21585 0.89738,3.06815 1.86163,3.90977 1.95129,0.0254 4.03225,0.73577 5.90813,0.36284 1.83222,-0.94134 3.66429,-1.88299 5.49661,-2.82412 -0.71259,-1.19163 -1.27483,-4.00696 0.83777,-2.76477 3.86482,2.47727 7.72989,4.95415 11.59455,7.43167 1.52645,-5.51758 3.69855,-10.88644 4.30223,-16.61677 0.27831,-1.70818 0.55662,-3.41636 0.83492,-5.12454 2.2947,-0.24493 3.82319,1.63471 5.69475,2.52181 2.3467,0.1271 4.68516,0.19633 6.87171,-0.80992 1.54794,-0.35399 3.02906,-0.80861 3.80289,-2.3226 0.60566,-1.19574 2.76424,-2.1136 1.76355,-3.59695 0.30727,-1.59212 1.6666,-3.09297 2.3637,-4.65127 0.92627,-1.02027 1.11068,-3.86346 2.95322,-2.63232 1.11445,0.33019 3.7053,-0.98375 2.51372,-2.35913 -2.90675,-7.61914 -5.81324,-15.23838 -8.72014,-22.85746 -2.10623,-1.15021 -3.9516,-2.95442 -6.21116,-3.72042 -4.29634,-0.6685 -8.50557,-1.68241 -12.5985,-3.15753 -0.69624,-0.18512 -1.38087,-0.50603 -2.08468,-0.62339 z"
     style="opacity:1;fill:#000000;fill-rule:evenodd;stroke:none;stroke-width:0.26458332px;stroke-linecap:butt;stroke-linejoin:miter;stroke-opacity:1" />
  <path
     id="path826-3-2"
     d="m 206.79779,13.943136 -7.08949,0.50799 -2.43034,3.58685 -10.39317,6.46575 -5.42395,6.31228 -10.72803,8.43876 -12.3424,4.89169 c -9.43787,-3.1418 -19.32143,-3.49778 -29.26591,-3.47421 l -2.56471,-2.70474 -6.54275,-2.1885 -10.17767,3.17138 -13.292256,0.83044 -1.6769,0.99943 -12.56099,-3.87418 -1.4087,2.16782 2.34301,0.86713 -0.39533,2.06809 -8.17831,-0.0351 -5.869408,3.01842 -3.044259,-0.7152 -2.697509,-2.52078 -2.246892,0.84853 -9.494511,-0.13177 -11.151257,-11.43393 -3.471623,5.37176 2.903182,4.84054 7.614522,7.28121 6.846611,15.28847 -0.653707,7.10912 -2.420008,0.32298 -0.224275,2.1885 -1.955436,0.73587 0.758093,5.06739 -0.529167,1.05833 1.486214,2.75798 -2.863391,5.62033 1.047482,3.20962 1.024227,2.25102 -3.660759,1.5472 -0.274918,2.13785 -7.782988,2.955894 -2.209684,0.4346 -0.267167,6.01566 2.439644,4.63951 -1.684135,1.05317 2.224154,4.0659 -1.020093,0.81235 1.829346,1.17823 3.988903,-1.43144 1.329635,3.40186 -3.744991,0.20515 -5.669421,2.80138 5.204333,10.44433 5.372799,8.56537 16.102893,-4.14239 0.467672,0.73484 3.006535,-2.87321 4.20956,2.07171 -9.153961,19.5771 3.608049,2.00453 0.791165,-1.67277 0.01085,0.0693 3.741888,-0.40101 c 1.677773,1.46353 3.024687,3.32048 4.476731,5.01158 l 1.041797,-1.26762 3.635436,0.19843 4.877739,11.62617 2.87321,4.00906 3.54087,2.13837 -2.8727,4.40955 11.49232,3.27422 11.693396,-0.26717 4.47673,0.8015 -4.34341,-13.89786 -5.6126,-5.61258 7.68379,-9.82214 -2.6727,-2.53886 3.54139,-4.27674 2.20503,2.07171 8.08478,-9.62164 -5.87975,-3.20755 -5.07824,-0.73484 0.13384,-1.26969 7.88427,1.20302 6.74895,-13.36352 0.53433,-15.63522 4.81056,-13.497384 -6.54327,-5.04517 v 0 l 21.84466,-29.43231 5.73195,-5.4653 5.117,-7.49411 12.52689,-6.89054 5.42809,2.07377 5.35626,-1.54719 12.6907,4.70152 1.38182,8.70387 -10.84068,9.05009 -4.38577,6.58668 1.37045,3.32951 5.32578,0.53433 5.32835,-2.73781 -0.87695,-2.63602 1.71825,-0.90537 11.93157,7.6476 3.27628,-10.91613 1.72496,-10.58696 2.7404,0.32763 3.40445,2.25103 3.92482,0.0682 5.15111,-1.58285 3.1166,-3.76152 -0.43511,-1.23972 4.46484,-7.96954 2.16318,0.63872 1.66243,-1.06608 -8.94106,-23.43682 -5.35626,-3.45353 -7.10086,-1.33686 z"
     style="opacity:1;fill:#b3b3b3;fill-rule:evenodd;stroke:none;stroke-width:0.26458332px;stroke-linecap:butt;stroke-linejoin:miter;stroke-opacity:1" />
  <path
     id="path1052"
     d="m 98.503764,71.881456 c -0.37551,8.60326 -5.38804,16.51777 -12.59332,21.11042 -8.86855,7.460134 -18.849152,13.825404 -26.523502,22.558404 -5.608845,7.19568 -11.217691,14.39137 -16.826536,21.58705 1.925013,2.35112 2.857994,7.47904 6.613484,4.70647 4.055968,-0.66477 9.160656,0.53159 12.325969,-2.97405 2.56108,-1.36247 4.438257,-4.17579 7.228516,-0.60547 2.665573,-6.48019 9.954598,-8.84294 13.508189,-14.64875 2.74688,-2.46987 1.72971,-6.44317 3.1332,-9.63017 0.12154,-4.72282 4.10949,-7.55247 7.92449,-9.49663 4.70698,-1.65469 5.4551,-6.988454 7.988816,-10.654144 3.17922,-1.58668 6.82547,-3.17096 7.39066,-7.12305 0.93856,-3.45491 -0.16682,-7.35271 -2.54102,-10.01172 -0.9311,-1.70638 -1.01496,-3.6988 -1.65626,-5.50586 -1.49652,0.5024 -5.961296,-1.27561 -5.972686,0.6875 z"
     style="opacity:0.63999999;fill:#ececec;fill-opacity:1;fill-rule:evenodd;stroke:none;stroke-width:0.26458332px;stroke-linecap:butt;stroke-linejoin:miter;stroke-opacity:1" />
  <path
     id="path1050"
     d="m 70.044781,139.03381 c -2.98112,6.37566 -5.96224,12.75131 -8.943359,19.12696 3.235634,3.88159 2.684121,-1.34791 6.720703,0.26757 2.004599,0.60184 4.579461,6.66411 5.810547,3.41797 3.079679,-1.23332 5.038431,2.22792 5.977942,4.93327 2.67058,4.12951 3.41563,10.06323 8.42943,12.05572 4.7829,0.85783 -3.74191,5.31053 0.45308,5.82454 4.861,1.44301 9.59553,3.9222 14.781876,2.69996 3.27746,-0.21794 6.57234,-0.76669 9.7835,0.23651 -1.73538,-4.47932 -2.33868,-9.64371 -4.79328,-13.68781 -1.44444,-2.36083 -7.1374,-4.49394 -3.48216,-7.12832 2.6668,-2.50288 4.3592,-4.96834 0.43077,-7.21784 -2.30945,-2.33023 -5.935996,1.79877 -8.816946,2.27134 -2.67387,0.4923 -6.8128,5.00425 -7.66782,0.50323 -2.89272,-5.09266 -4.52304,-10.77488 -6.28975,-16.29333 0.52013,-3.44429 3.11025,-5.27502 -1.681,-6.53706 -2.741,-0.99318 -5.962392,-3.92719 -8.419745,-3.77445 -0.764596,1.10058 -1.529192,2.20116 -2.293788,3.30174 z"
     style="opacity:0.63500007;fill:#ececec;fill-opacity:1;fill-rule:evenodd;stroke:none;stroke-width:0.26458332px;stroke-linecap:butt;stroke-linejoin:miter;stroke-opacity:1" />
  <path
     id="path1022"
     d="m 80.492044,127.59045 c -2.371581,2.28352 -5.07346,4.25919 -7.152341,6.84571 4.130437,1.94091 8.259171,3.88547 12.390621,5.82422 0.142,2.917 -3.59225,4.15908 -1.71644,7.34315 1.70793,5.40261 3.6012,10.72843 6.36879,15.692 6.21536,-3.33184 13.720356,-4.93211 18.791056,-10.04687 2.57661,-3.70117 2.9491,-8.32453 2.05274,-12.67383 -1.29138,-1.62877 -5.02486,-2.63933 -6.11275,-5.69568 -1.06512,-2.48605 -2.65041,-2.79173 -4.46064,-4.55863 -2.864366,-4.15045 -6.882296,-7.22939 -11.608156,-8.91225 -3.45205,-3.02601 -5.3144,-1.0587 -6.6186,2.66173 -0.64476,1.17348 -1.28952,2.34697 -1.93428,3.52045 z"
     style="opacity:1;fill:#d7d7d7;fill-opacity:1;fill-rule:evenodd;stroke:none;stroke-width:0.26458332px;stroke-linecap:butt;stroke-linejoin:miter;stroke-opacity:1" />
  <path
     id="path1054"
     d="m 47.869,89.164656 c 0.834468,2.26002 4.290221,5.59829 0.312481,6.51701 -5.052376,0.93809 4.280911,5.340154 -1.580135,5.045894 -3.439428,0.66458 -6.878856,1.32917 -10.318284,1.99375 -0.97282,3.34545 -0.3583,6.30462 2.100508,8.815 -1.419989,1.42182 -1.134095,4.04047 0.241289,6.67133 2.076572,1.23879 5.815374,-2.3019 6.273485,2.61217 0.963894,2.52481 -5.564606,0.52899 -7.323587,2.77053 -3.515521,1.0019 1.618955,5.29751 1.920404,7.75283 1.079411,3.97104 2.726967,4.07867 4.554568,0.42021 5.830562,-7.10363 10.980281,-14.82567 17.217746,-21.55971 4.112105,-2.06783 2.441223,-4.50548 -0.272027,-7.00979 -2.531812,-2.3187 -3.984502,-4.506954 0.07668,-6.040944 -3.040352,1.53836 -5.648994,1.96401 -7.023067,-2.2033 -1.883585,-1.70185 -3.554111,-7.60208 -5.579448,-6.51068 l -0.33739,0.40766 z"
     style="opacity:0.63500007;fill:#ececec;fill-opacity:1;fill-rule:evenodd;stroke:none;stroke-width:0.26458332px;stroke-linecap:butt;stroke-linejoin:miter;stroke-opacity:1" />
  <path
     id="path1056"
     d="m 200.00234,14.960136 c -1.24609,1.72316 -2.11983,3.83297 -4.24206,4.64503 -2.92427,1.94041 -6.12067,3.56342 -8.87155,5.70609 -2.60591,2.93157 -4.87478,6.21509 -8.22013,8.37445 -2.77788,2.02694 -5.30793,4.48483 -8.23291,6.25599 -3.9559,1.64582 -8.07605,3.04508 -11.92975,4.8443 -4.6906,4.81063 -9.38119,9.62126 -14.07179,14.43189 1.09193,1.35909 2.18385,2.71818 3.27577,4.07727 3.13319,-3.41928 6.0275,-7.02279 8.49639,-10.9544 0.78664,-1.44871 1.81397,-2.63256 3.40722,-3.19311 3.62907,-1.99626 7.25825,-3.99234 10.88725,-5.98872 1.91802,0.61149 3.81607,1.69548 5.74585,2.02463 1.83316,-0.3363 3.69462,-1.44759 5.51089,-1.32035 4.24415,1.57239 8.48838,3.14457 12.73249,4.71709 0.49261,3.10212 0.98522,6.20423 1.47743,9.30641 -3.70023,3.155 -7.5532,6.17307 -11.15888,9.41295 -1.3469,2.02293 -2.6938,4.04586 -4.04071,6.06879 0.60851,1.50594 0.90479,3.43109 2.98539,2.96053 1.61883,0.16597 3.29326,0.62527 4.65897,-0.54419 1.05355,-0.89618 4.01247,-1.0148 2.72081,-2.86803 -1.27404,-1.51668 1.04787,-2.39827 2.15304,-2.49178 3.79253,2.43081 7.58499,4.86171 11.37749,7.29256 1.50448,-5.18871 3.40237,-10.28673 3.95804,-15.69415 0.30265,-1.85672 0.60495,-3.7135 0.90782,-5.57019 1.87821,0.18615 3.81517,0.21343 5.23883,1.63917 1.45487,1.45535 3.59596,1.01481 5.44962,0.98477 2.01127,-0.86067 4.69689,-0.71095 5.84823,-2.86007 1.71077,-1.15601 1.17857,-2.58353 1.73287,-4.06646 1.42755,-2.54876 2.85618,-5.09691 4.28307,-7.64603 1.14161,0.66481 4.14005,1.04495 3.05564,-1.00226 -2.78277,-7.29456 -5.56556,-14.58912 -8.34834,-21.88368 -2.44935,-1.34548 -4.52175,-3.63641 -7.46439,-3.74468 -4.34165,-0.55868 -8.43754,-2.0918 -12.59123,-3.39596 -2.24379,0.16071 -4.48758,0.32143 -6.73137,0.48214 z"
     style="opacity:0.63500007;fill:#ececec;fill-rule:evenodd;stroke:none;stroke-width:0.26458332px;stroke-linecap:butt;stroke-linejoin:miter;stroke-opacity:1" />
  <path
     id="path1058"
     d="m 101.93541,94.682236 c -2.332206,3.89318 -3.367286,8.892464 -7.836506,10.961444 -2.68379,2.60142 -7.56088,3.74116 -7.585,8.11504 -1.8782,3.68627 -0.79293,5.80142 3.32841,6.30696 4.90828,3.43226 9.49069,7.41532 14.350916,10.95837 1.77114,-1.38377 2.84932,-7.24001 5.34416,-3.95715 2.66504,1.2542 4.6937,5.59104 7.94077,4.02587 3.08522,-0.97378 6.02398,-1.8701 7.77932,-0.3257 1.67755,-1.9026 0.40712,-6.28609 0.96231,-9.13322 0.28976,-5.15533 -0.43845,-10.50183 2.11138,-15.23105 0.29982,-2.78774 3.76485,-6.601044 2.02482,-8.727874 -2.73904,-1.48154 -5.46115,-4.54753 -8.21071,-5.04432 -2.62612,1.56518 -5.15839,3.68543 -7.83873,4.93054 -3.62715,0.0172 -4.34459,-5.65007 -7.75635,-5.42413 -1.53826,0.84841 -3.07652,1.69682 -4.61479,2.54522 z"
     style="opacity:0.63500007;fill:#ececec;fill-opacity:1;fill-rule:evenodd;stroke:none;stroke-width:0.26458332px;stroke-linecap:butt;stroke-linejoin:miter;stroke-opacity:1" />
  <path
     style="opacity:1;fill:#000000;fill-opacity:1;fill-rule:evenodd;stroke:none;stroke-width:0.26458332px;stroke-linecap:butt;stroke-linejoin:miter;stroke-opacity:1;filter:url(#filter859)"
     d="m 110.14444,39.416616 c -1.82771,2.54632 -5.85054,0.63071 -8.59257,1.31721 -4.185186,-0.80164 -5.962526,0.60572 -4.651176,4.84671 0.54543,8.12961 1.09085,16.25921 1.63627,24.38881 2.937956,0.49839 7.477236,-1.33759 7.818636,2.94337 0.74312,3.87609 2.79056,5.59872 6.69391,4.25715 3.73783,-0.57888 8.12588,0.39099 10.64664,-3.08685 11.18928,-9.54801 22.38803,-19.08534 33.11039,-29.16054 -9.08711,-2.78667 -18.79009,-2.7402 -28.0664,-2.82813 -2.13583,-2.98652 -5.93395,-4.36412 -9.27391,-5.09751 -3.10726,0.80659 -6.21453,1.61318 -9.32179,2.41978 z"
     id="path837" />
  <path
     id="path1060"
     d="m 110.14444,39.416616 c -1.82771,2.54632 -5.85054,0.63071 -8.59257,1.31721 -4.185186,-0.80164 -5.962526,0.60572 -4.651176,4.84671 0.54543,8.12961 1.09085,16.25921 1.63627,24.38881 2.937956,0.49839 7.477236,-1.33759 7.818636,2.94337 0.74312,3.87609 2.79056,5.59872 6.69391,4.25715 3.73783,-0.57888 8.12588,0.39099 10.64664,-3.08685 11.18928,-9.54801 22.38803,-19.08534 33.11039,-29.16054 -9.08711,-2.78667 -18.79009,-2.7402 -28.0664,-2.82813 -2.13583,-2.98652 -5.93395,-4.36412 -9.27391,-5.09751 -3.10726,0.80659 -6.21453,1.61318 -9.32179,2.41978 z"
     style="opacity:1;fill:#abc837;fill-opacity:1;fill-rule:evenodd;stroke:none;stroke-width:0.26458332px;stroke-linecap:butt;stroke-linejoin:miter;stroke-opacity:1" />
  <path
     id="path1062"
     d="m 81.542824,39.428336 c 3.79745,1.98631 0.40665,5.70491 -2.957758,3.89298 -3.80246,-1.28605 -6.613829,1.56745 -9.694582,3.29452 -2.848633,0.21684 -4.537667,-2.20179 -6.21875,-3.53321 -3.395479,1.88107 -7.233095,-0.0264 -10.787109,0.91992 0.01408,2.78954 3.184076,5.32136 -1.152344,4.39454 -1.39455,0.28473 -4.788082,0.66187 -2.864475,2.61035 1.961797,4.46712 4.680448,8.73991 6.215409,13.31667 0.04715,2.65792 0.511229,6.01385 -1.077497,8.17844 -2.420831,0.83288 -3.930553,3.48227 -3.424752,6.52434 0.570398,3.06592 1.055126,5.6199 1.938446,7.95121 4.707707,6.50565 9.414366,13.030984 14.673806,19.108454 9.325802,-7.528944 20.251516,-13.729594 27.217786,-23.737174 2.75235,-4.76532 2.66719,-10.60845 2.958,-15.96206 -0.10727,-2.55053 -1.71496,-4.45234 -1.20721,-7.13544 -0.26752,-5.56358 -0.53504,-11.12715 -0.80256,-16.69073 -4.09375,-1.48438 -8.1875,-2.96875 -12.28125,-4.45313 -0.17838,0.44011 -0.35677,0.88021 -0.53516,1.32032 z"
     style="opacity:0.63500007;fill:#ececec;fill-opacity:1;fill-rule:evenodd;stroke:none;stroke-width:0.26458332px;stroke-linecap:butt;stroke-linejoin:miter;stroke-opacity:1" />
  <path
     id="path848"
     d="m 243.99542,190.58303 1.69333,-5.36066 -1.46634,-5.42714 5.36066,1.69333 5.42714,-1.46634 -1.69333,5.36066 1.46634,5.42714 -5.36066,-1.69333 z"
     style="opacity:1;fill:#808080;fill-opacity:1;stroke:none;stroke-width:0.29199997;stroke-miterlimit:4;stroke-dasharray:none;stroke-dashoffset:0;stroke-opacity:1" />
  <path
     id="path846"
     d="m 249.65198,195.25412 -2.96307,-6.78553 -6.84491,-2.85451 6.78553,-2.96307 2.85452,-6.84491 2.96307,6.78553 6.8449,2.85451 -6.78553,2.96308 z"
     style="opacity:1;fill:#000000;fill-opacity:1;stroke:none;stroke-width:0.292;stroke-miterlimit:4;stroke-dasharray:none;stroke-dashoffset:0;stroke-opacity:1" />
  <g
     transform="translate(0,-93.800004)"
     id="text852"
     style="font-style:normal;font-variant:normal;font-weight:normal;font-stretch:normal;font-size:6.10405827px;line-height:125%;font-family:Ubuntu;-inkscape-font-specification:Ubuntu;letter-spacing:0px;word-spacing:0px;fill:#000000;fill-opacity:1;stroke:none;stroke-width:0.26458332px;stroke-linecap:butt;stroke-linejoin:miter;stroke-opacity:1"
     aria-label="N">
    <path
       id="path860"
       style="font-style:normal;font-variant:normal;font-weight:normal;font-stretch:normal;font-family:Ubuntu;-inkscape-font-specification:Ubuntu;stroke-width:0.26458332px"
       d="m 250.82133,267.78247 q -0.13429,-0.22585 -0.3113,-0.50664 -0.17092,-0.28078 -0.37235,-0.57988 -0.20143,-0.3052 -0.42118,-0.61651 -0.21364,-0.31131 -0.42728,-0.5982 -0.21365,-0.29299 -0.41508,-0.54936 -0.20143,-0.25637 -0.37235,-0.4517 v 3.30229 h -0.57988 v -4.23011 h 0.47001 q 0.28689,0.3052 0.6104,0.71417 0.32962,0.40287 0.64703,0.83626 0.32352,0.42728 0.60431,0.84236 0.28689,0.41508 0.48222,0.73859 v -3.13138 h 0.57988 v 4.23011 z" />
  </g>
  <path
     id="text859"
     d="m 125.37895,46.264904 c 0.47714,1.912003 -3.26395,-2.318511 -3.59814,0.78056 -1.49229,0.14362 -4.10153,-0.341018 -3.54274,1.190985 -1.75827,-2.418788 -5.10196,-0.35294 -7.32971,-1.105376 0.0512,3.788109 -0.15543,3.03288 -0.0856,1.69e-4 -1.94435,0.281347 -2.69722,0.177602 -3.97331,-1.085399 -3.00332,-1.631506 -6.36984,1.878413 -4.69345,4.826888 0.73541,1.778233 3.08291,1.39818 4.0539,2.666499 4.71755,0.723146 0.36757,-0.808117 1.94384,-2.548155 0.19706,1.351657 2.5694,1.951004 4.11918,1.485584 1.59281,-0.360028 1.21229,-0.369211 2.94364,0.100724 2.04495,-0.757386 6.74193,1.511422 5.73335,-2.147466 0.35073,-2.572897 1.13684,0.745381 1.65428,1.596038 1.58731,0.989744 3.65809,0.168532 5.41106,0.45071 -0.47747,-2.208605 1.32158,0.779451 2.5557,0.103238 1.8053,-0.807613 4.05934,0.831535 4.87473,-0.785429 -0.36071,-1.364503 -0.0514,-3.374338 1.68954,-1.87855 0.48931,-2.141763 -0.31543,-3.327434 -2.3719,-2.784841 -2.33963,-1.386505 -1.43008,2.105852 -2.54311,0.468337 -1.24334,-0.944054 -3.31545,-0.718977 -4.20496,0.609341 0.97579,-2.61771 -1.6191,-3.877441 -2.63628,-1.943848 z m -20.02517,1.820469 c 2.00732,2.478664 -2.31894,2.527746 -0.31475,0 l 0.16115,-0.01511 z m 19.92949,1.3194 c 0.88304,1.906714 -2.17382,-0.0027 0,0 z m -30.421744,5.413569 c -4.202425,-0.09521 -4.202967,6.942597 0,6.843759 1.606543,-0.05103 2.706824,-0.761831 4.184823,0.01263 2.048591,-0.761239 6.749621,1.51066 5.743411,-2.149984 0.24285,-2.63288 1.58462,0.875948 0.95178,2.046581 3.76676,2.572435 2.44553,-5.906362 2.72189,-1.148348 -0.45503,2.586967 2.78304,0.615624 2.98377,0.539174 1.37302,1.553232 4.17015,0.2572 4.71861,-0.551428 0.55959,1.655161 4.71756,1.957417 3.71144,-0.430568 -2.85339,-0.772244 2.53038,-3.004962 -1.20105,-3.751729 -0.0975,-2.944624 -3.61626,0.648328 -3.53771,0.312225 -1.40412,-1.138666 -3.67672,0.183543 -4.2805,0.682362 -1.87409,-2.211844 -5.42725,-0.619702 -8.02215,-0.994587 -1.38952,0.0012 -0.14686,1.92174 -1.40753,0.347475 -1.498315,-1.21559 -4.114677,0.716673 -4.303156,-1.316881 -0.694858,-0.356066 -1.487139,-0.499902 -2.263628,-0.44064 z m 35.286404,0 c -4.22965,-0.163413 -4.31335,6.908291 -0.0882,6.841241 1.86476,-0.005 3.15964,-0.870031 4.83947,0.01511 2.04857,-0.761099 6.74938,1.510609 5.74342,-2.149984 0.22512,-2.22006 0.78006,0.07244 1.08271,0.961518 1.58912,2.234963 6.19106,1.228342 5.20458,-1.64925 0.16057,-2.34815 -2.89106,-3.501581 -4.6053,-2.152838 -0.65061,-1.171584 -3.00554,-0.0407 -4.31827,-0.455748 0.54117,2.596474 -1.0539,-0.891569 -2.55319,-0.09568 -2.46855,-0.107698 -2.2533,2.083352 -2.77225,-0.886314 -0.79194,-0.349685 -1.67141,-0.484466 -2.53304,-0.42805 z m -6.92685,0.5615 c -1.153,2.309761 -3.2189,9.76944 0.42526,5.736935 0.19495,-2.049198 4.02551,-8.32996 -0.42526,-5.736935 z m 7.79302,1.807881 c 0.97266,0.238105 -2.1701,-0.04203 0,0 z m -35.394675,-0.0026 c 3.620624,0.18632 -0.379407,3.613015 -1.165797,1.344578 -0.173407,-0.761974 0.289061,-1.590998 1.165797,-1.344578 z m 34.198655,0.757899 c 0.0465,2.833661 -0.26034,-1.403397 0,0 z m -16.2684,0.470855 c 0.63318,1.679746 -0.87776,0.914299 0,0 z"
     style="font-style:normal;font-variant:normal;font-weight:normal;font-stretch:normal;font-size:5.64444447px;line-height:125%;font-family:Tofino;-inkscape-font-specification:Tofino;text-align:center;letter-spacing:0px;word-spacing:0px;text-anchor:middle;fill:#ffffff;fill-opacity:1;stroke:none;stroke-width:0.26458332px;stroke-linecap:butt;stroke-linejoin:miter;stroke-opacity:1" />
  <g
     id="text920"
     style="font-style:normal;font-variant:normal;font-weight:normal;font-stretch:normal;font-size:7.27673197px;line-height:125%;font-family:Tofino;-inkscape-font-specification:Tofino;text-align:center;letter-spacing:0px;word-spacing:0px;text-anchor:middle;fill:#000000;fill-opacity:1;stroke:none;stroke-width:0.26458332px;stroke-linecap:butt;stroke-linejoin:miter;stroke-opacity:1"
     aria-label="QuartierCarnot / Gare">
    <path
       id="path833"
       style="font-weight:bold;text-align:center;text-anchor:middle;stroke-width:0.26458332px"
       d="m 105.34374,51.889246 h -0.10659 q -1.31109,0 -2.03948,-0.724831 -0.72838,-0.724831 -0.72838,-2.018156 0,-1.289773 0.72483,-2.02171 0.72838,-0.731936 2.00394,-0.731936 1.28978,0 2.0075,0.72483 0.72128,0.724831 0.72128,2.028816 0,0.895379 -0.38374,1.542042 -0.38018,0.646662 -1.0979,0.973547 l 1.06948,1.193839 h -1.30398 z m -0.14568,-4.505321 q -0.62534,0 -0.96999,0.461902 -0.34465,0.461902 -0.34465,1.300432 0,0.852742 0.33754,1.307537 0.33755,0.451243 0.9771,0.451243 0.6289,0 0.97355,-0.461902 0.34465,-0.461902 0.34465,-1.296878 0,-0.83853 -0.34465,-1.300432 -0.34465,-0.461902 -0.97355,-0.461902 z" />
    <path
       id="path835"
       style="font-weight:bold;text-align:center;text-anchor:middle;stroke-width:0.26458332px"
       d="m 108.8613,50.244164 v -2.430315 h 1.27911 v 0.397947 q 0,0.323331 -0.004,0.813658 -0.004,0.486773 -0.004,0.650215 0,0.479668 0.0249,0.692853 0.0249,0.209633 0.0853,0.305566 0.0782,0.124358 0.20253,0.191867 0.12791,0.06751 0.29135,0.06751 0.39795,0 0.62535,-0.305566 0.2274,-0.305566 0.2274,-0.849189 v -1.96486 h 1.272 v 3.979463 h -1.272 v -0.575601 q -0.2878,0.348203 -0.61114,0.515199 -0.31977,0.163442 -0.70706,0.163442 -0.6893,0 -1.05172,-0.422818 -0.35886,-0.422818 -0.35886,-1.22937 z" />
    <path
       id="path838"
       style="font-weight:bold;text-align:center;text-anchor:middle;stroke-width:0.26458332px"
       d="m 115.868,50.002554 q -0.39795,0 -0.60047,0.135017 -0.19898,0.135018 -0.19898,0.397947 0,0.24161 0.15989,0.38018 0.16344,0.135018 0.45124,0.135018 0.35887,0 0.60403,-0.255823 0.24516,-0.259375 0.24516,-0.646662 v -0.145677 z m 1.94354,-0.479668 v 2.270426 h -1.28267 v -0.589813 q -0.25582,0.362415 -0.5756,0.529411 -0.31978,0.163442 -0.77812,0.163442 -0.61824,0 -1.00553,-0.358863 -0.38373,-0.362415 -0.38373,-0.938016 0,-0.699959 0.47966,-1.026843 0.48322,-0.326885 1.51362,-0.326885 h 0.7497 v -0.09949 q 0,-0.302013 -0.23805,-0.440584 -0.23806,-0.142123 -0.7426,-0.142123 -0.40861,0 -0.76036,0.08172 -0.35176,0.08172 -0.65377,0.245163 v -0.969994 q 0.40861,-0.09949 0.82076,-0.14923 0.41216,-0.0533 0.82432,-0.0533 1.07659,0 1.5527,0.426371 0.47967,0.422818 0.47967,1.378599 z" />
    <path
       id="path840"
       style="font-weight:bold;text-align:center;text-anchor:middle;stroke-width:0.26458332px"
       d="m 121.95089,48.897542 q -0.16699,-0.07817 -0.33399,-0.113699 -0.16344,-0.03908 -0.33044,-0.03908 -0.49032,0 -0.7568,0.316225 -0.26293,0.312673 -0.26293,0.898933 v 1.833395 h -1.27201 v -3.979463 h 1.27201 v 0.653769 q 0.24516,-0.39084 0.56139,-0.568495 0.31977,-0.181207 0.76391,-0.181207 0.064,0 0.13857,0.0071 0.0746,0.0036 0.21674,0.02132 z" />
    <path
       id="path842"
       style="font-weight:bold;text-align:center;text-anchor:middle;stroke-width:0.26458332px"
       d="m 123.9726,46.683966 v 1.129883 h 1.31109 v 0.909592 h -1.31109 v 1.687718 q 0,0.277142 0.11015,0.376628 0.11014,0.09593 0.43703,0.09593 h 0.65377 v 0.909591 h -1.0908 q -0.75326,0 -1.06948,-0.312672 -0.31268,-0.316225 -0.31268,-1.069481 v -1.687718 h -0.63245 v -0.909592 h 0.63245 v -1.129883 z" />
    <path
       id="path844"
       style="font-weight:bold;text-align:center;text-anchor:middle;stroke-width:0.26458332px"
       d="m 126.06182,47.813849 h 1.27201 v 3.979463 h -1.27201 z m 0,-1.549148 h 1.27201 v 1.037503 h -1.27201 z" />
    <path
       id="path847"
       style="font-weight:bold;text-align:center;text-anchor:middle;stroke-width:0.26458332px"
       d="m 132.52845,49.792921 v 0.362416 h -2.97394 q 0.0462,0.447689 0.32333,0.671534 0.27714,0.223845 0.77457,0.223845 0.4015,0 0.82077,-0.117252 0.42282,-0.120805 0.86695,-0.362415 v 0.980653 q -0.45124,0.170548 -0.90248,0.255822 -0.45125,0.08883 -0.90249,0.08883 -1.08014,0 -1.68061,-0.547176 -0.59692,-0.55073 -0.59692,-1.542042 0,-0.973547 0.58626,-1.531383 0.58981,-0.557835 1.62021,-0.557835 0.93802,0 1.4994,0.564941 0.56495,0.564942 0.56495,1.510064 z m -1.30754,-0.422818 q 0,-0.362415 -0.21319,-0.582707 -0.20963,-0.223844 -0.55073,-0.223844 -0.36952,0 -0.60047,0.209632 -0.23095,0.206079 -0.2878,0.596919 z" />
    <path
       id="path849"
       style="font-weight:bold;text-align:center;text-anchor:middle;stroke-width:0.26458332px"
       d="m 136.44751,48.897542 q -0.167,-0.07817 -0.334,-0.113699 -0.16344,-0.03908 -0.33043,-0.03908 -0.49033,0 -0.75681,0.316225 -0.26293,0.312673 -0.26293,0.898933 v 1.833395 h -1.27201 v -3.979463 h 1.27201 v 0.653769 q 0.24516,-0.39084 0.56139,-0.568495 0.31978,-0.181207 0.76391,-0.181207 0.064,0 0.13857,0.0071 0.0746,0.0036 0.21674,0.02132 z" />
    <path
       id="path851"
       style="font-weight:bold;text-align:center;text-anchor:middle;stroke-width:0.26458332px"
       d="m 96.848298,60.597879 q -0.376627,0.19542 -0.785233,0.294907 -0.408606,0.09949 -0.852742,0.09949 -1.325303,0 -2.099877,-0.739043 -0.774574,-0.742596 -0.774574,-2.01105 0,-1.272007 0.774574,-2.01105 0.774574,-0.742596 2.099877,-0.742596 0.444136,0 0.852742,0.09949 0.408606,0.09949 0.785233,0.294906 v 1.097906 q -0.380181,-0.259376 -0.749702,-0.380181 -0.369522,-0.120805 -0.778127,-0.120805 -0.731937,0 -1.151202,0.469008 -0.419265,0.469008 -0.419265,1.293325 0,0.820764 0.419265,1.289773 0.419265,0.469008 1.151202,0.469008 0.408605,0 0.778127,-0.120805 0.369521,-0.120806 0.749702,-0.380181 z" />
    <path
       id="path853"
       style="font-weight:bold;text-align:center;text-anchor:middle;stroke-width:0.26458332px"
       d="m 99.708537,59.098474 q -0.397946,0 -0.600473,0.135018 -0.198973,0.135017 -0.198973,0.397946 0,0.24161 0.159889,0.380181 0.163443,0.135017 0.451243,0.135017 0.358862,0 0.604027,-0.255822 0.24516,-0.259376 0.24516,-0.646663 v -0.145677 z m 1.943543,-0.479667 v 2.270426 h -1.28267 v -0.589814 q -0.25582,0.362416 -0.575599,0.529411 -0.319778,0.163442 -0.778127,0.163442 -0.618238,0 -1.005525,-0.358862 -0.383734,-0.362415 -0.383734,-0.938016 0,-0.699959 0.479668,-1.026844 0.48322,-0.326884 1.513617,-0.326884 h 0.7497 v -0.09949 q 0,-0.302013 -0.23806,-0.440583 -0.238052,-0.142124 -0.742591,-0.142124 -0.408606,0 -0.760362,0.08172 -0.351756,0.08172 -0.653769,0.245164 v -0.969994 q 0.408606,-0.09949 0.820764,-0.14923 0.412159,-0.0533 0.824318,-0.0533 1.07659,0 1.5527,0.426371 0.47967,0.422818 0.47967,1.3786 z" />
    <path
       id="path855"
       style="font-weight:bold;text-align:center;text-anchor:middle;stroke-width:0.26458332px"
       d="m 105.79143,57.993463 q -0.167,-0.07817 -0.33399,-0.113699 -0.16344,-0.03908 -0.33044,-0.03908 -0.49032,0 -0.75681,0.316225 -0.26293,0.312672 -0.26293,0.898932 v 1.833396 h -1.272 V 56.90977 h 1.272 v 0.653769 q 0.24517,-0.39084 0.56139,-0.568495 0.31978,-0.181208 0.76392,-0.181208 0.064,0 0.13857,0.0071 0.0746,0.0036 0.21674,0.02132 z" />
    <path
       id="path857"
       style="font-weight:bold;text-align:center;text-anchor:middle;stroke-width:0.26458332px"
       d="m 110.42466,58.466024 v 2.423209 h -1.27911 v -0.394394 -1.46032 q 0,-0.515199 -0.0249,-0.710619 -0.0213,-0.19542 -0.0782,-0.2878 -0.0746,-0.124358 -0.20253,-0.191867 -0.12791,-0.07106 -0.29135,-0.07106 -0.39795,0 -0.62534,0.309119 -0.2274,0.305566 -0.2274,0.849189 v 1.957754 h -1.27201 V 56.90977 h 1.27201 v 0.582707 q 0.2878,-0.348203 0.61113,-0.511645 0.32333,-0.166996 0.71417,-0.166996 0.6893,0 1.04461,0.422818 0.35886,0.422818 0.35886,1.22937 z" />
    <path
       id="path859"
       style="font-weight:bold;text-align:center;text-anchor:middle;stroke-width:0.26458332px"
       d="m 113.49809,57.723428 q -0.42282,0 -0.64667,0.305566 -0.22029,0.302013 -0.22029,0.87406 0,0.572048 0.22029,0.877614 0.22385,0.302013 0.64667,0.302013 0.41571,0 0.636,-0.302013 0.22029,-0.305566 0.22029,-0.877614 0,-0.572047 -0.22029,-0.87406 -0.22029,-0.305566 -0.636,-0.305566 z m 0,-0.909592 q 1.02684,0 1.60244,0.554283 0.57916,0.554282 0.57916,1.534935 0,0.980654 -0.57916,1.534936 -0.5756,0.554282 -1.60244,0.554282 -1.0304,0 -1.61311,-0.554282 -0.57915,-0.554282 -0.57915,-1.534936 0,-0.980653 0.57915,-1.534935 0.58271,-0.554283 1.61311,-0.554283 z" />
    <path
       id="path861"
       style="font-weight:bold;text-align:center;text-anchor:middle;stroke-width:0.26458332px"
       d="m 117.99275,55.779887 v 1.129883 h 1.31109 v 0.909591 h -1.31109 v 1.687719 q 0,0.277141 0.11014,0.376628 0.11015,0.09593 0.43703,0.09593 h 0.65377 v 0.909592 h -1.0908 q -0.75325,0 -1.06948,-0.312672 -0.31267,-0.316226 -0.31267,-1.069481 v -1.687719 h -0.63245 V 56.90977 h 0.63245 v -1.129883 z" />
    <path
       id="path863"
       style="font-weight:bold;text-align:center;text-anchor:middle;stroke-width:0.26458332px"
       d="m 123.87311,55.584467 h 0.78879 l -1.87248,5.979853 h -0.78523 z" />
    <path
       id="path865"
       style="font-weight:bold;text-align:center;text-anchor:middle;stroke-width:0.26458332px"
       d="m 132.63148,60.494839 q -0.51164,0.248717 -1.06237,0.373075 -0.55073,0.124358 -1.13699,0.124358 -1.3253,0 -2.09988,-0.739043 -0.77457,-0.742596 -0.77457,-2.01105 0,-1.282666 0.78879,-2.018156 0.78878,-0.73549 2.16028,-0.73549 0.52941,0 1.01263,0.09949 0.48677,0.09949 0.91669,0.294906 v 1.097906 q -0.44413,-0.25227 -0.88472,-0.376628 -0.43703,-0.124358 -0.87761,-0.124358 -0.81721,0 -1.26135,0.458349 -0.44058,0.454795 -0.44058,1.303984 0,0.842083 0.42637,1.300432 0.42637,0.458349 1.21161,0.458349 0.21318,0 0.39439,-0.02487 0.18476,-0.02842 0.33044,-0.08527 v -1.030397 h -0.83498 V 57.94372 h 2.13185 z" />
    <path
       id="path867"
       style="font-weight:bold;text-align:center;text-anchor:middle;stroke-width:0.26458332px"
       d="m 135.56279,59.098474 q -0.39795,0 -0.60048,0.135018 -0.19897,0.135017 -0.19897,0.397946 0,0.24161 0.15989,0.380181 0.16344,0.135017 0.45124,0.135017 0.35886,0 0.60403,-0.255822 0.24516,-0.259376 0.24516,-0.646663 v -0.145677 z m 1.94354,-0.479667 v 2.270426 h -1.28267 v -0.589814 q -0.25582,0.362416 -0.5756,0.529411 -0.31978,0.163442 -0.77813,0.163442 -0.61823,0 -1.00552,-0.358862 -0.38374,-0.362415 -0.38374,-0.938016 0,-0.699959 0.47967,-1.026844 0.48322,-0.326884 1.51362,-0.326884 h 0.7497 v -0.09949 q 0,-0.302013 -0.23806,-0.440583 -0.23805,-0.142124 -0.74259,-0.142124 -0.40861,0 -0.76036,0.08172 -0.35176,0.08172 -0.65377,0.245164 v -0.969994 q 0.4086,-0.09949 0.82076,-0.14923 0.41216,-0.0533 0.82432,-0.0533 1.07659,0 1.5527,0.426371 0.47967,0.422818 0.47967,1.3786 z" />
    <path
       id="path869"
       style="font-weight:bold;text-align:center;text-anchor:middle;stroke-width:0.26458332px"
       d="m 141.64568,57.993463 q -0.167,-0.07817 -0.33399,-0.113699 -0.16344,-0.03908 -0.33044,-0.03908 -0.49032,0 -0.75681,0.316225 -0.26293,0.312672 -0.26293,0.898932 v 1.833396 h -1.272 V 56.90977 h 1.272 v 0.653769 q 0.24517,-0.39084 0.56139,-0.568495 0.31978,-0.181208 0.76392,-0.181208 0.064,0 0.13857,0.0071 0.0746,0.0036 0.21674,0.02132 z" />
    <path
       id="path871"
       style="font-weight:bold;text-align:center;text-anchor:middle;stroke-width:0.26458332px"
       d="m 146.25049,58.888842 v 0.362415 h -2.97394 q 0.0462,0.44769 0.32333,0.671535 0.27714,0.223844 0.77457,0.223844 0.4015,0 0.82077,-0.117252 0.42282,-0.120805 0.86695,-0.362415 v 0.980653 q -0.45124,0.170549 -0.90248,0.255823 -0.45124,0.08883 -0.90249,0.08883 -1.08014,0 -1.68061,-0.547176 -0.59692,-0.550729 -0.59692,-1.542042 0,-0.973547 0.58626,-1.531382 0.58981,-0.557836 1.62021,-0.557836 0.93802,0 1.49941,0.564942 0.56494,0.564942 0.56494,1.510064 z m -1.30754,-0.422818 q 0,-0.362415 -0.21319,-0.582707 -0.20963,-0.223845 -0.55073,-0.223845 -0.36952,0 -0.60047,0.209633 -0.23095,0.206079 -0.2878,0.596919 z" />
  </g>
</svg>
