<?xml version="1.0" encoding="UTF-8" standalone="no"?>
<svg
   version="1.1"
   width="150"
   height="150"
   id="twitter"
   xmlns="http://www.w3.org/2000/svg"
   xmlns:svg="http://www.w3.org/2000/svg"
   xmlns:rdf="http://www.w3.org/1999/02/22-rdf-syntax-ns#"
   xmlns:cc="http://creativecommons.org/ns#"
   xmlns:dc="http://purl.org/dc/elements/1.1/">
  <metadata
     id="metadata8">
    <rdf:RDF>
      <cc:Work
         rdf:about="">
        <dc:format>image/svg+xml</dc:format>
        <dc:type
           rdf:resource="http://purl.org/dc/dcmitype/StillImage" />
      </cc:Work>
    </rdf:RDF>
  </metadata>
  <defs
     id="defs6">
    <linearGradient
       gradientTransform="matrix(1.8800526,0,0,1.8800526,17.505055,15.85608)"
       id="paint0_linear_89_8"
       x1="30.5"
       y1="0"
       x2="30.5"
       y2="65"
       gradientUnits="userSpaceOnUse">
      <stop
         stop-color="#6364FF"
         id="stop14" />
      <stop
         offset="1"
         stop-color="#563ACC"
         id="stop16" />
    </linearGradient>
  </defs>
  <path
     d="M 75.793103,69.528848 C 70.512354,59.258906 56.131778,40.119695 42.76119,30.680465 29.952886,21.638193 25.066679,23.204915 21.863436,24.652338 c -3.707659,1.675356 -4.381781,7.367509 -4.381781,10.716497 0,3.348956 1.835994,27.456788 3.033543,31.480925 3.956898,13.296307 18.042903,17.789204 31.01516,16.347291 0.66313,-0.09848 1.335655,-0.189189 2.016604,-0.273416 -0.66799,0.106904 -1.34084,0.198259 -2.016604,0.273416 -19.010699,2.815471 -35.894004,9.743519 -13.750424,34.395329 24.357923,25.2197 33.382268,-5.40774 38.013169,-20.936399 4.6309,15.528659 9.964778,45.051749 37.576867,20.936399 20.73458,-20.936399 5.6967,-31.578886 -13.31412,-34.394681 -0.675766,-0.07515 -1.348616,-0.166188 -2.016606,-0.273092 0.680948,0.0839 1.353474,0.174935 2.016606,0.273092 12.97235,1.442236 27.05813,-3.050985 31.01521,-16.346966 1.19765,-4.024138 3.03349,-28.1321 3.03349,-31.481056 0,-3.348988 -0.67415,-9.041151 -4.38178,-10.716507 -3.20324,-1.447419 -8.08942,-3.014141 -20.89785,6.028137 -13.370493,9.439231 -27.751067,28.577599 -33.031817,38.847541 z"
     id="path7"
     style="stroke-width:1" />
</svg>
