<?xml version="1.0" encoding="UTF-8" standalone="no"?>
<!-- Generator: Adobe Illustrator 24.1.0, SVG Export Plug-In . SVG Version: 6.00 Build 0)  -->

<svg
   xmlns:dc="http://purl.org/dc/elements/1.1/"
   xmlns:cc="http://creativecommons.org/ns#"
   xmlns:rdf="http://www.w3.org/1999/02/22-rdf-syntax-ns#"
   xmlns:svg="http://www.w3.org/2000/svg"
   xmlns="http://www.w3.org/2000/svg"
   xmlns:sodipodi="http://sodipodi.sourceforge.net/DTD/sodipodi-0.dtd"
   xmlns:inkscape="http://www.inkscape.org/namespaces/inkscape"
   version="1.1"
   id="Calque_1"
   x="0px"
   y="0px"
   viewBox="0 0 300 300"
   style="enable-background:new 0 0 300 300;"
   xml:space="preserve"
   sodipodi:docname="favicon.svg"
   inkscape:version="0.92.5 (2060ec1f9f, 2020-04-08)"
   inkscape:export-filename="./favicon-16.png"
   inkscape:export-xdpi="40.959999"
   inkscape:export-ydpi="40.959999"><metadata
   id="metadata17"><rdf:RDF><cc:Work
       rdf:about=""><dc:format>image/svg+xml</dc:format><dc:type
         rdf:resource="http://purl.org/dc/dcmitype/StillImage" /></cc:Work></rdf:RDF></metadata><defs
   id="defs15" /><sodipodi:namedview
   pagecolor="#ffffff"
   bordercolor="#666666"
   borderopacity="1"
   objecttolerance="10"
   gridtolerance="10"
   guidetolerance="10"
   inkscape:pageopacity="0"
   inkscape:pageshadow="2"
   inkscape:window-width="1855"
   inkscape:window-height="1056"
   id="namedview13"
   showgrid="false"
   inkscape:zoom="1.1125147"
   inkscape:cx="6.1011588"
   inkscape:cy="195.71621"
   inkscape:window-x="65"
   inkscape:window-y="24"
   inkscape:window-maximized="1"
   inkscape:current-layer="Calque_1"
   showguides="false"
   inkscape:guide-bbox="true" />
<style
   type="text/css"
   id="style2">
	.st0{fill:#5AB88F;}
	.st1{fill:#E73452;}
</style>

<rect
   style="opacity:1;fill:#81b984;fill-opacity:1;stroke:none;stroke-width:9.69448853;stroke-miterlimit:4;stroke-dasharray:none;stroke-dashoffset:0;stroke-opacity:1"
   id="rect830"
   width="300"
   height="300"
   x="0"
   y="3.2814942e-08" /><rect
   style="opacity:1;fill:#eff1ed;fill-opacity:1;stroke:none;stroke-width:3.09999943;stroke-miterlimit:4;stroke-dasharray:none;stroke-dashoffset:0;stroke-opacity:1"
   id="rect823"
   width="251.21567"
   height="12.820178"
   x="26.179094"
   y="263.96765"
   rx="2.5"
   ry="2.5" /><flowRoot
   xml:space="preserve"
   id="flowRoot848"
   style="fill:black;stroke:none;stroke-opacity:1;stroke-width:1px;stroke-linejoin:miter;stroke-linecap:butt;fill-opacity:1;font-family:'Helvetica Now Display';font-style:normal;font-weight:normal;font-size:42.66666667px;line-height:125%;letter-spacing:0px;word-spacing:0px;-inkscape-font-specification:'Helvetica Now Display';font-stretch:normal;font-variant:normal"><flowRegion
     id="flowRegion850"><rect
       id="rect852"
       width="251.69492"
       height="258.05084"
       x="-298.72882"
       y="-209.74576" /></flowRegion><flowPara
     id="flowPara854" /></flowRoot><flowRoot
   xml:space="preserve"
   id="flowRoot856"
   style="fill:black;stroke:none;stroke-opacity:1;stroke-width:1px;stroke-linejoin:miter;stroke-linecap:butt;fill-opacity:1;font-family:'Helvetica Now Display';font-style:normal;font-weight:normal;font-size:42.66666667px;line-height:125%;letter-spacing:0px;word-spacing:0px;-inkscape-font-specification:'Helvetica Now Display';font-stretch:normal;font-variant:normal"><flowRegion
     id="flowRegion858"><rect
       id="rect860"
       width="1188.5593"
       height="122.0339"
       x="-582.20337"
       y="-291.10168" /></flowRegion><flowPara
     id="flowPara862" /></flowRoot><path
   inkscape:connector-curvature="0"
   id="path852"
   style="font-style:normal;font-variant:normal;font-weight:bold;font-stretch:normal;font-size:136.45042419px;line-height:125%;font-family:'Dancing Script';-inkscape-font-specification:'Dancing Script';letter-spacing:0px;word-spacing:0px;fill:#eff1ed;fill-opacity:1;stroke:none;stroke-width:0.99999988px;stroke-linecap:butt;stroke-linejoin:miter;stroke-opacity:1"
   d="m 97.398777,255.52146 q 2.046756,-6.82253 4.639313,-14.8731 2.59256,-8.18703 6.00382,-19.10306 3.41126,-11.05248 7.91412,-26.19848 4.50287,-15.146 10.37024,-35.75001 0.13645,-0.40935 0.5458,-2.04676 0.40935,-1.6374 0.40935,-3.27481 0,-1.0916 -0.40935,-1.50095 -0.2729,-0.40936 -1.36451,-0.40936 -2.86545,0 -5.59446,2.31966 -2.59256,2.31966 -4.77577,5.86737 -2.04675,3.41126 -3.27481,7.23187 -1.0916,3.68416 -1.0916,6.68607 0,3.27481 1.3645,6.41317 -6.00382,0 -8.45992,-2.4561 -2.45611,-2.59256 -2.45611,-6.41317 0,-4.63932 2.86546,-9.27863 2.86546,-4.77577 7.23187,-8.59638 4.50286,-3.95706 9.27863,-6.27672 4.91221,-2.45611 8.86928,-2.45611 4.77576,0 7.77767,3.54771 3.13836,3.41126 5.04867,9.41508 2.04675,6.00382 3.41126,13.64505 1.3645,7.64122 2.59256,16.10115 1.6374,10.91603 2.59255,17.46565 0.95516,6.41317 1.50096,10.23378 0.68225,3.82061 1.0916,6.41317 0.5458,2.59256 1.0916,5.86737 1.63741,-6.54962 3.27481,-13.78149 1.77386,-7.36833 3.54772,-14.8731 1.77385,-7.50477 3.41126,-14.60019 1.77385,-7.23188 3.54771,-13.5086 1.77385,-6.27672 3.41126,-11.05248 1.77385,-4.91222 3.41126,-7.77767 1.22805,-2.18321 3.82061,-4.63932 2.72901,-2.59256 7.23187,-2.59256 -2.31965,6.14027 -5.32156,15.28245 -2.86546,9.00573 -5.86737,19.64886 -3.00191,10.50668 -5.86737,21.55917 -2.72901,10.91603 -4.91222,21.28626 -2.1832,10.23379 -3.54771,18.69371 -1.22805,8.45993 -1.22805,13.7815 -5.04867,0 -8.32348,-2.45611 -3.13836,-2.31966 -4.77576,-9.27863 -0.5458,-2.31966 -1.63741,-7.77768 -1.0916,-5.45801 -2.4561,-12.82634 -1.36451,-7.50477 -2.86546,-15.69179 -1.50096,-8.18703 -2.86546,-15.9647 -1.36451,-7.91413 -2.45611,-14.0544 -1.0916,-6.27672 -1.77385,-9.55153 -6.14027,22.37787 -10.50669,37.93322 -4.36641,15.4189 -7.64122,25.24333 -3.27481,9.68798 -5.86737,15.00955 -2.59256,5.32156 -5.18512,7.36832 -2.59255,2.04676 -5.730913,2.04676 z" /><path
   inkscape:connector-curvature="0"
   id="path854"
   style="font-style:normal;font-variant:normal;font-weight:bold;font-stretch:normal;font-size:136.45042419px;line-height:125%;font-family:'Dancing Script';-inkscape-font-specification:'Dancing Script';letter-spacing:0px;word-spacing:0px;fill:#eff1ed;fill-opacity:1;stroke:none;stroke-width:0.99999988px;stroke-linecap:butt;stroke-linejoin:miter;stroke-opacity:1"
   d="m 207.37779,255.52146 q -7.23187,-0.54581 -9.55153,-3.54772 -2.1832,-3.0019 -2.1832,-7.50477 0,-5.04866 1.77385,-12.14409 1.77386,-7.09542 4.63932,-15.14599 2.86546,-8.05058 6.27672,-15.9647 -1.50096,0.13645 -4.77577,0.40935 -3.13836,0.2729 -6.54962,0.68225 -3.27481,0.2729 -5.32157,0.68225 0.40936,-4.22996 3.13836,-6.54962 2.86546,-2.45611 7.23188,-3.54771 4.50286,-1.0916 9.68798,-1.22805 3.54771,-9.82443 7.23187,-19.10306 3.82061,-9.41508 7.64122,-17.19276 -0.8187,-0.13645 -1.9103,-0.13645 -1.09161,-0.13645 -3.00191,-0.13645 -8.32348,0 -12.96279,1.77386 -4.50287,1.77385 -6.27672,5.04866 -1.63741,3.27481 -1.63741,8.05058 0,3.41126 0.68225,6.27672 0.68226,2.72901 2.04676,6.00382 -6.41317,-1.09161 -9.14218,-4.09352 -2.72901,-3.13835 -2.72901,-7.77767 0,-7.09542 5.18512,-12.55344 5.32157,-5.45802 14.19084,-8.59637 9.00573,-3.13836 20.19467,-3.13836 7.23187,0 14.46374,0.95515 7.23187,0.95515 13.50859,0.95515 3.41126,0 6.54962,-0.40935 3.13836,-0.5458 7.23188,-1.63741 -6.54962,7.23188 -10.77959,9.68798 -4.09351,2.45611 -8.05057,2.45611 -3.27481,0 -8.45993,-0.8187 -5.18511,-0.95515 -11.18893,-1.3645 -1.77386,4.36641 -3.82061,10.09733 -2.04676,5.73092 -4.22997,12.28054 -2.04675,6.54962 -4.22996,13.50859 7.09542,0.5458 12.82634,1.22805 5.73092,0.68225 12.68989,0.95515 -1.63741,2.18321 -3.41126,3.54772 -1.63741,1.22805 -4.50287,1.77385 -2.729,0.5458 -7.64122,0.8187 -4.77576,0.2729 -12.55344,0.40935 -1.0916,4.09352 -2.31966,8.32348 -1.22805,4.22996 -2.1832,7.23187 -0.81871,3.00191 -1.09161,3.68416 -3.82061,13.09925 -5.32156,21.42272 -1.36451,8.18703 -1.36451,14.3273 z" /></svg>