<?xml version="1.0" encoding="UTF-8" standalone="no"?>
<!-- Created with Inkscape (http://www.inkscape.org/) -->

<svg
   xmlns:dc="http://purl.org/dc/elements/1.1/"
   xmlns:cc="http://creativecommons.org/ns#"
   xmlns:rdf="http://www.w3.org/1999/02/22-rdf-syntax-ns#"
   xmlns:svg="http://www.w3.org/2000/svg"
   xmlns="http://www.w3.org/2000/svg"
   xmlns:sodipodi="http://sodipodi.sourceforge.net/DTD/sodipodi-0.dtd"
   xmlns:inkscape="http://www.inkscape.org/namespaces/inkscape"
   width="800mm"
   height="600mm"
   viewBox="0 0 800 600"
   version="1.1"
   id="svg8"
   inkscape:version="0.92.5 (2060ec1f9f, 2020-04-08)"
   sodipodi:docname="signature.svg"
   inkscape:export-filename="./signature.png"
   inkscape:export-xdpi="12.7"
   inkscape:export-ydpi="12.7">
  <defs
     id="defs2" />
  <sodipodi:namedview
     id="base"
     pagecolor="#ffffff"
     bordercolor="#666666"
     borderopacity="1.0"
     inkscape:pageopacity="0.0"
     inkscape:pageshadow="2"
     inkscape:zoom="0.12374369"
     inkscape:cx="4117.6304"
     inkscape:cy="-402.69398"
     inkscape:document-units="mm"
     inkscape:current-layer="g881"
     showgrid="false"
     fit-margin-top="0"
     fit-margin-left="0"
     fit-margin-right="0"
     fit-margin-bottom="0"
     inkscape:window-width="1855"
     inkscape:window-height="1056"
     inkscape:window-x="65"
     inkscape:window-y="24"
     inkscape:window-maximized="1" />
  <metadata
     id="metadata5">
    <rdf:RDF>
      <cc:Work
         rdf:about="">
        <dc:format>image/svg+xml</dc:format>
        <dc:type
           rdf:resource="http://purl.org/dc/dcmitype/StillImage" />
        <dc:title></dc:title>
      </cc:Work>
    </rdf:RDF>
  </metadata>
  <g
     inkscape:label="Layer 1"
     inkscape:groupmode="layer"
     id="layer1"
     transform="translate(89.51455,300.63747)">
    <g
       id="g852"
       transform="translate(-164.79762,127.75595)">
      <g
         id="g881"
         transform="translate(-513.29167,148.16667)">
        <path
           style="fill:#000000;stroke-width:1"
           d="m 628.83044,-231.62466 c 0.75694,23.25004 3.64741,48.22606 17.73152,68.41231 9.85377,14.73547 20.23795,30.89697 34.70335,43.37647 18.46737,15.46197 40.99466,29.363813 64.31041,37.707565 19.11668,7.911854 36.88472,14.006818 55.34768,10.7947 10.84494,2.91446 21.8588,-5.49794 29.56141,-4.452797 3.89298,-6.801126 13.61741,0.963831 13.81745,-6.449984 18.88426,-7.500977 29.02152,-34.045654 36.0977,-53.337674 8.36263,-18.0983 5.76393,-41.90053 6.3248,-61.71306 -0.13912,-13.39559 -17.18885,-39.51384 -5.03102,-46.54451 17.9074,-4.02464 41.77375,-2.76581 60.25553,-4.2957 17.57744,2.72437 45.92359,-0.0338 54.73004,-5.87899 5.12609,1.67413 29.50319,6.82642 46.57259,4.12891 23.1266,-2.0516 49.2129,-8.74542 73.6044,-8.96915 15.5367,-6.07925 34.7425,-8.98624 50.2041,-11.16293 11.6734,-7.05364 26.4001,-7.68399 40.2691,-14.36301 17.5372,-9.13343 39.0091,-12.74701 53.9514,-25.21023 4.0786,-20.21276 -21.3898,-10.80379 -30.3306,-8.04669 -21.9373,11.25519 -47.281,17.49782 -71.4998,24.18501 -18.7535,4.31422 -41.7871,9.70035 -62.3562,11.84113 -30.6438,5.42744 -62.2464,5.64686 -92.6552,10.1809 -7.24098,0.96034 -46.81252,3.57909 -28.09622,-5.91427 13.10125,-6.89404 30.63732,-3.92201 47.57572,-12.08588 52.9917,-13.96397 105.5055,-30.19684 159.5172,-40.58313 21.2142,-5.60599 41.4063,-4.99834 61.3324,-10.75676 33.0258,-4.77252 66.4192,-5.81115 99.5028,-1.88907 18.4517,-20.50342 -31.3704,-18.26228 -45.1925,-19.3211 -27.626,1.09966 -55.7776,3.98172 -82.6589,5.3522 -26.7119,6.7083 -55.197,9.89526 -82.0308,16.78094 -39.1542,8.47565 -78.3532,18.43375 -116.7432,29.72198 -18.24537,4.41988 -37.06047,14.96244 -54.9739,9.33502 -17.73729,6.3992 -28.38118,10.37758 -48.95797,16.31214 -11.92853,-0.30572 -48.08324,18.53609 -44.97231,1.34758 21.13898,-6.5502 40.19563,-17.68008 58.72352,-29.4257 14.10476,-4.03086 21.14818,-12.81145 35.55848,-19.76839 15.24249,-9.65153 34.17054,-22.98897 43.52328,-30.15463 15.2054,-3.93348 36.0461,-23.78322 50.8588,-35.59524 21.8927,-4.12082 21.3173,-47.94522 0.03,-27.14014 -13.4732,16.11003 -30.5922,28.40799 -48.6372,39.90464 -10.56403,0.39702 -9.05381,14.13474 -16.90903,13.1457 -8.44746,6.40311 -30.12267,7.94786 -44.36845,19.41102 -27.3917,17.68492 -60.09576,27.80784 -86.47526,46.35143 -5.7212,-25.98239 7.73435,-56.48051 -2.06059,-83.92938 -4.12039,-21.2902 -13.34633,-42.15071 -26.5351,-59.32179 -10.0225,-14.35954 -46.05882,-35.8669 -53.75351,-9.91611 -3.42747,23.60501 13.13204,44.04532 18.21661,66.40026 10.76392,24.82543 22.9975,49.34523 30.87495,75.87624 -0.95349,28.4248 -41.26699,59.27558 -47.65745,16.1827 2.28177,-25.56518 -14.7786,-72.10864 -43.90215,-40.91161 -16.57456,16.85228 -17.85514,44.15023 -18.24539,66.83982 -17.93903,9.6852 -45.88647,2.95098 -65.44202,15.68169 -13.28857,3.94712 -18.93539,16.23484 -23.71088,27.86757 z m 24.12262,8.89524 c 5.9531,-26.94483 36.71273,-18.46493 55.76762,-25.04559 25.04103,5.24372 45.67542,-0.13884 71.70305,2.46266 19.51835,-1.40906 38.11636,-0.92068 52.20813,10.45876 29.2731,-13.99559 18.92423,32.34069 22.03426,49.55932 -3.49101,16.58781 -0.98399,32.70782 -7.7437,48.24956 -4.07738,11.70896 -12.38874,20.31366 -15.68086,28.25255 -11.77713,9.493786 -27.69768,14.813439 -40.25958,12.702734 -18.18877,-2.943673 -36.07487,-8.300934 -54.31421,-16.027374 -16.57396,-7.61348 -31.06396,-16.21975 -43.31922,-26.98697 -12.37086,-9.09897 -21.12897,-22.34421 -26.91061,-34.84678 -8.13703,-7.90507 -8.39315,-10.35678 -10.16582,-20.51861 -0.93242,-9.8978 -3.69115,-18.95817 -3.31906,-28.26026 z m 7.04498,35.69005 0.11029,-0.69522 z m 87.92301,-102.1193 c 6.06846,-7.84261 9.17459,31.43382 -0.0203,8.85261 l -0.0919,-4.42776 z m 22.76073,184.44922 0.54371,0.36723 z m 2.92974,0.33102 0.5441,0.36626 z m 43.84959,-320.76934 c 11.10606,10.50032 22.12353,48.92392 15.10538,50.07655 -5.09969,-15.39134 -18.66155,-37.88194 -15.10538,-50.07655 z m 55.32909,310.48812 c 1.49291,2.08446 0.9305,-1.54349 0,0 z m 69.02339,-182.00025 c -0.8456,-0.63985 -2.12668,0.97866 0,0 z m 51.3931,-79.81615 c 1.52272,0.69512 -0.59054,-1.62829 0,0 z m 2.9756,-4.31433 c 2.2928,1.34522 -0.0699,-2.38086 0,0 z m 188.70221,106.46214 c 0.7825,0.99707 0.2492,-1.35314 0,0 z"
           id="path1034"
           inkscape:connector-curvature="0" />
      </g>
    </g>
  </g>
</svg>
