<?xml version="1.0" encoding="UTF-8" standalone="no"?>
<!-- Created with Inkscape (http://www.inkscape.org/) -->

<svg
   xmlns:dc="http://purl.org/dc/elements/1.1/"
   xmlns:cc="http://creativecommons.org/ns#"
   xmlns:rdf="http://www.w3.org/1999/02/22-rdf-syntax-ns#"
   xmlns:svg="http://www.w3.org/2000/svg"
   xmlns="http://www.w3.org/2000/svg"
   xmlns:sodipodi="http://sodipodi.sourceforge.net/DTD/sodipodi-0.dtd"
   xmlns:inkscape="http://www.inkscape.org/namespaces/inkscape"
   width="300mm"
   height="300mm"
   viewBox="0 0 300 300"
   version="1.1"
   id="svg1021"
   inkscape:version="0.92.5 (2060ec1f9f, 2020-04-08)"
   sodipodi:docname="aucune-excuse-300M.svg">
  <defs
     id="defs1015" />
  <sodipodi:namedview
     id="base"
     pagecolor="#ffffff"
     bordercolor="#666666"
     borderopacity="1.0"
     inkscape:pageopacity="0.0"
     inkscape:pageshadow="2"
     inkscape:zoom="0.49497475"
     inkscape:cx="55.35335"
     inkscape:cy="499.35698"
     inkscape:document-units="mm"
     inkscape:current-layer="layer1"
     showgrid="false"
     inkscape:window-width="1855"
     inkscape:window-height="1056"
     inkscape:window-x="65"
     inkscape:window-y="24"
     inkscape:window-maximized="1" />
  <metadata
     id="metadata1018">
    <rdf:RDF>
      <cc:Work
         rdf:about="">
        <dc:format>image/svg+xml</dc:format>
        <dc:type
           rdf:resource="http://purl.org/dc/dcmitype/StillImage" />
        <dc:title></dc:title>
      </cc:Work>
    </rdf:RDF>
  </metadata>
  <g
     inkscape:label="Layer 1"
     inkscape:groupmode="layer"
     id="layer1"
     transform="translate(0,3)">
    <path
       inkscape:connector-curvature="0"
       id="path882"
       style="font-style:normal;font-variant:normal;font-weight:bold;font-stretch:normal;font-size:42.84928513px;line-height:125%;font-family:Tofino;-inkscape-font-specification:Tofino;letter-spacing:0px;word-spacing:0px;fill:#000000;fill-opacity:1;stroke:none;stroke-width:0.26458335px;stroke-linecap:butt;stroke-linejoin:miter;stroke-opacity:1"
       d="m -476.54096,261.52858 h 7.11366 v -20.19021 l -7.30196,1.50642 v -5.4817 l 7.26011,-1.50642 h 7.65764 v 25.67191 h 7.11365 v 5.56539 h -21.8431 z" />
    <path
       inkscape:connector-curvature="0"
       id="path861"
       style="font-style:normal;font-variant:normal;font-weight:bold;font-stretch:normal;font-size:42.84928513px;line-height:125%;font-family:Tofino;-inkscape-font-specification:Tofino;letter-spacing:0px;word-spacing:0px;fill:#cccccc;fill-opacity:1;stroke:none;stroke-width:0.26458335px;stroke-linecap:butt;stroke-linejoin:miter;stroke-opacity:1"
       d="m 39.240183,200.76685 q 3.3174,0.8568 5.03103,2.98786 1.7356,2.10908 1.7356,5.38254 0,4.87725 -3.73483,7.42572 -3.73483,2.52649 -10.89691,2.52649 -2.52649,0 -5.07496,-0.41742 -2.52651,-0.39545 -5.00907,-1.20833 v -6.52495 q 2.37272,1.18635 4.70149,1.8015 2.35074,0.59318 4.61361,0.59318 3.36134,0 5.14088,-1.16439 1.8015,-1.16439 1.8015,-3.33937 0,-2.2409 -1.84544,-3.38332 -1.82347,-1.16438 -5.40451,-1.16438 h -3.38332 v -5.44845 h 3.55907 q 3.18559,0 4.74543,-0.98864 1.55984,-1.0106 1.55984,-3.05376 0,-1.88939 -1.5159,-2.92196 -1.5159,-1.03256 -4.28407,-1.03256 -2.04317,0 -4.13028,0.46135 -2.0871,0.46136 -4.15224,1.36211 v -6.19541 q 2.50453,-0.70303 4.96512,-1.05454 2.46059,-0.35151 4.8333,-0.35151 6.39315,0 9.55676,2.10908 3.18559,2.08711 3.18559,6.30526 0,2.87801 -1.5159,4.72345 -1.5159,1.82348 -4.48179,2.57045 z" />
    <path
       id="path6-3"
       d="M 94.091944,131.75751 H 86.46997 c -1.814611,0 -3.124708,-1.73684 -2.626193,-3.48164 l 2.731407,-9.55991 -4.67523,-0.20673 -3.219235,11.26733 c -0.335013,1.17254 -1.406729,1.98095 -2.626196,1.98095 H 57.700416 c -1.81461,0 -3.124708,-1.73684 -2.626196,-3.48164 l 2.651073,-9.27898 -10.178656,-0.0637 -3.243706,11.35298 c -0.278875,0.97606 -0.420353,1.98623 -0.420352,3.00136 v 20.32025 c 10e-7,4.02252 3.260905,7.28341 7.283433,7.28341 h 23.671303 c 0,-5.85476 3.12348,-11.26478 8.193857,-14.19218 2.801589,-1.61749 5.782789,-2.30172 8.66724,-2.21226 z m 90.323606,0 h -11.63671 c -1.81461,0 -3.12471,-1.73684 -2.6262,-3.48165 l 2.69349,-9.42747 -4.77289,0.13537 -3.08366,10.79277 c -0.335,1.17254 -1.40672,1.98097 -2.62619,1.98097 h -18.35426 c -1.8146,-3e-5 -3.1247,-1.73686 -2.62619,-3.48165 l 2.67194,-9.35175 -4.71026,-0.0839 -3.12455,10.93635 c -0.33501,1.17255 -1.40673,1.98094 -2.62619,1.98095 h -18.3542 c -1.81463,0 -3.12472,-1.73684 -2.62623,-3.48164 l 2.59762,-9.09178 -4.68017,-0.18919 -3.08048,10.78166 c -0.33503,1.17255 -1.40675,1.98095 -2.6262,1.98095 h -7.810038 l -2.782753,13.00879 c 7.296011,1.39077 13.381301,7.70385 13.381301,16.12494 h 67.37182 c 0,-5.85477 3.1235,-11.26479 8.19385,-14.19218 1.08805,-0.62817 2.20316,-1.11558 3.3292,-1.47158 z m 5.57887,12.77876 c 9.06661,-0.76849 17.76557,6.28653 17.76557,16.35497 h 1.3e-4 21.85028 c 2.01127,1e-5 3.64174,-1.63044 3.64174,-3.64172 v -18.50123 c 0,-1.25227 -0.2153,-2.49522 -0.63648,-3.67454 l -5.2009,-14.5628 -3.60389,0.10643 2.67508,7.49029 c 0.63526,1.77874 -0.6834,3.64993 -2.57216,3.64993 h -21.79831 c -1.50845,0 -2.73129,-1.22284 -2.73129,-2.73128 v -8.7983 l -4.73422,0.19925 v 8.59905 c 0,1.50844 -1.22284,2.73128 -2.73129,2.73128 h -3.78391 z M 58.345531,116.826 l 2.451283,-8.5797 c 0.335015,-1.17256 1.406731,-1.98095 2.626196,-1.98095 h 18.354246 c 1.814608,2e-5 3.124706,1.73685 2.626196,3.48162 l -2.024814,7.08686 4.670206,0.22425 2.517664,-8.81178 c 0.335018,-1.17257 1.406726,-1.98095 2.626201,-1.98095 h 7.743706 l 0.664145,-7.283438 H 58.740922 c -3.251909,0 -6.109824,2.155738 -7.003193,5.282518 l -3.563752,12.47314 M 186.26577,106.26535 h 5.65291 c 1.50845,0 2.73129,1.22283 2.73129,2.73129 v 8.70753 l 4.73422,0.0664 v -8.77393 c 0,-1.50847 1.22284,-2.73129 2.73129,-2.73129 h 14.64492 c 1.15429,0 2.18395,0.72562 2.57217,1.81264 l 3.57943,10.02247 3.63578,-0.0172 -3.37849,-9.4599 c -0.37209,-1.04187 0.26326,-2.17209 1.34674,-2.3957 l -1.3e-4,-1e-5 c 0.84595,-0.17458 1.45282,-0.91951 1.45282,-1.78327 v -3.64172 c 0,-1.005648 -0.81523,-1.820868 -1.82087,-1.820858 h -38.44564 z m -3.00559,-7.283438 H 103.1243 l -0.13283,7.283438 h 7.55548 c 1.81459,0 3.12471,1.73682 2.62619,3.48162 l -2.08839,7.30938 4.69771,0.12778 2.55359,-8.93782 c 0.33501,-1.17257 1.40674,-1.98094 2.62621,-1.98094 h 18.35417 c 1.8146,10e-6 3.1247,1.73684 2.62619,3.48161 l -2.08423,7.29503 4.70775,0.0927 2.53952,-8.8884 c 0.33503,-1.17253 1.40675,-1.98092 2.6262,-1.98092 h 18.35425 c 1.81462,0 3.12472,1.73683 2.62621,3.48162 l -2.17794,7.62281 4.71022,0.0839 2.63062,-9.20741 c 0.33502,-1.17253 1.40674,-1.98093 2.62619,-1.98093 h 5.51016 z M 78.479029,160.89122 c 0,-9.81187 10.621666,-15.9443 19.119001,-11.03836 8.49727,4.90595 8.49727,17.17074 0,22.07669 -8.497308,4.90592 -19.118958,-1.22646 -19.119001,-11.03833 m 100.147241,0 c 0,-9.81187 10.62167,-15.9443 19.11901,-11.03836 8.49728,4.90595 8.49728,17.17074 0,22.07669 -8.49733,4.90592 -19.11896,-1.22646 -19.11901,-11.03833 z"
       inkscape:connector-curvature="0"
       style="opacity:1;fill:#cccccc;fill-rule:evenodd;stroke:none;stroke-width:0.26458332"
       sodipodi:nodetypes="cccccssscccccsscscccsccccsccccccscccssccccsccccccsccccccssccssccccscscccsccssccssccssscccccccsccccccsscccccccccssccccscccccccccc" />
    <path
       style="opacity:1;fill:#cccccc;fill-opacity:1;stroke:none;stroke-width:5.99200058;stroke-miterlimit:4;stroke-dasharray:17.97599958, 5.99199986;stroke-dashoffset:0;stroke-opacity:1"
       d="m 21.306164,98.980952 h 27.9566 l -8.9261,32.766118 v 29.17769 h -19.0305 z"
       id="rect1576-6"
       inkscape:connector-curvature="0"
       sodipodi:nodetypes="cccccc" />
    <path
       style="opacity:1;fill:#cccccc;fill-opacity:1;stroke:none;stroke-width:5.99200058;stroke-miterlimit:4;stroke-dasharray:17.97599971, 5.99199991;stroke-dashoffset:0;stroke-opacity:1"
       d="m 229.58099,98.980952 h 5.86413 l 42.59059,28.492578 -41.76016,33.45123 v -29.13071 l -8.7375,-24.59687 z"
       id="rect1578-7"
       inkscape:connector-curvature="0"
       sodipodi:nodetypes="ccccccc" />
    <path
       inkscape:connector-curvature="0"
       id="path1615-5"
       style="font-style:normal;font-variant:normal;font-weight:bold;font-stretch:normal;font-size:29.7144413px;line-height:125%;font-family:Tofino;-inkscape-font-specification:Tofino;letter-spacing:0px;word-spacing:0px;opacity:1;fill:#cccccc;fill-opacity:1;stroke:none;stroke-width:0.26458332px;stroke-linecap:butt;stroke-linejoin:miter;stroke-opacity:1"
       d="m 93.699273,201.77628 c 0,4.20385 0.393647,7.16734 1.180944,8.89046 0.787291,1.72313 2.101919,2.58469 3.943876,2.58469 1.827117,0 3.134327,-0.86156 3.921627,-2.58469 0.78731,-1.72312 1.18096,-4.68661 1.18096,-8.89046 l 8.57858,0.067 c 0,5.51104 -1.18839,9.76688 -3.56513,12.76749 -2.37675,2.9858 -5.74877,4.47869 -10.116037,4.47869 -4.38209,0 -7.761509,-1.49289 -10.138246,-4.47869 -2.376733,-3.00061 -3.565101,-7.25645 -3.565101,-12.76749 z m 10.215247,-1.98252 c -0.0718,-3.51222 -0.46141,-5.27501 -1.1688,-6.79655 -0.77243,-1.70828 -2.07965,-2.56241 -3.921627,-2.56241 -1.841957,0 -3.156585,0.85413 -3.943876,2.56241 -0.707951,1.52275 -1.0976,3.33798 -1.168948,6.85462 l -8.560387,-0.0562 c 0.198424,-4.80579 1.376746,-8.00866 3.534965,-10.71992 2.376737,-3.00064 5.756156,-4.50095 10.138246,-4.50095 4.367267,0 7.739287,1.50031 10.116037,4.50095 2.23985,2.81378 3.42426,5.64421 3.55329,10.71393"
       sodipodi:nodetypes="ccsccccscccccsccccscc" />
    <path
       inkscape:connector-curvature="0"
       id="path3193-3"
       style="font-style:normal;font-variant:normal;font-weight:bold;font-stretch:normal;font-size:18.30161667px;line-height:125%;font-family:Tofino;-inkscape-font-specification:Tofino;letter-spacing:0px;word-spacing:0px;fill:#cccccc;fill-opacity:1;stroke:none;stroke-width:0.26458332px;stroke-linecap:butt;stroke-linejoin:miter;stroke-opacity:1"
       d="m 21.910542,69.407552 h 12.911769 v 2.73059 h -4.644859 v 11.27898 h -3.612668 v -11.27898 h -4.654242 z" />
    <path
       inkscape:connector-curvature="0"
       id="path3325-5"
       style="font-style:normal;font-variant:normal;font-weight:bold;font-stretch:normal;font-size:18.30161667px;line-height:125%;font-family:Tofino;-inkscape-font-specification:Tofino;letter-spacing:0px;word-spacing:0px;fill:#cccccc;fill-opacity:1;stroke:none;stroke-width:0.26458332px;stroke-linecap:butt;stroke-linejoin:miter;stroke-opacity:1"
       d="m 43.886856,73.296162 c -0.05429,-0.44694 -0.177942,-0.63931 -0.441062,-0.85774 -0.325293,-0.27525 -0.866413,-0.41288 -1.623359,-0.41288 h -1.520129 v 1.12947 l -3.612668,0.0351 v -3.78254 h 5.517523 c 1.845433,0 3.196662,0.30965 4.053698,0.92896 0.863284,0.61931 1.294926,1.59832 1.294926,2.93704 z m 3.580193,1.01496 c -0.06227,0.72648 -0.211147,0.74686 -0.586874,1.24262 -0.444158,0.59429 -1.116638,1.03218 -2.017461,1.31369 0.494203,0.11259 0.935222,0.36908 1.323077,0.76945 0.394114,0.39411 0.791346,0.99464 1.191707,1.80162 l 1.96117,3.97862 h -3.847261 l -1.707803,-3.48128 c -0.344068,-0.70064 -0.694384,-1.1792 -1.050959,-1.43568 -0.350326,-0.25648 -0.819497,-0.38472 -1.407532,-0.38472 h -1.022807 v 5.30168 h -3.612668 v -9.12764 l 3.542507,-0.0701 0.07016,1.4001 h 1.520129 c 0.756946,0 1.298066,-0.14075 1.623359,-0.42226 0.331552,-0.2815 0.497333,-0.18877 0.497333,-0.8331 z"
       sodipodi:nodetypes="ccsccccsccccccccccccsccccccsccc" />
    <path
       sodipodi:nodetypes="ccccccccccccccccccccc"
       inkscape:connector-curvature="0"
       id="path3180-3-7-6"
       style="font-style:normal;font-variant:normal;font-weight:bold;font-stretch:normal;font-size:15.70561504px;line-height:125%;font-family:Tofino;-inkscape-font-specification:Tofino;letter-spacing:0px;word-spacing:0px;opacity:1;fill:#cccccc;fill-opacity:1;stroke:none;stroke-width:0.26458332px;stroke-linecap:butt;stroke-linejoin:miter;stroke-opacity:1"
       d="m 52.731282,75.519242 2.267826,-6.12267 h 4.321458 l 2.357088,6.36367 -3.416289,0.055 -1.096815,-3.12349 -1.045516,2.85404 z m 3.110177,1.1553 -0.606972,1.60968 h 3.850714 l -0.575504,-1.53173 3.321201,-0.0229 2.696149,6.72338 h -3.643593 l -0.88501,-2.56086 h -5.667795 l -0.894416,2.56086 H 49.79265 l 2.658015,-6.82392 z" />
    <path
       inkscape:connector-curvature="0"
       id="path3199-2"
       style="font-style:normal;font-variant:normal;font-weight:bold;font-stretch:normal;font-size:18.30161667px;line-height:125%;font-family:Tofino;-inkscape-font-specification:Tofino;letter-spacing:0px;word-spacing:0px;fill:#cccccc;fill-opacity:1;stroke:none;stroke-width:0.26458332px;stroke-linecap:butt;stroke-linejoin:miter;stroke-opacity:1"
       d="m 66.360435,69.407552 h 4.034928 l 5.095269,9.6087 v -9.6087 h 3.424997 v 14.00957 h -4.034928 l -5.095269,-9.60872 v 9.60872 h -3.424997 z" />
    <path
       inkscape:connector-curvature="0"
       id="path3201-9"
       style="font-style:normal;font-variant:normal;font-weight:bold;font-stretch:normal;font-size:18.30161667px;line-height:125%;font-family:Tofino;-inkscape-font-specification:Tofino;letter-spacing:0px;word-spacing:0px;fill:#cccccc;fill-opacity:1;stroke:none;stroke-width:0.26458332px;stroke-linecap:butt;stroke-linejoin:miter;stroke-opacity:1"
       d="m 92.19336,69.848572 v 2.96519 q -1.154176,-0.5161 -2.252054,-0.77884 -1.097876,-0.26273 -2.073765,-0.26273 -1.294929,0 -1.914244,0.35657 -0.619313,0.35658 -0.619313,1.10725 0,0.56301 0.412874,0.88205 0.422259,0.30966 1.520137,0.53486 l 1.538902,0.30965 q 2.336506,0.46918 3.32178,1.4263 0.985271,0.95712 0.985271,2.72121 0,2.31774 -1.379381,3.45314 -1.369999,1.12601 -4.19445,1.12601 -1.332463,0 -2.674311,-0.25335 -1.34185,-0.25336 -2.683698,-0.75067 v -3.04964 q 1.341848,0.71314 2.589861,1.07909 1.257398,0.35658 2.420959,0.35658 1.182325,0 1.811022,-0.39411 0.628701,-0.39412 0.628701,-1.12602 0,-0.65684 -0.431644,-1.01342 -0.422259,-0.35657 -1.698424,-0.63808 l -1.398148,-0.30966 q -2.101917,-0.4504 -3.077806,-1.43566 -0.966507,-0.98528 -0.966507,-2.65554 0,-2.09252 1.351233,-3.21854 1.351232,-1.12601 3.884789,-1.12601 1.154179,0 2.37404,0.17828 1.219862,0.1689 2.524176,0.51609 z" />
    <path
       inkscape:connector-curvature="0"
       id="path3203-1"
       style="font-style:normal;font-variant:normal;font-weight:bold;font-stretch:normal;font-size:18.30161667px;line-height:125%;font-family:Tofino;-inkscape-font-specification:Tofino;letter-spacing:0px;word-spacing:0px;fill:#cccccc;fill-opacity:1;stroke:none;stroke-width:0.26458332px;stroke-linecap:butt;stroke-linejoin:miter;stroke-opacity:1"
       d="m 96.284585,73.411702 v -4.00415 h 5.996095 c 1.78288,0 3.14973,0.39722 4.1006,1.1917 0.82849,0.68225 1.29839,1.61762 1.40975,2.80608 l -3.73177,-0.0485 c -0.0692,-0.42456 -0.24919,-0.56713 -0.54001,-0.82457 -0.38159,-0.33781 -0.92271,-0.50671 -1.62335,-0.50671 h -1.998651 l -0.04967,1.41097 z m 3.612664,1.07658 v 1.45018 h 1.998701 c 0.70064,0 1.24175,-0.1689 1.62335,-0.50671 0.38161,-0.34406 0.5724,-0.27323 0.5724,-0.89878 h 3.72527 c 0,1.47007 -0.47856,2.04669 -1.43569,2.84117 -0.95087,0.78821 -2.31772,1.18233 -4.1006,1.18233 h -2.383431 v 4.86065 h -3.612664 v -8.92885 z"
       sodipodi:nodetypes="ccscccsscccccsccccsccccc" />
    <path
       inkscape:connector-curvature="0"
       id="path3205-2"
       style="font-style:normal;font-variant:normal;font-weight:bold;font-stretch:normal;font-size:18.30161667px;line-height:125%;font-family:Tofino;-inkscape-font-specification:Tofino;letter-spacing:0px;word-spacing:0px;fill:#cccccc;fill-opacity:1;stroke:none;stroke-width:0.26458332px;stroke-linecap:butt;stroke-linejoin:miter;stroke-opacity:1"
       d="m 123.97546,76.982052 c 0,2.26455 -0.63808,3.48551 -1.91425,4.77419 -1.27616,1.28866 -3.04027,1.93299 -5.29232,1.93299 -2.24579,0 -4.0099,-0.64433 -5.29232,-1.93299 -1.27617,-1.28868 -1.91426,-2.50964 -1.91426,-4.77419 h 3.73467 c 0,1.47009 0.3034,2.05609 0.9102,2.86933 0.6068,0.81324 1.46071,1.21986 2.56171,1.21986 1.10726,0 1.96429,-0.40662 2.5711,-1.21986 0.6068,-0.81324 0.9102,-1.39924 0.9102,-2.86933 z m -14.3733,-1.50773 c 0.15753,-1.82198 0.78233,-3.28436 1.87441,-4.38713 1.28242,-1.28867 3.04653,-1.93299 5.29232,-1.93299 2.25205,0 4.01616,0.64432 5.29232,1.93299 1.10052,1.1113 1.72652,2.50009 1.87799,4.34177 l -3.73693,0.0336 c -0.10728,-1.02035 -0.39471,-1.84386 -0.86228,-2.47049 -0.60681,-0.81324 -1.46384,-1.21986 -2.5711,-1.21986 -1.101,0 -1.95491,0.40662 -2.56171,1.21986 -0.47793,0.6405 -0.76763,1.4867 -0.86915,2.53857 z"
       sodipodi:nodetypes="cssccccscccccsscccsscc" />
    <path
       inkscape:connector-curvature="0"
       id="path3209-7"
       style="font-style:normal;font-variant:normal;font-weight:bold;font-stretch:normal;font-size:18.30161667px;line-height:125%;font-family:Tofino;-inkscape-font-specification:Tofino;letter-spacing:0px;word-spacing:0px;fill:#cccccc;fill-opacity:1;stroke:none;stroke-width:0.26458332px;stroke-linecap:butt;stroke-linejoin:miter;stroke-opacity:1"
       d="m 138.97038,69.407552 h 12.91177 v 2.73059 h -4.64487 v 11.27898 h -3.61266 v -11.27898 h -4.65424 z" />
    <path
       inkscape:connector-curvature="0"
       id="path3211-0"
       style="font-style:normal;font-variant:normal;font-weight:bold;font-stretch:normal;font-size:18.30161667px;line-height:125%;font-family:Tofino;-inkscape-font-specification:Tofino;letter-spacing:0px;word-spacing:0px;fill:#cccccc;fill-opacity:1;stroke:none;stroke-width:0.26458332px;stroke-linecap:butt;stroke-linejoin:miter;stroke-opacity:1"
       d="m 163.49899,69.848572 v 2.96519 q -1.15418,-0.5161 -2.25206,-0.77884 -1.09787,-0.26273 -2.07376,-0.26273 -1.29493,0 -1.91425,0.35657 -0.61931,0.35658 -0.61931,1.10725 0,0.56301 0.41287,0.88205 0.42227,0.30966 1.52014,0.53486 l 1.53891,0.30965 q 2.3365,0.46918 3.32177,1.4263 0.98528,0.95712 0.98528,2.72121 0,2.31774 -1.37939,3.45314 -1.36999,1.12601 -4.19445,1.12601 -1.33246,0 -2.6743,-0.25335 -1.34186,-0.25336 -2.68371,-0.75067 v -3.04964 q 1.34185,0.71314 2.58986,1.07909 1.2574,0.35658 2.42097,0.35658 1.18233,0 1.81102,-0.39411 0.6287,-0.39412 0.6287,-1.12602 0,-0.65684 -0.43165,-1.01342 -0.42225,-0.35657 -1.69842,-0.63808 l -1.39815,-0.30966 q -2.10192,-0.4504 -3.07781,-1.43566 -0.9665,-0.98528 -0.9665,-2.65554 0,-2.09252 1.35123,-3.21854 1.35124,-1.12601 3.8848,-1.12601 1.15417,0 2.37403,0.17828 1.21986,0.1689 2.52418,0.51609 z" />
    <path
       inkscape:connector-curvature="0"
       id="path3213-9"
       style="font-style:normal;font-variant:normal;font-weight:bold;font-stretch:normal;font-size:18.30161667px;line-height:125%;font-family:Tofino;-inkscape-font-specification:Tofino;letter-spacing:0px;word-spacing:0px;fill:#cccccc;fill-opacity:1;stroke:none;stroke-width:0.26458332px;stroke-linecap:butt;stroke-linejoin:miter;stroke-opacity:1"
       d="m 176.3603,70.457782 c 1.28964,-0.86906 2.92356,-1.30358 4.90175,-1.30358 0.9321,0 1.82354,0.0876 2.67432,0.26274 0.85703,0.17516 1.66401,0.43475 2.42095,0.77882 v 2.89951 c -0.78195,-0.44416 -1.56079,-0.77571 -2.3365,-0.99466 -0.76946,-0.21894 -1.54204,-0.32842 -2.31774,-0.32842 -1.07609,0 -1.96847,0.2257 -2.67716,0.67709 z m 1.85376,2.5775 c -0.77571,0.80072 -1.0057,1.89601 -1.0057,3.39113 0,1.10544 0.20867,2.0231 0.62601,2.75294 l -2.93774,1.86886 c -0.94862,-1.2186 -1.42293,-2.75919 -1.42293,-4.6218 0,-2.2583 0.69439,-4.03492 2.08316,-5.32983 z m 0.22557,7.03597 c 0.75068,0.80698 1.71203,0.99999 3.09454,0.99999 0.37534,0 0.72254,-0.0219 1.04159,-0.0657 0.32529,-0.0501 0.61618,-0.12513 0.87267,-0.2252 v -2.72122 h -2.20514 v -2.42094 h 5.63013 v 6.7374 c -0.90082,0.4379 -1.83604,0.76632 -2.80569,0.98526 -0.96963,0.21895 -1.97054,0.32842 -3.00273,0.32842 -2.33337,0 -3.97146,-0.58043 -5.3352,-1.8816 z"
       sodipodi:nodetypes="csccccscccsccscccsccccccccscc" />
    <path
       inkscape:connector-curvature="0"
       id="path3219-3"
       style="font-style:normal;font-variant:normal;font-weight:bold;font-stretch:normal;font-size:18.30161667px;line-height:125%;font-family:Tofino;-inkscape-font-specification:Tofino;letter-spacing:0px;word-spacing:0px;fill:#cccccc;fill-opacity:1;stroke:none;stroke-width:0.26458332px;stroke-linecap:butt;stroke-linejoin:miter;stroke-opacity:1"
       d="m 216.56299,69.407552 h 12.91177 v 2.73059 h -4.64487 v 11.27898 h -3.61266 v -11.27898 h -4.65424 z" />
    <path
       inkscape:connector-curvature="0"
       id="path3221-6"
       style="font-style:normal;font-variant:normal;font-weight:bold;font-stretch:normal;font-size:18.30161667px;line-height:125%;font-family:Tofino;-inkscape-font-specification:Tofino;letter-spacing:0px;word-spacing:0px;fill:#cccccc;fill-opacity:1;stroke:none;stroke-width:0.26458332px;stroke-linecap:butt;stroke-linejoin:miter;stroke-opacity:1"
       d="m 231.34207,69.407552 h 3.61267 v 8.39823 q 0,1.73594 0.56301,2.48662 0.5724,0.7413 1.85795,0.7413 1.29493,0 1.85794,-0.7413 0.5724,-0.75068 0.5724,-2.48662 v -8.39823 h 3.61267 v 8.39823 q 0,2.97457 -1.49199,4.42902 -1.49198,1.45443 -4.55102,1.45443 -3.04965,0 -4.54164,-1.45443 -1.49199,-1.45445 -1.49199,-4.42902 z" />
    <path
       inkscape:connector-curvature="0"
       id="path3223-0"
       style="font-style:normal;font-variant:normal;font-weight:bold;font-stretch:normal;font-size:18.30161667px;line-height:125%;font-family:Tofino;-inkscape-font-specification:Tofino;letter-spacing:0px;word-spacing:0px;fill:#cccccc;fill-opacity:1;stroke:none;stroke-width:0.26458332px;stroke-linecap:butt;stroke-linejoin:miter;stroke-opacity:1"
       d="m 246.94692,69.407552 h 3.61267 v 14.00957 h -3.61267 z" />
    <path
       inkscape:connector-curvature="0"
       id="path3225-6"
       style="font-style:normal;font-variant:normal;font-weight:bold;font-stretch:normal;font-size:18.30161667px;line-height:125%;font-family:Tofino;-inkscape-font-specification:Tofino;letter-spacing:0px;word-spacing:0px;fill:#cccccc;fill-opacity:1;stroke:none;stroke-width:0.26458332px;stroke-linecap:butt;stroke-linejoin:miter;stroke-opacity:1"
       d="m 252.42693,69.407552 h 12.91177 v 2.73059 h -4.64486 v 11.27898 h -3.61267 v -11.27898 h -4.65424 z" />
    <path
       inkscape:connector-curvature="0"
       id="path3227-2"
       style="font-style:normal;font-variant:normal;font-weight:bold;font-stretch:normal;font-size:18.30161667px;line-height:125%;font-family:Tofino;-inkscape-font-specification:Tofino;letter-spacing:0px;word-spacing:0px;fill:#cccccc;fill-opacity:1;stroke:none;stroke-width:0.26458332px;stroke-linecap:butt;stroke-linejoin:miter;stroke-opacity:1"
       d="m 276.95554,69.848572 v 2.96519 q -1.15418,-0.5161 -2.25207,-0.77884 -1.09787,-0.26273 -2.07376,-0.26273 -1.29493,0 -1.91424,0.35657 -0.61932,0.35658 -0.61932,1.10725 0,0.56301 0.41288,0.88205 0.42226,0.30966 1.52014,0.53486 l 1.5389,0.30965 q 2.33651,0.46918 3.32177,1.4263 0.98528,0.95712 0.98528,2.72121 0,2.31774 -1.37939,3.45314 -1.36999,1.12601 -4.19444,1.12601 -1.33247,0 -2.67431,-0.25335 -1.34185,-0.25336 -2.68371,-0.75067 v -3.04964 q 1.34186,0.71314 2.58987,1.07909 1.25739,0.35658 2.42096,0.35658 1.18233,0 1.81102,-0.39411 0.62871,-0.39412 0.62871,-1.12602 0,-0.65684 -0.43166,-1.01342 -0.42225,-0.35657 -1.69841,-0.63808 l -1.39816,-0.30966 q -2.10192,-0.4504 -3.07781,-1.43566 -0.9665,-0.98528 -0.9665,-2.65554 0,-2.09252 1.35123,-3.21854 1.35124,-1.12601 3.8848,-1.12601 1.15418,0 2.37403,0.17828 1.21986,0.1689 2.52419,0.51609 z" />
    <text
       xml:space="preserve"
       style="font-style:normal;font-variant:normal;font-weight:normal;font-stretch:normal;font-size:26.3452034px;line-height:125%;font-family:Tofino;-inkscape-font-specification:Tofino;letter-spacing:0px;word-spacing:0px;opacity:1;fill:#cccccc;fill-opacity:1;stroke:none;stroke-width:0.26458338px;stroke-linecap:butt;stroke-linejoin:miter;stroke-opacity:1"
       x="115.70272"
       y="219.08946"
       id="text1725-6"><tspan
         sodipodi:role="line"
         id="tspan1723-1"
         x="115.70272"
         y="219.08946"
         style="font-weight:bold;fill:#cccccc;stroke-width:0.26458338px">M</tspan></text>
    <g
       aria-label="#"
       style="font-style:normal;font-variant:normal;font-weight:normal;font-stretch:normal;font-size:39.8807106px;line-height:125%;font-family:Tofino;-inkscape-font-specification:Tofino;letter-spacing:0px;word-spacing:0px;opacity:1;fill:#cccccc;fill-opacity:1;stroke:none;stroke-width:0.25197336px;stroke-linecap:butt;stroke-linejoin:miter;stroke-opacity:1"
       id="text1729-8"
       transform="matrix(1.0500448,0,0,1.0500448,-6.4825917,-45.104546)">
      <path
         d="m 188.38725,237.58941 -0.57948,2.16995 h 5.53034 v 4.1867 h -6.54293 l -1.86941,7.45816 h -4.30353 l 1.8694,-7.45816 h -5.14087 l -1.86941,7.45816 h -4.34248 l 1.86941,-7.45816 h -5.43297 v -4.1867 h 6.38715 l 0.68464,-2.34543 4.28377,0.0322 -0.62593,2.31323 h 5.14087 l 0.66279,-2.22651 z m -4.06452,-1.26253 0.4862,-1.90312 h -5.14087 l -0.44756,1.81581 -4.3448,-0.0549 0.44988,-1.76095 h -5.51086 v -4.14775 h 6.58187 l 1.86941,-7.4971 h 4.34248 l -1.86941,7.4971 h 5.14088 l 1.88888,-7.4971 h 4.30353 l -1.88888,7.4971 h 5.39402 v 4.14775 h -6.42609 l -0.49884,1.9809 z"
         style="font-weight:bold;fill:#cccccc;stroke-width:0.25197336px"
         id="path3327-7"
         inkscape:connector-curvature="0"
         sodipodi:nodetypes="cccccccccccccccccccccccccccccccccccccccccc" />
    </g>
    <path
       sodipodi:nodetypes="ccccccccccccccccccccc"
       inkscape:connector-curvature="0"
       id="path3180-9"
       style="font-style:normal;font-variant:normal;font-weight:bold;font-stretch:normal;font-size:15.70561504px;line-height:125%;font-family:Tofino;-inkscape-font-specification:Tofino;letter-spacing:0px;word-spacing:0px;fill:#cccccc;fill-opacity:1;stroke:none;stroke-width:0.26458332px;stroke-linecap:butt;stroke-linejoin:miter;stroke-opacity:1"
       d="m 204.70993,194.01156 1.79934,-4.82139 h 3.69611 l 1.91076,4.95735 -2.81668,0.037 -0.9381,-2.17588 -0.89423,2.03543 z m 2.63982,0.92821 -0.63917,1.852 h 3.29349 l -0.58223,-1.69531 2.93061,-0.0395 2.306,6.15558 h -3.11634 l -0.75694,-2.1903 h -4.84763 l -0.76499,2.1903 h -3.11633 l 2.3934,-6.25127 z" />
    <path
       inkscape:connector-curvature="0"
       id="path3182-2"
       style="font-style:normal;font-variant:normal;font-weight:bold;font-stretch:normal;font-size:15.70561504px;line-height:125%;font-family:Tofino;-inkscape-font-specification:Tofino;letter-spacing:0px;word-spacing:0px;fill:#cccccc;fill-opacity:1;stroke:none;stroke-width:0.26458332px;stroke-linecap:butt;stroke-linejoin:miter;stroke-opacity:1"
       d="m 215.74554,189.19017 h 3.10022 v 7.20702 q 0,1.48972 0.48316,2.13392 0.4912,0.63615 1.5944,0.63615 1.11125,0 1.5944,-0.63615 0.49121,-0.6442 0.49121,-2.13392 v -7.20702 h 3.10022 v 7.20702 q 0,2.55266 -1.28035,3.80079 -1.28036,1.24815 -3.90548,1.24815 -2.61708,0 -3.89743,-1.24815 -1.28035,-1.24813 -1.28035,-3.80079 z" />
    <path
       inkscape:connector-curvature="0"
       id="path3184-0"
       style="font-style:normal;font-variant:normal;font-weight:bold;font-stretch:normal;font-size:15.70561504px;line-height:125%;font-family:Tofino;-inkscape-font-specification:Tofino;letter-spacing:0px;word-spacing:0px;fill:#cccccc;fill-opacity:1;stroke:none;stroke-width:0.26458332px;stroke-linecap:butt;stroke-linejoin:miter;stroke-opacity:1"
       d="m 238.67111,200.5523 q -0.85357,0.44289 -1.7796,0.66835 -0.92605,0.22548 -1.93262,0.22548 -3.00359,0 -4.75905,-1.67493 -1.75545,-1.68298 -1.75545,-4.55774 0,-2.8828 1.75545,-4.55773 1.75546,-1.68299 4.75905,-1.68299 1.00657,0 1.93262,0.22548 0.92603,0.22548 1.7796,0.66836 v 2.48823 q -0.86162,-0.58783 -1.69909,-0.86161 -0.83746,-0.27379 -1.7635,-0.27379 -1.65882,0 -2.60902,1.06293 -0.95021,1.06294 -0.95021,2.93112 0,1.86014 0.95021,2.92308 0.9502,1.06294 2.60902,1.06294 0.92604,0 1.7635,-0.27379 0.83747,-0.27379 1.69909,-0.86163 z" />
    <path
       inkscape:connector-curvature="0"
       id="path3186-2"
       style="font-style:normal;font-variant:normal;font-weight:bold;font-stretch:normal;font-size:15.70561504px;line-height:125%;font-family:Tofino;-inkscape-font-specification:Tofino;letter-spacing:0px;word-spacing:0px;fill:#cccccc;fill-opacity:1;stroke:none;stroke-width:0.26458332px;stroke-linecap:butt;stroke-linejoin:miter;stroke-opacity:1"
       d="m 241.23987,189.19017 h 3.10023 v 7.20702 q 0,1.48972 0.48315,2.13392 0.49121,0.63615 1.5944,0.63615 1.11125,0 1.59441,-0.63615 0.4912,-0.6442 0.4912,-2.13392 v -7.20702 h 3.10022 v 7.20702 q 0,2.55266 -1.28035,3.80079 -1.28035,1.24815 -3.90548,1.24815 -2.61707,0 -3.89742,-1.24815 -1.28036,-1.24813 -1.28036,-3.80079 z" />
    <path
       inkscape:connector-curvature="0"
       id="path3188-3"
       style="font-style:normal;font-variant:normal;font-weight:bold;font-stretch:normal;font-size:15.70561504px;line-height:125%;font-family:Tofino;-inkscape-font-specification:Tofino;letter-spacing:0px;word-spacing:0px;fill:#cccccc;fill-opacity:1;stroke:none;stroke-width:0.26458332px;stroke-linecap:butt;stroke-linejoin:miter;stroke-opacity:1"
       d="m 254.63125,189.19017 h 3.46258 l 4.37254,8.2458 v -8.2458 h 2.93917 v 12.02244 h -3.46259 l -4.37253,-8.2458 v 8.2458 h -2.93917 z" />
    <path
       inkscape:connector-curvature="0"
       id="path3190-7"
       style="font-style:normal;font-variant:normal;font-weight:bold;font-stretch:normal;font-size:15.70561504px;line-height:125%;font-family:Tofino;-inkscape-font-specification:Tofino;letter-spacing:0px;word-spacing:0px;fill:#cccccc;fill-opacity:1;stroke:none;stroke-width:0.26458332px;stroke-linecap:butt;stroke-linejoin:miter;stroke-opacity:1"
       d="m 268.4333,189.19017 h 8.36659 v 2.34329 h -5.26637 v 2.2386 h 4.95231 v 2.34329 h -4.95231 v 2.75397 h 5.44352 v 2.34329 h -8.54374 z" />
    <text
       xml:space="preserve"
       style="font-style:normal;font-variant:normal;font-weight:normal;font-stretch:normal;font-size:16.49160004px;line-height:125%;font-family:Tofino;-inkscape-font-specification:Tofino;letter-spacing:0px;word-spacing:0px;opacity:1;fill:#cccccc;fill-opacity:1;stroke:none;stroke-width:0.26458332px;stroke-linecap:butt;stroke-linejoin:miter;stroke-opacity:1"
       x="200.18607"
       y="217.23537"
       id="text1741-5"><tspan
         sodipodi:role="line"
         id="tspan1739-9"
         x="200.18607"
         y="217.23537"
         style="font-weight:bold;fill:#cccccc;stroke-width:0.26458332px">EXCUSE</tspan></text>
    <path
       sodipodi:nodetypes="ccsccccsccccccccccccsccccccsccc"
       d="m 133.90329,73.296162 c -0.0543,-0.44694 -0.17794,-0.63931 -0.44106,-0.85774 -0.32529,-0.27525 -0.86641,-0.41288 -1.62336,-0.41288 h -1.52013 v 1.12947 l -3.61267,0.0351 v -3.78254 h 5.51753 c 1.84543,0 3.19666,0.30965 4.0537,0.92896 0.86328,0.61931 1.29492,1.59832 1.29492,2.93704 z m 3.58019,1.01496 c -0.0623,0.72648 -0.21114,0.74686 -0.58687,1.24262 -0.44416,0.59429 -1.11664,1.03218 -2.01746,1.31369 0.4942,0.11259 0.93522,0.36908 1.32308,0.76945 0.39411,0.39411 0.79134,0.99464 1.1917,1.80162 l 1.96117,3.97862 h -3.84726 l -1.7078,-3.48128 c -0.34407,-0.70064 -0.69438,-1.1792 -1.05096,-1.43568 -0.35032,-0.25648 -0.8195,-0.38472 -1.40753,-0.38472 h -1.02281 v 5.30168 h -3.61267 v -9.12764 l 3.54251,-0.0701 0.0701,1.4001 h 1.52013 c 0.75695,0 1.29807,-0.14075 1.62336,-0.42226 0.33155,-0.2815 0.49733,-0.18877 0.49733,-0.8331 z"
       style="font-style:normal;font-variant:normal;font-weight:bold;font-stretch:normal;font-size:18.30161667px;line-height:125%;font-family:Tofino;-inkscape-font-specification:Tofino;letter-spacing:0px;word-spacing:0px;fill:#cccccc;fill-opacity:1;stroke:none;stroke-width:0.26458332px;stroke-linecap:butt;stroke-linejoin:miter;stroke-opacity:1"
       id="path3330-2"
       inkscape:connector-curvature="0" />
    <path
       inkscape:connector-curvature="0"
       id="path3332-2"
       style="font-style:normal;font-variant:normal;font-weight:bold;font-stretch:normal;font-size:18.30161667px;line-height:125%;font-family:Tofino;-inkscape-font-specification:Tofino;letter-spacing:0px;word-spacing:0px;fill:#cccccc;fill-opacity:1;stroke:none;stroke-width:0.26458332px;stroke-linecap:butt;stroke-linejoin:miter;stroke-opacity:1"
       d="m 197.25169,73.296142 c -0.0543,-0.44694 -0.17795,-0.63931 -0.44107,-0.85774 -0.32529,-0.27525 -0.86641,-0.41288 -1.62335,-0.41288 h -1.52013 v 1.12947 l -3.61267,0.0351 v -3.78253 h 5.51752 c 1.84543,0 3.19666,0.30965 4.0537,0.92896 0.86328,0.61931 1.29493,1.59832 1.29493,2.93704 z m 3.58019,1.01496 c -0.0623,0.72648 -0.21115,0.74686 -0.58687,1.24262 -0.44416,0.59429 -1.11664,1.03218 -2.01747,1.31369 0.49421,0.11259 0.93523,0.36908 1.32308,0.76945 0.39412,0.39411 0.79135,0.99464 1.19171,1.80162 l 1.96117,3.97861 h -3.84726 l -1.70781,-3.48127 c -0.34406,-0.70065 -0.69438,-1.1792 -1.05095,-1.43568 -0.35033,-0.25648 -0.8195,-0.38472 -1.40754,-0.38472 h -1.0228 v 5.30167 h -3.61267 v -9.12763 l 3.5425,-0.0701 0.0701,1.4001 h 1.52012 c 0.75695,0 1.29807,-0.14075 1.62336,-0.42226 0.33156,-0.2815 0.49734,-0.18877 0.49734,-0.8331 z"
       sodipodi:nodetypes="ccsccccsccccccccccccsccccccsccc" />
    <path
       d="m 206.5751,75.530232 2.26782,-6.12268 h 4.32146 l 2.35709,6.36367 -3.41629,0.055 -1.09682,-3.12349 -1.04551,2.85404 z m 3.11018,1.1553 -0.60698,1.60968 h 3.85071 l -0.5755,-1.53174 3.3212,-0.0229 2.69615,6.72339 h -3.64359 l -0.88501,-2.56086 h -5.6678 l -0.89442,2.56086 h -3.64358 l 2.65802,-6.82393 z"
       style="font-style:normal;font-variant:normal;font-weight:bold;font-stretch:normal;font-size:15.70561504px;line-height:125%;font-family:Tofino;-inkscape-font-specification:Tofino;letter-spacing:0px;word-spacing:0px;opacity:1;fill:#cccccc;fill-opacity:1;stroke:none;stroke-width:0.26458332px;stroke-linecap:butt;stroke-linejoin:miter;stroke-opacity:1"
       id="path3334-8"
       inkscape:connector-curvature="0"
       sodipodi:nodetypes="ccccccccccccccccccccc" />
    <path
       sodipodi:nodetypes="ccsccccscccccsccccscc"
       d="m 59.804679,201.77628 c 0,4.20385 0.393647,7.16734 1.180944,8.89046 0.787292,1.72313 2.101922,2.58469 3.943893,2.58469 1.827114,0 3.134317,-0.86156 3.921612,-2.58469 0.787294,-1.72312 1.180941,-4.68661 1.180941,-8.89046 l 8.57853,0.067 c 0,5.51104 -1.188371,9.76688 -3.565102,12.76749 -2.376736,2.9858 -5.748729,4.47869 -10.115981,4.47869 -4.382106,0 -7.761526,-1.49289 -10.138262,-4.47869 -2.376734,-3.00061 -3.565102,-7.25645 -3.565102,-12.76749 z m 10.215224,-1.98252 c -0.0718,-3.51222 -0.461393,-5.27501 -1.168775,-6.79655 -0.772438,-1.70828 -2.079641,-2.56241 -3.921612,-2.56241 -1.841971,0 -3.156601,0.85413 -3.943893,2.56241 -0.707951,1.52275 -1.0976,3.33798 -1.168947,6.85462 l -8.560388,-0.0562 c 0.198425,-4.80579 1.376749,-8.00866 3.534966,-10.71992 2.376736,-3.00064 5.756156,-4.50095 10.138262,-4.50095 4.367252,0 7.739245,1.50031 10.115981,4.50095 2.239828,2.81378 3.424251,5.64421 3.553269,10.71393"
       style="font-style:normal;font-variant:normal;font-weight:bold;font-stretch:normal;font-size:29.7144413px;line-height:125%;font-family:Tofino;-inkscape-font-specification:Tofino;letter-spacing:0px;word-spacing:0px;opacity:1;fill:#cccccc;fill-opacity:1;stroke:none;stroke-width:0.26458332px;stroke-linecap:butt;stroke-linejoin:miter;stroke-opacity:1"
       id="path880-7"
       inkscape:connector-curvature="0" />
  </g>
</svg>
