<?xml version="1.0" encoding="UTF-8" standalone="no"?>
<!-- Created with Inkscape (http://www.inkscape.org/) -->

<svg
   width="420mm"
   height="297mm"
   viewBox="0 0 420 297"
   version="1.1"
   id="svg1021"
   xmlns="http://www.w3.org/2000/svg"
   xmlns:svg="http://www.w3.org/2000/svg"
   xmlns:rdf="http://www.w3.org/1999/02/22-rdf-syntax-ns#"
   xmlns:cc="http://creativecommons.org/ns#"
   xmlns:dc="http://purl.org/dc/elements/1.1/">
  <defs
     id="defs1015" />
  <metadata
     id="metadata1018">
    <rdf:RDF>
      <cc:Work
         rdf:about="">
        <dc:format>image/svg+xml</dc:format>
        <dc:type
           rdf:resource="http://purl.org/dc/dcmitype/StillImage" />
      </cc:Work>
    </rdf:RDF>
  </metadata>
  <g
     id="layer1"
     transform="translate(0,3)">
    <path
       id="path882"
       style="font-style:normal;font-variant:normal;font-weight:bold;font-stretch:normal;font-size:42.8493px;line-height:125%;font-family:Tofino;-inkscape-font-specification:Tofino;letter-spacing:0px;word-spacing:0px;fill:#000000;fill-opacity:1;stroke:none;stroke-width:0.264583px;stroke-linecap:butt;stroke-linejoin:miter;stroke-opacity:1"
       d="m -476.54096,261.52858 h 7.11366 v -20.19021 l -7.30196,1.50642 v -5.4817 l 7.26011,-1.50642 h 7.65764 v 25.67191 h 7.11365 v 5.56539 h -21.8431 z" />
    <path
       id="path861"
       style="font-style:normal;font-variant:normal;font-weight:bold;font-stretch:normal;font-size:42.8493px;line-height:125%;font-family:Tofino;-inkscape-font-specification:Tofino;letter-spacing:0px;word-spacing:0px;fill:#cccccc;fill-opacity:1;stroke:none;stroke-width:0.264583px;stroke-linecap:butt;stroke-linejoin:miter;stroke-opacity:1"
       d="m 59.677915,223.49089 q 4.338196,1.12044 6.579127,3.90725 2.269661,2.75807 2.269661,7.0388 0,6.37802 -4.884074,9.71068 -4.884074,3.30392 -14.249995,3.30392 -3.303915,0 -6.636574,-0.54586 -3.303943,-0.51714 -6.55041,-1.58015 v -8.53274 q 3.102829,1.5514 6.148184,2.35584 3.074086,0.77571 6.033262,0.77571 4.395658,0 6.722779,-1.52269 2.35584,-1.52268 2.35584,-4.36692 0,-2.93045 -2.4133,-4.42441 -2.38457,-1.52267 -7.067531,-1.52267 h -4.4244 v -7.12498 h 4.65423 q 4.165827,0 6.205645,-1.29286 2.039819,-1.32157 2.039819,-3.99343 0,-2.47077 -1.982358,-3.82107 -1.982357,-1.35029 -5.60232,-1.35029 -2.671873,0 -5.401207,0.60331 -2.729321,0.60332 -5.429925,1.78124 v -8.1018 q 3.275199,-0.91936 6.492936,-1.37903 3.217738,-0.45967 6.320554,-0.45967 8.360384,0 12.497467,2.75806 4.165827,2.72933 4.165827,8.24545 0,3.76361 -1.982357,6.17691 -1.982357,2.38457 -5.86088,3.3614 z" />
    <path
       style="fill:#cccccc;fill-rule:evenodd;stroke:none;stroke-width:0.264583"
       d="m 128.99344,153.40002 c -0.0814,9e-5 -0.16278,9.5e-4 -0.244,0.003 -7.79713,0.13644 -14.8857,6.41147 -14.8857,15.14197 6e-5,11.64068 12.60181,18.91579 22.6829,13.09549 10.08105,-5.82037 10.08105,-20.37125 0,-26.19158 -2.44152,-1.40963 -5.03083,-2.05096 -7.5532,-2.04831 z"
       id="path730" />
    <path
       style="fill:#cccccc;fill-rule:evenodd;stroke:none;stroke-width:0.264583"
       d="m 268.94174,116.45503 v 9.66632 c 0,2.04123 -1.65524,3.69646 -3.69645,3.69646 h -5.12022 l 2.51675,17.29209 c 12.26901,-1.03993 24.04026,8.50719 24.04026,22.13189 h 29.56816 c 2.72167,1e-5 4.92861,-2.20693 4.92861,-4.92863 v -25.03603 c 0,-1.69459 -0.29159,-3.37611 -0.86154,-4.97198 l -6.37473,-17.85012 h -4.92791 l 3.00766,8.42368 c 0.8596,2.40701 -0.92449,4.9391 -3.48039,4.9391 h -29.49823 c -2.04125,0 -3.69575,-1.65523 -3.69575,-3.69646 v -9.66632 z"
       id="path728" />
    <path
       style="fill:#cccccc;fill-rule:evenodd;stroke:none;stroke-width:0.264583"
       d="m 153.99354,116.45503 -3.05171,10.68169 c -0.45335,1.5867 -1.90364,2.68038 -3.55381,2.68038 h -10.5684 l -3.76568,17.60398 c 9.87301,1.88198 18.10746,10.42522 18.10746,21.82071 h 91.1688 c 0,-7.92271 4.22673,-15.24399 11.08796,-19.20537 1.47236,-0.85005 2.98107,-1.50983 4.50484,-1.99157 l -2.83073,-18.22775 h -15.74666 c -2.45554,0 -4.2284,-2.35003 -3.5538,-4.71112 l 2.4713,-8.65095 h -6.40621 l -3.05242,10.68169 c -0.45333,1.58669 -1.9036,2.68038 -3.55381,2.68038 h -24.83673 c -2.45555,-4e-5 -4.2284,-2.35006 -3.55381,-4.71112 l 2.47129,-8.65095 h -6.4062 l -3.05171,10.68169 c -0.45334,1.5867 -1.90363,2.68037 -3.55381,2.68038 h -24.83744 c -2.45559,0 -4.22839,-2.35004 -3.55381,-4.71112 l 2.47199,-8.65095 z"
       id="path726" />
    <path
       style="fill:#cccccc;fill-rule:evenodd;stroke:none;stroke-width:0.264583"
       d="m 68.738661,116.45503 -3.248212,11.37119 c -0.377373,1.32081 -0.569224,2.6878 -0.569223,4.06149 v 27.49756 c 10e-7,5.44328 4.412503,9.85652 9.855819,9.85652 h 32.032465 c 0,-7.92269 4.22669,-15.24397 11.08797,-19.20537 3.79114,-2.18876 7.82526,-3.11472 11.72852,-2.99366 l 3.23912,-17.22566 h -10.31385 c -2.45555,0 -4.2284,-2.35004 -3.5538,-4.71112 l 2.4713,-8.65095 h -6.40622 l -3.05171,10.68169 c -0.45334,1.58669 -1.90361,2.68038 -3.5538,2.68038 H 83.619592 c -2.455545,0 -4.228389,-2.35004 -3.553801,-4.71112 l 2.471298,-8.65095 z"
       id="path724" />
    <path
       style="fill:#cccccc;fill-rule:evenodd;stroke:none;stroke-width:0.264583"
       d="m 258.72578,85.465213 v 9.855826 h 6.51951 c 2.04121,0 3.69645,1.654493 3.69645,3.695763 v 8.428558 h 6.40622 v -8.428558 c 0,-2.04129 1.6545,-3.695763 3.69575,-3.695763 h 19.81794 c 1.56199,0 2.95572,0.982148 3.48107,2.453113 l 3.4538,9.671208 h 4.92862 l -3.19087,-8.933458 c -0.50352,-1.40987 0.35617,-2.939328 1.82235,-3.241919 1.14475,-0.236244 1.9657,-1.244401 1.9657,-2.413252 v -4.927913 c 0,-1.360858 -1.10275,-2.463618 -2.4636,-2.463605 z"
       id="path722" />
    <path
       style="fill:#cccccc;fill-rule:evenodd;stroke:none;stroke-width:0.264583"
       d="m 146.17196,85.465213 v 9.855826 h 8.96072 c 2.4555,0 4.22767,2.350043 3.55311,4.711121 l -2.11816,7.4132 h 6.40691 l 2.69787,-9.443948 c 0.45334,-1.586733 1.90363,-2.680373 3.55379,-2.680373 h 24.83746 c 2.45554,1.4e-5 4.2284,2.350083 3.55381,4.711121 l -2.11815,7.4132 h 6.4069 l 2.69787,-9.443948 c 0.45337,-1.58668 1.90366,-2.680373 3.55379,-2.680373 h 24.83746 c 2.45557,0 4.2284,2.350783 3.55381,4.711811 l -2.11816,7.41251 h 6.4062 l 2.69788,-9.443948 c 0.45335,-1.58668 1.90362,-2.680373 3.5538,-2.680373 h 3.64751 v -9.855826 z"
       id="path720" />
    <path
       style="fill:#cccccc;fill-rule:evenodd;stroke:none;stroke-width:0.264583"
       d="m 85.027967,85.465213 c -4.400513,0 -8.267893,2.916999 -9.476804,7.148156 l -4.238409,14.831991 h 13.799127 l 2.697869,-9.443948 c 0.453346,-1.58672 1.903615,-2.680373 3.553801,-2.680373 H 116.201 c 2.45554,2.7e-5 4.22839,2.350083 3.55381,4.711121 l -2.11816,7.4132 h 6.40621 l 2.69857,-9.443948 c 0.45334,-1.586733 1.9036,-2.680373 3.5538,-2.680373 h 7.88731 v -9.855826 z"
       id="path6" />
    <path
       style="fill:#cccccc;fill-opacity:1;stroke:none;stroke-width:5.99201;stroke-miterlimit:4;stroke-dasharray:17.976, 5.99201;stroke-dashoffset:0;stroke-opacity:1"
       d="M 31.506297,85.463766 H 69.337516 L 57.258607,129.80328 v 39.48362 h -25.75231 z"
       id="rect1576" />
    <path
       style="fill:#cccccc;fill-opacity:1;stroke:none;stroke-width:5.99201;stroke-miterlimit:4;stroke-dasharray:17.976, 5.99201;stroke-dashoffset:0;stroke-opacity:1"
       d="m 319.075,85.463766 h 7.93541 l 57.63412,38.556514 -56.51036,45.26662 v -39.42004 l -11.8237,-33.284789 z"
       id="rect1578" />
    <path
       id="path1615"
       style="font-style:normal;font-variant:normal;font-weight:bold;font-stretch:normal;font-size:29.7144px;line-height:125%;font-family:Tofino;-inkscape-font-specification:Tofino;letter-spacing:0px;word-spacing:0px;fill:#cccccc;fill-opacity:1;stroke:none;stroke-width:0.264583px;stroke-linecap:butt;stroke-linejoin:miter;stroke-opacity:1"
       d="m 132.33385,225.99902 c 0,5.68871 0.5327,8.26679 1.59807,10.59854 1.06537,2.33176 2.84434,3.49764 5.3369,3.49764 2.47249,0 4.24142,-1.16588 5.3068,-3.49764 1.06538,-2.33175 1.59809,-4.90983 1.59809,-10.59854 l 11.60863,0.0907 c 0,7.45761 -1.60813,11.78452 -4.82438,15.84499 -3.21624,4.04042 -7.77929,6.06062 -13.68914,6.06062 -5.92989,0 -10.50297,-2.0202 -13.7192,-6.06062 -3.21622,-4.06047 -4.82434,-8.38738 -4.82434,-15.84499 z m 13.82339,-4.11492 c -0.0971,-4.75278 -0.62437,-7.1382 -1.58162,-9.19717 -1.04527,-2.31167 -2.81421,-3.46749 -5.3068,-3.46749 -2.49256,0 -4.27153,1.15582 -5.3369,3.46749 -0.95801,2.0606 -1.48529,4.517 -1.58183,9.27576 l -11.58403,-0.0761 c 0.26852,-6.50326 1.86303,-10.83742 4.78356,-14.50633 3.21623,-4.0605 7.78931,-6.09074 13.7192,-6.09074 5.90985,0 10.4729,2.03024 13.68914,6.09074 3.03099,3.80764 4.63377,7.63781 4.80836,14.49822" />
    <path
       id="path3193"
       style="font-style:normal;font-variant:normal;font-weight:bold;font-stretch:normal;font-size:18.3016px;line-height:125%;font-family:Tofino;-inkscape-font-specification:Tofino;letter-spacing:0px;word-spacing:0px;fill:#cccccc;fill-opacity:1;stroke:none;stroke-width:0.264583px;stroke-linecap:butt;stroke-linejoin:miter;stroke-opacity:1"
       d="m 35.18845,45.444677 h 17.472367 v 3.695075 H 46.375336 V 64.4026 H 41.486629 V 49.139752 H 35.18845 Z" />
    <path
       id="path3325"
       style="font-style:normal;font-variant:normal;font-weight:bold;font-stretch:normal;font-size:18.3016px;line-height:125%;font-family:Tofino;-inkscape-font-specification:Tofino;letter-spacing:0px;word-spacing:0px;fill:#cccccc;fill-opacity:1;stroke:none;stroke-width:0.264583px;stroke-linecap:butt;stroke-linejoin:miter;stroke-opacity:1"
       d="m 64.330222,49.546091 c -0.44019,-0.372467 -1.17244,-0.55871 -2.19675,-0.55871 h -2.057057 v 0.6239 l -4.888708,0.01906 v -4.185628 h 7.466381 c 2.497264,0 4.325764,0.419031 5.485515,1.257085 0.87884,0.630467 1.427105,1.536416 1.644795,2.717845 z m 5.441613,2.534162 c -0.08426,0.983087 -0.285727,1.010666 -0.794166,1.68153 -0.60104,0.804197 -1.511048,1.396765 -2.730053,1.777708 0.668762,0.152358 1.265554,0.499439 1.790404,1.041221 0.533321,0.533315 1.07086,1.345964 1.612633,2.437976 l 2.653878,5.383912 h -5.20616 l -2.31102,-4.71091 C 64.321754,58.74358 63.847702,58.09599 63.36518,57.748909 62.891114,57.401837 62.256227,57.228301 61.460491,57.228301 H 60.076415 V 64.4026 H 55.187707 V 52.05097 l 4.793765,-0.09486 0.09494,1.894634 h 2.057057 c 1.024309,0 1.756559,-0.190464 2.19675,-0.571403 0.44866,-0.380929 0.672997,-0.255446 0.672997,-1.127367 z" />
    <path
       id="path3180-3-7"
       style="font-style:normal;font-variant:normal;font-weight:bold;font-stretch:normal;font-size:15.7056px;line-height:125%;font-family:Tofino;-inkscape-font-specification:Tofino;letter-spacing:0px;word-spacing:0px;fill:#cccccc;fill-opacity:1;stroke:none;stroke-width:0.264583px;stroke-linecap:butt;stroke-linejoin:miter;stroke-opacity:1"
       d="m 77.429802,52.272484 2.534508,-6.842665 h 5.847852 l 2.508018,6.771154 -4.575732,0.108068 -0.849833,-2.420144 -0.921238,2.514785 z m 3.674388,3.005985 -0.821364,2.178227 h 5.210835 l -0.778777,-2.072744 4.49429,-0.03099 3.648461,9.09815 H 87.92708 l -1.197605,-3.465381 h -7.669731 l -1.210337,3.465381 h -4.930541 l 3.596859,-9.234201 z" />
    <path
       id="path3180-3-7-5"
       style="font-style:normal;font-variant:normal;font-weight:bold;font-stretch:normal;font-size:15.7056px;line-height:125%;font-family:Tofino;-inkscape-font-specification:Tofino;letter-spacing:0px;word-spacing:0px;fill:#cccccc;fill-opacity:1;stroke:none;stroke-width:0.264583px;stroke-linecap:butt;stroke-linejoin:miter;stroke-opacity:1"
       d="m 285.60823,52.380023 2.5345,-6.842666 h 5.84785 l 2.50802,6.771154 -4.57573,0.108068 -0.84983,-2.420143 -0.92123,2.514785 z m 3.67437,3.005985 -0.82136,2.178227 h 5.21084 l -0.77878,-2.072744 4.49429,-0.03099 3.64846,9.09815 h -4.93055 l -1.19761,-3.465381 h -7.66974 l -1.21032,3.465381 h -4.93055 l 3.59687,-9.234202 z" />
    <path
       id="path3199"
       style="font-style:normal;font-variant:normal;font-weight:bold;font-stretch:normal;font-size:18.3016px;line-height:125%;font-family:Tofino;-inkscape-font-specification:Tofino;letter-spacing:0px;word-spacing:0px;fill:#cccccc;fill-opacity:1;stroke:none;stroke-width:0.264583px;stroke-linecap:butt;stroke-linejoin:miter;stroke-opacity:1"
       d="m 95.338599,45.444677 h 5.460111 l 6.89498,13.002621 V 45.444677 h 4.63476 V 64.4026 h -5.46012 L 99.973353,51.39997 V 64.4026 h -4.634754 z" />
    <path
       id="path3201"
       style="font-style:normal;font-variant:normal;font-weight:bold;font-stretch:normal;font-size:18.3016px;line-height:125%;font-family:Tofino;-inkscape-font-specification:Tofino;letter-spacing:0px;word-spacing:0px;fill:#cccccc;fill-opacity:1;stroke:none;stroke-width:0.264583px;stroke-linecap:butt;stroke-linejoin:miter;stroke-opacity:1"
       d="m 130.29604,46.04148 v 4.012522 q -1.56185,-0.69839 -3.04751,-1.053928 -1.48566,-0.35553 -2.80625,-0.35553 -1.75231,0 -2.59038,0.482515 -0.83806,0.482525 -0.83806,1.498336 0,0.761882 0.55871,1.193607 0.5714,0.419032 2.05706,0.723775 l 2.08246,0.419032 q 3.1618,0.634896 4.49508,1.930078 1.33328,1.295193 1.33328,3.682383 0,3.136388 -1.8666,4.672817 -1.8539,1.523737 -5.67598,1.523737 -1.8031,0 -3.6189,-0.342837 -1.81582,-0.342846 -3.63162,-1.015822 v -4.1268 q 1.8158,0.965036 3.50463,1.460244 1.70153,0.482525 3.27607,0.482525 1.59994,0 2.4507,-0.533311 0.85076,-0.533328 0.85076,-1.52375 0,-0.88884 -0.5841,-1.371377 -0.5714,-0.482516 -2.29832,-0.863455 l -1.892,-0.419036 q -2.84434,-0.609482 -4.16493,-1.942754 -1.30788,-1.333285 -1.30788,-3.593503 0,-2.831621 1.8285,-4.355371 1.82851,-1.523736 5.25695,-1.523736 1.56185,0 3.21258,0.241251 1.65073,0.228557 3.41575,0.698388 z" />
    <path
       id="path3203"
       style="font-style:normal;font-variant:normal;font-weight:bold;font-stretch:normal;font-size:18.3016px;line-height:125%;font-family:Tofino;-inkscape-font-specification:Tofino;letter-spacing:0px;word-spacing:0px;fill:#cccccc;fill-opacity:1;stroke:none;stroke-width:0.264583px;stroke-linecap:butt;stroke-linejoin:miter;stroke-opacity:1"
       d="m 135.83233,50.863151 v -5.418474 h 8.11398 c 2.41262,0 4.26227,0.537533 5.549,1.612629 1.12111,0.923234 1.75698,2.188984 1.90769,3.797225 l -5.04989,-0.06564 c -0.0936,-0.57453 -0.3372,-0.767457 -0.73073,-1.115825 -0.51639,-0.457124 -1.24864,-0.685682 -2.19676,-0.685682 h -2.70458 l -0.0672,1.909344 z m 4.88871,2.17958 v 1.23966 h 2.70465 c 0.94812,0 1.68037,-0.228557 2.19675,-0.685686 0.16732,-0.150855 0.28133,-0.257326 0.3675,-0.356417 l 5.41806,-0.17019 c -0.14117,1.498526 -0.77873,2.213817 -1.91269,3.155075 -1.28673,1.066607 -3.13638,1.599935 -5.549,1.599935 h -3.22527 V 64.4026 h -4.88871 V 52.987948 Z" />
    <path
       id="path3205"
       style="font-style:normal;font-variant:normal;font-weight:bold;font-stretch:normal;font-size:18.3016px;line-height:125%;font-family:Tofino;-inkscape-font-specification:Tofino;letter-spacing:0px;word-spacing:0px;fill:#cccccc;fill-opacity:1;stroke:none;stroke-width:0.264583px;stroke-linecap:butt;stroke-linejoin:miter;stroke-opacity:1"
       d="m 173.30396,55.694596 c 0,3.064411 -0.86346,4.716635 -2.59039,6.460484 -1.72691,1.743832 -4.11413,2.615744 -7.16163,2.615744 -3.03903,0 -5.42625,-0.871912 -7.16163,-2.615744 -1.72693,-1.743849 -2.59039,-3.396073 -2.59039,-6.460484 h 5.05379 c 0,1.989331 0.41056,2.782324 1.23169,3.882802 0.82113,1.100496 1.97665,1.650736 3.46654,1.650736 1.49836,0 2.6581,-0.55024 3.47924,-1.650736 0.82114,-1.100478 1.2317,-1.893471 1.2317,-3.882802 z m -19.38278,-2.653137 c 0.29279,-2.182692 1.11584,-3.95732 2.46913,-5.323871 1.73538,-1.743836 4.1226,-2.615747 7.16163,-2.615747 3.0475,0 5.43472,0.87191 7.16163,2.615747 1.39232,1.405961 2.22337,3.140136 2.49315,5.396486 l -5.06891,0.05552 c -0.17827,-1.166384 -0.54716,-2.124488 -1.10663,-2.874299 -0.82114,-1.100479 -1.98088,-1.650721 -3.47924,-1.650721 -1.48989,0 -2.64539,0.550252 -3.46654,1.650721 -0.54881,0.735494 -0.9142,1.671413 -1.09621,2.807749 z" />
    <path
       id="path3325-7"
       style="font-style:normal;font-variant:normal;font-weight:bold;font-stretch:normal;font-size:18.3016px;line-height:125%;font-family:Tofino;-inkscape-font-specification:Tofino;letter-spacing:0px;word-spacing:0px;fill:#cccccc;fill-opacity:1;stroke:none;stroke-width:0.264583px;stroke-linecap:butt;stroke-linejoin:miter;stroke-opacity:1"
       d="m 186.11749,49.678802 c -0.4402,-0.372468 -1.17245,-0.558711 -2.19675,-0.558711 h -2.05706 v 0.6239 l -4.88871,0.01906 v -4.185628 h 7.46638 c 2.49727,0 4.32577,0.419032 5.48551,1.257086 0.87884,0.630467 1.42712,1.536416 1.64481,2.717845 z m 5.4416,2.534163 c -0.0843,0.983087 -0.28573,1.010665 -0.79415,1.68153 -0.60105,0.804197 -1.51106,1.396764 -2.73006,1.777706 0.66876,0.152359 1.26555,0.499441 1.7904,1.041222 0.53332,0.533314 1.07086,1.345965 1.61264,2.437976 l 2.65387,5.383913 h -5.20616 l -2.31102,-4.71091 c -0.46559,-0.948111 -0.93965,-1.595701 -1.42217,-1.942782 -0.47407,-0.347072 -1.10895,-0.520608 -1.90468,-0.520608 h -1.38408 v 7.1743 h -4.88871 V 52.18368 l 4.79377,-0.09485 0.0949,1.894634 h 2.05707 c 1.0243,0 1.75654,-0.190465 2.19674,-0.571404 0.44866,-0.38093 0.673,-0.255446 0.673,-1.127366 z" />
    <path
       id="path3209"
       style="font-style:normal;font-variant:normal;font-weight:bold;font-stretch:normal;font-size:18.3016px;line-height:125%;font-family:Tofino;-inkscape-font-specification:Tofino;letter-spacing:0px;word-spacing:0px;fill:#cccccc;fill-opacity:1;stroke:none;stroke-width:0.264583px;stroke-linecap:butt;stroke-linejoin:miter;stroke-opacity:1"
       d="m 193.59527,45.444677 h 17.47237 v 3.695075 h -6.28549 V 64.4026 h -4.8887 V 49.139752 h -6.29818 z" />
    <path
       id="path3211"
       style="font-style:normal;font-variant:normal;font-weight:bold;font-stretch:normal;font-size:18.3016px;line-height:125%;font-family:Tofino;-inkscape-font-specification:Tofino;letter-spacing:0px;word-spacing:0px;fill:#cccccc;fill-opacity:1;stroke:none;stroke-width:0.264583px;stroke-linecap:butt;stroke-linejoin:miter;stroke-opacity:1"
       d="m 226.78769,46.04148 v 4.012522 q -1.56185,-0.69839 -3.04751,-1.053928 -1.48566,-0.35553 -2.80624,-0.35553 -1.75232,0 -2.59039,0.482515 -0.83805,0.482525 -0.83805,1.498336 0,0.761882 0.55869,1.193607 0.57143,0.419032 2.05708,0.723775 l 2.08247,0.419032 q 3.16178,0.634896 4.49506,1.930078 1.3333,1.295193 1.3333,3.682383 0,3.136388 -1.86661,4.672817 -1.85389,1.523737 -5.67598,1.523737 -1.80311,0 -3.6189,-0.342837 -1.81582,-0.342846 -3.63164,-1.015822 v -4.1268 q 1.81582,0.965036 3.50464,1.460244 1.70153,0.482525 3.27608,0.482525 1.59995,0 2.4507,-0.533311 0.85077,-0.533328 0.85077,-1.52375 0,-0.88884 -0.58412,-1.371377 -0.57139,-0.482516 -2.29832,-0.863455 l -1.89199,-0.419036 q -2.84435,-0.609482 -4.16493,-1.942754 -1.30789,-1.333285 -1.30789,-3.593503 0,-2.831621 1.82851,-4.355371 1.82851,-1.523736 5.25695,-1.523736 1.56184,0 3.21257,0.241251 1.65073,0.228557 3.41575,0.698388 z" />
    <path
       id="path3213"
       style="font-style:normal;font-variant:normal;font-weight:bold;font-stretch:normal;font-size:18.3016px;line-height:125%;font-family:Tofino;-inkscape-font-specification:Tofino;letter-spacing:0px;word-spacing:0px;fill:#cccccc;fill-opacity:1;stroke:none;stroke-width:0.264583px;stroke-linecap:butt;stroke-linejoin:miter;stroke-opacity:1"
       d="m 244.19178,46.865867 c 1.74515,-1.176028 3.95619,-1.764026 6.63311,-1.764026 1.26133,0 2.46763,0.118541 3.61892,0.355543 1.15974,0.237029 2.25176,0.588318 3.27606,1.053914 v 3.923647 c -1.05814,-0.601039 -2.11208,-1.049697 -3.16178,-1.345979 -1.04124,-0.296272 -2.08671,-0.444422 -3.13639,-0.444422 -1.45619,0 -2.66377,0.30542 -3.62277,0.916243 z m 1.82767,4.424574 c -0.5106,0.960965 -0.68007,2.159303 -0.68007,3.652247 0,1.130557 0.16129,2.115963 0.48387,2.956208 l -4.29377,2.276818 c -0.82926,-1.462857 -1.24389,-3.207192 -1.24389,-5.233026 0,-2.623345 0.69244,-4.766361 2.07734,-6.429021 z m 0.9861,8.584488 c 1.01584,1.092021 2.31675,1.353205 4.18758,1.353205 0.50791,0 0.97775,-0.02964 1.40948,-0.0889 0.4402,-0.06779 0.83383,-0.169329 1.18091,-0.304745 v -3.682391 h -2.98402 v -3.276044 h 7.61876 v 9.117122 c -1.219,0.592572 -2.48455,1.037003 -3.79669,1.333275 -1.31212,0.296283 -2.66656,0.444419 -4.06333,0.444419 -3.15755,0 -5.37423,-0.785442 -7.21966,-2.546193 z" />
    <path
       id="path3219"
       style="font-style:normal;font-variant:normal;font-weight:bold;font-stretch:normal;font-size:18.3016px;line-height:125%;font-family:Tofino;-inkscape-font-specification:Tofino;letter-spacing:0px;word-spacing:0px;fill:#cccccc;fill-opacity:1;stroke:none;stroke-width:0.264583px;stroke-linecap:butt;stroke-linejoin:miter;stroke-opacity:1"
       d="m 298.59456,45.444677 h 17.47237 v 3.695075 h -6.28549 V 64.4026 h -4.8887 V 49.139752 h -6.29818 z" />
    <path
       id="path3221"
       style="font-style:normal;font-variant:normal;font-weight:bold;font-stretch:normal;font-size:18.3016px;line-height:125%;font-family:Tofino;-inkscape-font-specification:Tofino;letter-spacing:0px;word-spacing:0px;fill:#cccccc;fill-opacity:1;stroke:none;stroke-width:0.264583px;stroke-linecap:butt;stroke-linejoin:miter;stroke-opacity:1"
       d="m 318.5938,45.444677 h 4.8887 v 11.364592 q 0,2.349097 0.76188,3.364932 0.77458,1.003133 2.5142,1.003133 1.75232,0 2.51419,-1.003133 0.77457,-1.015835 0.77457,-3.364932 V 45.444677 h 4.88872 v 11.364592 q 0,4.025229 -2.01898,5.9934 -2.01897,1.968155 -6.1585,1.968155 -4.12682,0 -6.1458,-1.968155 -2.01898,-1.968171 -2.01898,-5.9934 z" />
    <path
       id="path3223"
       style="font-style:normal;font-variant:normal;font-weight:bold;font-stretch:normal;font-size:18.3016px;line-height:125%;font-family:Tofino;-inkscape-font-specification:Tofino;letter-spacing:0px;word-spacing:0px;fill:#cccccc;fill-opacity:1;stroke:none;stroke-width:0.264583px;stroke-linecap:butt;stroke-linejoin:miter;stroke-opacity:1"
       d="m 339.71047,45.444677 h 4.88872 V 64.4026 h -4.88872 z" />
    <path
       id="path3225"
       style="font-style:normal;font-variant:normal;font-weight:bold;font-stretch:normal;font-size:18.3016px;line-height:125%;font-family:Tofino;-inkscape-font-specification:Tofino;letter-spacing:0px;word-spacing:0px;fill:#cccccc;fill-opacity:1;stroke:none;stroke-width:0.264583px;stroke-linecap:butt;stroke-linejoin:miter;stroke-opacity:1"
       d="m 347.12609,45.444677 h 17.47237 v 3.695075 h -6.28548 V 64.4026 h -4.88871 V 49.139752 h -6.29818 z" />
    <path
       id="path3227"
       style="font-style:normal;font-variant:normal;font-weight:bold;font-stretch:normal;font-size:18.3016px;line-height:125%;font-family:Tofino;-inkscape-font-specification:Tofino;letter-spacing:0px;word-spacing:0px;fill:#cccccc;fill-opacity:1;stroke:none;stroke-width:0.264583px;stroke-linecap:butt;stroke-linejoin:miter;stroke-opacity:1"
       d="m 380.31852,46.04148 v 4.012522 q -1.56186,-0.69839 -3.04754,-1.053928 -1.48565,-0.35553 -2.80624,-0.35553 -1.75231,0 -2.59036,0.482515 -0.83808,0.482525 -0.83808,1.498336 0,0.761882 0.55872,1.193607 0.5714,0.419032 2.05706,0.723775 l 2.08246,0.419032 q 3.1618,0.634896 4.49507,1.930078 1.33329,1.295193 1.33329,3.682383 0,3.136388 -1.8666,4.672817 -1.85389,1.523737 -5.67598,1.523737 -1.80311,0 -3.6189,-0.342837 -1.81582,-0.342846 -3.63164,-1.015822 v -4.1268 q 1.81582,0.965036 3.50465,1.460244 1.70152,0.482525 3.27607,0.482525 1.59994,0 2.4507,-0.533311 0.85077,-0.533328 0.85077,-1.52375 0,-0.88884 -0.58412,-1.371377 -0.57139,-0.482516 -2.29831,-0.863455 l -1.89201,-0.419036 q -2.84435,-0.609482 -4.16493,-1.942754 -1.30788,-1.333285 -1.30788,-3.593503 0,-2.831621 1.8285,-4.355371 1.82852,-1.523736 5.25696,-1.523736 1.56185,0 3.21257,0.241251 1.65073,0.228557 3.41577,0.698388 z" />
    <path
       d="m 176.08425,247.99612 -6.13191,-19.96438 h -0.1426 q 0.0356,0.71302 0.1069,2.13905 0.0713,1.42602 0.14261,3.06595 0.0713,1.60429 0.0713,2.92336 v 11.83602 h -4.81284 v -25.45458 h 7.34404 l 6.02496,19.46526 h 0.1069 l 6.38147,-19.46526 h 7.34403 v 25.45458 h -5.02674 v -12.04993 q 0,-1.21212 0.0356,-2.78075 0.0713,-1.56863 0.10691,-2.95901 0.0713,-1.42602 0.1069,-2.13903 h -0.1426 l -6.55971,19.92872 z"
       style="font-weight:bold;font-size:26.3452px;line-height:125%;font-family:Tofino;-inkscape-font-specification:Tofino;letter-spacing:0px;word-spacing:0px;fill:#cccccc;stroke-width:0.264583px"
       id="path649" />
    <path
       d="m 264.01333,229.72814 -0.38442,1.43951 h 7.85825 v 5.94902 h -9.29707 l -2.65631,10.59755 h -6.11503 l 2.65629,-10.59755 h -7.30483 l -2.65631,10.59755 h -6.17038 l 2.65631,-10.59755 h -7.71989 v -5.94902 h 9.07572 l 0.45323,-1.55268 6.16577,-0.1053 -0.44863,1.65798 h 7.30484 l 0.41092,-1.38038 z m -5.33643,-3.43782 0.69086,-2.70421 h -7.30484 l -0.63595,2.58015 -6.17367,-0.078 0.63925,-2.50219 h -7.83057 v -5.89368 h 9.3524 l 2.65631,-10.65288 h 6.17037 l -2.6563,10.65288 h 7.30485 l 2.68397,-10.65288 h 6.11503 l -2.68397,10.65288 h 7.66454 v 5.89368 h -9.13105 l -0.70881,2.81473 z"
       style="font-style:normal;font-variant:normal;font-weight:bold;font-stretch:normal;font-size:39.8807px;line-height:125%;font-family:Tofino;-inkscape-font-specification:Tofino;letter-spacing:0px;word-spacing:0px;fill:#cccccc;fill-opacity:1;stroke:none;stroke-width:0.264582px;stroke-linecap:butt;stroke-linejoin:miter;stroke-opacity:1"
       id="path3327" />
    <path
       id="path3180"
       style="font-style:normal;font-variant:normal;font-weight:bold;font-stretch:normal;font-size:15.7056px;line-height:125%;font-family:Tofino;-inkscape-font-specification:Tofino;letter-spacing:0px;word-spacing:0px;fill:#cccccc;fill-opacity:1;stroke:none;stroke-width:0.264583px;stroke-linecap:butt;stroke-linejoin:miter;stroke-opacity:1"
       d="m 282.91476,213.09599 2.07498,-5.55998 h 5.00162 l 2.17219,5.63561 -3.79646,0.19879 -0.87108,-2.02041 -0.86165,1.9613 z m 3.21233,2.22045 -0.86494,2.50615 h 4.4568 l -0.78788,-2.29412 3.96574,-0.0534 3.12051,8.32981 h -4.21707 l -1.0243,-2.96394 h -6.55988 l -1.03519,2.96394 h -4.21706 l 3.23877,-8.4593 z" />
    <path
       id="path3182"
       style="font-style:normal;font-variant:normal;font-weight:bold;font-stretch:normal;font-size:15.7056px;line-height:125%;font-family:Tofino;-inkscape-font-specification:Tofino;letter-spacing:0px;word-spacing:0px;fill:#cccccc;fill-opacity:1;stroke:none;stroke-width:0.264583px;stroke-linecap:butt;stroke-linejoin:miter;stroke-opacity:1"
       d="m 297.48838,207.53601 h 4.19525 v 9.75263 q 0,2.0159 0.65382,2.88764 0.6647,0.86085 2.15756,0.86085 1.50376,0 2.15756,-0.86085 0.66472,-0.87174 0.66472,-2.88764 v -9.75263 h 4.19526 v 9.75263 q 0,3.45429 -1.73259,5.14327 -1.7326,1.68902 -5.28495,1.68902 -3.54146,0 -5.27404,-1.68902 -1.73259,-1.68898 -1.73259,-5.14327 z" />
    <path
       id="path3184"
       style="font-style:normal;font-variant:normal;font-weight:bold;font-stretch:normal;font-size:15.7056px;line-height:125%;font-family:Tofino;-inkscape-font-specification:Tofino;letter-spacing:0px;word-spacing:0px;fill:#cccccc;fill-opacity:1;stroke:none;stroke-width:0.264583px;stroke-linecap:butt;stroke-linejoin:miter;stroke-opacity:1"
       d="m 328.51155,222.91138 q -1.15507,0.59933 -2.40818,0.90442 -1.25315,0.30513 -2.61525,0.30513 -4.06449,0 -6.44001,-2.26655 -2.37549,-2.27743 -2.37549,-6.16759 0,-3.90104 2.37549,-6.16757 2.37552,-2.27745 6.44001,-2.27745 1.3621,0 2.61525,0.30513 1.25311,0.30512 2.40818,0.90443 v 3.36711 q -1.16596,-0.79547 -2.29924,-1.16595 -1.13326,-0.37049 -2.38639,-0.37049 -2.24473,0 -3.53056,1.43837 -1.28583,1.43838 -1.28583,3.96642 0,2.51717 1.28583,3.95555 1.28583,1.43839 3.53056,1.43839 1.25313,0 2.38639,-0.3705 1.13328,-0.3705 2.29924,-1.16597 z" />
    <path
       id="path3186"
       style="font-style:normal;font-variant:normal;font-weight:bold;font-stretch:normal;font-size:15.7056px;line-height:125%;font-family:Tofino;-inkscape-font-specification:Tofino;letter-spacing:0px;word-spacing:0px;fill:#cccccc;fill-opacity:1;stroke:none;stroke-width:0.264583px;stroke-linecap:butt;stroke-linejoin:miter;stroke-opacity:1"
       d="m 331.98763,207.53601 h 4.19526 v 9.75263 q 0,2.0159 0.65381,2.88764 0.66471,0.86085 2.15756,0.86085 1.50375,0 2.15757,-0.86085 0.6647,-0.87174 0.6647,-2.88764 v -9.75263 h 4.19526 v 9.75263 q 0,3.45429 -1.73258,5.14327 -1.73259,1.68902 -5.28495,1.68902 -3.54145,0 -5.27404,-1.68902 -1.73259,-1.68898 -1.73259,-5.14327 z" />
    <path
       id="path3188"
       style="font-style:normal;font-variant:normal;font-weight:bold;font-stretch:normal;font-size:15.7056px;line-height:125%;font-family:Tofino;-inkscape-font-specification:Tofino;letter-spacing:0px;word-spacing:0px;fill:#cccccc;fill-opacity:1;stroke:none;stroke-width:0.264583px;stroke-linecap:butt;stroke-linejoin:miter;stroke-opacity:1"
       d="m 350.10901,207.53601 h 4.6856 l 5.91698,11.15832 v -11.15832 h 3.97732 v 16.26891 h -4.68562 l -5.91697,-11.15832 v 11.15832 h -3.97731 z" />
    <path
       id="path3190"
       style="font-style:normal;font-variant:normal;font-weight:bold;font-stretch:normal;font-size:15.7056px;line-height:125%;font-family:Tofino;-inkscape-font-specification:Tofino;letter-spacing:0px;word-spacing:0px;fill:#cccccc;fill-opacity:1;stroke:none;stroke-width:0.264583px;stroke-linecap:butt;stroke-linejoin:miter;stroke-opacity:1"
       d="m 368.78611,207.53601 h 11.32178 v 3.17096 h -7.12653 v 3.0293 h 6.70154 v 3.17098 h -6.70154 v 3.7267 h 7.36624 v 3.17097 h -11.56149 z" />
    <path
       d="m 287.61369,245.48712 h -9.17212 v -15.93405 h 9.17212 v 2.76726 h -5.80231 v 3.5037 h 5.40061 v 2.76726 h -5.40061 v 4.10626 h 5.80231 z"
       style="font-weight:bold;font-size:22.3166px;line-height:125%;font-family:Tofino;-inkscape-font-specification:Tofino;letter-spacing:0px;word-spacing:0px;fill:#cccccc;stroke-width:0.264583px"
       id="path1067" />
    <path
       d="m 303.81553,245.48712 h -3.86077 l -3.70456,-6.02548 -3.70455,6.02548 h -3.61529 l 5.28903,-8.21251 -4.95428,-7.72154 h 3.72687 l 3.43676,5.73537 3.3698,-5.73537 h 3.63761 l -4.99892,7.90008 z"
       style="font-weight:bold;font-size:22.3166px;line-height:125%;font-family:Tofino;-inkscape-font-specification:Tofino;letter-spacing:0px;word-spacing:0px;fill:#cccccc;stroke-width:0.264583px"
       id="path1069" />
    <path
       d="m 312.13961,232.14179 q -1.94154,0 -2.96811,1.45058 -1.02656,1.45058 -1.02656,3.97236 0,2.54409 0.9373,3.95004 0.95961,1.38363 3.05737,1.38363 0.98193,0 1.94154,-0.22317 0.98194,-0.22317 2.12008,-0.62486 v 2.8342 q -1.04888,0.42402 -2.07544,0.62487 -1.02657,0.20085 -2.29861,0.20085 -2.45483,0 -4.06162,-1.00425 -1.58448,-1.02656 -2.34325,-2.85652 -0.75876,-1.85228 -0.75876,-4.30711 0,-2.41019 0.87035,-4.26247 0.87034,-1.85228 2.52177,-2.90116 1.67375,-1.04888 4.08394,-1.04888 1.18278,0 2.36556,0.31244 1.2051,0.29011 2.29861,0.80339 l -1.09351,2.74494 q -0.89267,-0.42401 -1.80765,-0.73644 -0.89266,-0.31244 -1.76301,-0.31244 z"
       style="font-weight:bold;font-size:22.3166px;line-height:125%;font-family:Tofino;-inkscape-font-specification:Tofino;letter-spacing:0px;word-spacing:0px;fill:#cccccc;stroke-width:0.264583px"
       id="path1071" />
    <path
       d="m 332.55928,239.86334 q 0,1.65143 -0.73645,2.99042 -0.71413,1.31668 -2.18702,2.09776 -1.45058,0.75877 -3.68224,0.75877 -3.16896,0 -4.82039,-1.6068 -1.65143,-1.62911 -1.65143,-4.28479 v -10.26563 h 3.36981 v 9.75235 q 0,1.96386 0.8034,2.76726 0.8034,0.8034 2.38787,0.8034 1.65143,0 2.38788,-0.87035 0.75877,-0.87035 0.75877,-2.72262 v -9.73004 h 3.3698 z"
       style="font-weight:bold;font-size:22.3166px;line-height:125%;font-family:Tofino;-inkscape-font-specification:Tofino;letter-spacing:0px;word-spacing:0px;fill:#cccccc;stroke-width:0.264583px"
       id="path1073" />
    <path
       d="m 345.85999,241.06843 q 0,2.12008 -1.53985,3.39213 -1.51753,1.24973 -4.32942,1.24973 -2.52178,0 -4.50795,-0.95962 v -3.14664 q 1.13814,0.49097 2.34324,0.91498 1.22741,0.4017 2.43251,0.4017 1.24973,0 1.76301,-0.46865 0.5356,-0.49096 0.5356,-1.22741 0,-0.60255 -0.42402,-1.02656 -0.40169,-0.42402 -1.09351,-0.78108 -0.69181,-0.37939 -1.58448,-0.8034 -0.55791,-0.2678 -1.20509,-0.62487 -0.64719,-0.37938 -1.24973,-0.91498 -0.58024,-0.55791 -0.95962,-1.33899 -0.37938,-0.78108 -0.37938,-1.8746 0,-2.14239 1.45058,-3.32517 1.45058,-1.2051 3.95004,-1.2051 1.24973,0 2.36556,0.29012 1.13814,0.29011 2.36556,0.82571 l -1.09352,2.63336 q -1.09351,-0.44633 -1.96386,-0.69181 -0.87035,-0.24549 -1.78533,-0.24549 -0.95961,0 -1.47289,0.44634 -0.51328,0.44633 -0.51328,1.16046 0,0.84803 0.75876,1.339 0.75877,0.49096 2.25398,1.20509 1.22741,0.58023 2.07544,1.2051 0.87035,0.62486 1.339,1.47289 0.46865,0.84803 0.46865,2.09776 z"
       style="font-weight:bold;font-size:22.3166px;line-height:125%;font-family:Tofino;-inkscape-font-specification:Tofino;letter-spacing:0px;word-spacing:0px;fill:#cccccc;stroke-width:0.264583px"
       id="path1075" />
    <path
       d="m 357.93328,245.48712 h -9.17212 v -15.93405 h 9.17212 v 2.76726 h -5.80232 v 3.5037 h 5.40062 v 2.76726 h -5.40062 v 4.10626 h 5.80232 z"
       style="font-weight:bold;font-size:22.3166px;line-height:125%;font-family:Tofino;-inkscape-font-specification:Tofino;letter-spacing:0px;word-spacing:0px;fill:#cccccc;stroke-width:0.264583px"
       id="path1077" />
    <path
       id="path3325-6"
       style="font-style:normal;font-variant:normal;font-weight:bold;font-stretch:normal;font-size:18.3016px;line-height:125%;font-family:Tofino;-inkscape-font-specification:Tofino;letter-spacing:0px;word-spacing:0px;fill:#cccccc;fill-opacity:1;stroke:none;stroke-width:0.264583px;stroke-linecap:butt;stroke-linejoin:miter;stroke-opacity:1"
       d="m 271.90341,49.717686 c -0.4402,-0.372468 -1.17244,-0.55871 -2.19676,-0.55871 h -2.05705 v 0.6239 l -4.88872,0.01906 v -4.185629 h 7.46639 c 2.49726,0 4.32577,0.419033 5.48551,1.257087 0.87885,0.630467 1.42711,1.536415 1.6448,2.717844 z m 5.44161,2.534163 c -0.0843,0.983087 -0.28573,1.010666 -0.79417,1.68153 -0.60104,0.804197 -1.51105,1.396765 -2.73005,1.777708 0.66876,0.152357 1.26555,0.499439 1.7904,1.041221 0.53333,0.533314 1.07086,1.345964 1.61263,2.437975 l 2.65388,5.383913 h -5.20616 l -2.31101,-4.71091 c -0.46561,-0.948111 -0.93965,-1.5957 -1.42218,-1.942782 -0.47407,-0.347071 -1.10896,-0.520607 -1.90469,-0.520607 h -1.38407 v 7.174299 h -4.88872 v -12.35163 l 4.79377,-0.09486 0.095,1.894634 h 2.05705 c 1.02431,0 1.75656,-0.190465 2.19676,-0.571404 0.44865,-0.380928 0.67299,-0.255446 0.67299,-1.127366 z" />
    <path
       d="m 86.467271,225.99902 c 0,5.68871 0.532688,8.26679 1.598067,10.59854 1.065373,2.33176 2.844347,3.49764 5.336925,3.49764 2.472475,0 4.2414,-1.16588 5.30677,-3.49764 1.06538,-2.33175 1.598067,-4.90983 1.598067,-10.59854 l 11.60857,0.0907 c 0,7.45761 -1.60811,11.78452 -4.82434,15.84499 -3.21623,4.04042 -7.779247,6.06062 -13.689067,6.06062 -5.92992,0 -10.502995,-2.0202 -13.719223,-6.06062 -3.216227,-4.06047 -4.82434,-8.38738 -4.82434,-15.84499 z m 13.823359,-4.11492 c -0.0972,-4.75278 -0.624357,-7.1382 -1.581597,-9.19717 -1.04527,-2.31167 -2.814193,-3.46749 -5.30677,-3.46749 -2.492578,0 -4.271552,1.15582 -5.336925,3.46749 -0.958008,2.0606 -1.485288,4.517 -1.581835,9.27576 l -11.584023,-0.0761 c 0.268511,-6.50326 1.863032,-10.83742 4.78356,-14.50633 3.216228,-4.0605 7.789303,-6.09074 13.719223,-6.09074 5.90982,0 10.472837,2.03024 13.689067,6.09074 3.03096,3.80764 4.63374,7.63781 4.80833,14.49822"
       style="font-style:normal;font-variant:normal;font-weight:bold;font-stretch:normal;font-size:29.7144px;line-height:125%;font-family:Tofino;-inkscape-font-specification:Tofino;letter-spacing:0px;word-spacing:0px;fill:#cccccc;fill-opacity:1;stroke:none;stroke-width:0.264583px;stroke-linecap:butt;stroke-linejoin:miter;stroke-opacity:1"
       id="path880" />
    <path
       style="fill:#cccccc;fill-rule:evenodd;stroke:none;stroke-width:0.264583"
       d="m 265.04845,153.40002 c -0.0813,9e-5 -0.16278,9.5e-4 -0.244,0.003 -7.79716,0.13644 -14.88578,6.41147 -14.88578,15.14197 6e-5,11.64068 12.60188,18.91579 22.68304,13.09549 10.08108,-5.82037 10.08108,-20.37125 0,-26.19158 -2.44154,-1.40963 -5.03087,-2.05096 -7.55326,-2.04831 z"
       id="path734" />
  </g>
</svg>
