<?xml version="1.0" encoding="UTF-8" standalone="no"?>
<!-- Created with Inkscape (http://www.inkscape.org/) -->

<svg
   xmlns:dc="http://purl.org/dc/elements/1.1/"
   xmlns:cc="http://creativecommons.org/ns#"
   xmlns:rdf="http://www.w3.org/1999/02/22-rdf-syntax-ns#"
   xmlns:svg="http://www.w3.org/2000/svg"
   xmlns="http://www.w3.org/2000/svg"
   xmlns:sodipodi="http://sodipodi.sourceforge.net/DTD/sodipodi-0.dtd"
   xmlns:inkscape="http://www.inkscape.org/namespaces/inkscape"
   width="148mm"
   height="105mm"
   viewBox="0 0 148 105"
   version="1.1"
   id="svg8"
   inkscape:version="0.92.5 (2060ec1f9f, 2020-04-08)"
   sodipodi:docname="sacs-noirs-red.svg"
   inkscape:export-filename="/home/nfroidure/Desktop/sacs-noirs.png"
   inkscape:export-xdpi="120"
   inkscape:export-ydpi="120">
  <defs
     id="defs2" />
  <sodipodi:namedview
     id="base"
     pagecolor="#ffffff"
     bordercolor="#666666"
     borderopacity="1.0"
     inkscape:pageopacity="0.0"
     inkscape:pageshadow="2"
     inkscape:zoom="1.4"
     inkscape:cx="187.3714"
     inkscape:cy="239.02016"
     inkscape:document-units="mm"
     inkscape:current-layer="layer1"
     showgrid="false"
     inkscape:window-width="1855"
     inkscape:window-height="1056"
     inkscape:window-x="65"
     inkscape:window-y="24"
     inkscape:window-maximized="1" />
  <metadata
     id="metadata5">
    <rdf:RDF>
      <cc:Work
         rdf:about="">
        <dc:format>image/svg+xml</dc:format>
        <dc:type
           rdf:resource="http://purl.org/dc/dcmitype/StillImage" />
        <dc:title />
      </cc:Work>
    </rdf:RDF>
  </metadata>
  <g
     inkscape:label="Layer 1"
     inkscape:groupmode="layer"
     id="layer1"
     transform="translate(0,-192)">
    <rect
       style="opacity:1;fill:#e2f705;fill-opacity:1;stroke:none;stroke-width:6.66499996;stroke-miterlimit:4;stroke-dasharray:none;stroke-dashoffset:0;stroke-opacity:1"
       id="rect828"
       width="148"
       height="105"
       x="0"
       y="192" />
    <path
       inkscape:connector-curvature="0"
       id="path842"
       d="m 124.82608,243.4417 c -1.3968,1.44034 -2.73028,2.31118 -3.86649,2.45056 -1.13619,0.13938 -2.30587,-0.27692 -3.83999,-2.09058 l -1.88086,1.24018 3.18108,6.36301 c -6.39816,5.84722 -11.26513,11.0818 -12.82412,16.34262 -0.80642,2.7213 -0.65994,5.49285 0.68996,8.09233 1.3499,2.5995 3.82391,5.01105 7.54625,7.35603 l 0.18072,0.11433 0.21053,0.0406 c 5.40617,1.03321 10.48972,0.67235 15.39039,-0.14697 l 0.37386,-0.0628 0.26144,-0.27448 c 5.6634,-5.95684 7.3609,-11.79217 5.68795,-17.1657 -1.50678,-4.83977 -5.58577,-9.14918 -11.26742,-13.20128 l -0.41754,-2.15949 -0.0787,0.0153 2.50562,-5.66496 z"
       style="color:#000000;font-style:normal;font-variant:normal;font-weight:normal;font-stretch:normal;font-size:medium;line-height:normal;font-family:sans-serif;font-variant-ligatures:normal;font-variant-position:normal;font-variant-caps:normal;font-variant-numeric:normal;font-variant-alternates:normal;font-feature-settings:normal;text-indent:0;text-align:start;text-decoration:none;text-decoration-line:none;text-decoration-style:solid;text-decoration-color:#000000;letter-spacing:normal;word-spacing:normal;text-transform:none;writing-mode:lr-tb;direction:ltr;text-orientation:mixed;dominant-baseline:auto;baseline-shift:baseline;text-anchor:start;white-space:normal;shape-padding:0;clip-rule:nonzero;display:inline;overflow:visible;visibility:visible;opacity:1;isolation:auto;mix-blend-mode:normal;color-interpolation:sRGB;color-interpolation-filters:linearRGB;solid-color:#000000;solid-opacity:1;vector-effect:none;fill:#666666;fill-opacity:1;fill-rule:evenodd;stroke:none;stroke-width:5.66499996;stroke-linecap:butt;stroke-linejoin:miter;stroke-miterlimit:4;stroke-dasharray:none;stroke-dashoffset:0;stroke-opacity:1;color-rendering:auto;image-rendering:auto;shape-rendering:auto;text-rendering:auto;enable-background:accumulate"
       sodipodi:nodetypes="ccccccccccccccccccc" />
    <path
       style="color:#000000;font-style:normal;font-variant:normal;font-weight:normal;font-stretch:normal;font-size:medium;line-height:normal;font-family:sans-serif;font-variant-ligatures:normal;font-variant-position:normal;font-variant-caps:normal;font-variant-numeric:normal;font-variant-alternates:normal;font-feature-settings:normal;text-indent:0;text-align:start;text-decoration:none;text-decoration-line:none;text-decoration-style:solid;text-decoration-color:#000000;letter-spacing:normal;word-spacing:normal;text-transform:none;writing-mode:lr-tb;direction:ltr;text-orientation:mixed;dominant-baseline:auto;baseline-shift:baseline;text-anchor:start;white-space:normal;shape-padding:0;clip-rule:nonzero;display:inline;overflow:visible;visibility:visible;opacity:1;isolation:auto;mix-blend-mode:normal;color-interpolation:sRGB;color-interpolation-filters:linearRGB;solid-color:#000000;solid-opacity:1;vector-effect:none;fill:#000000;fill-opacity:1;fill-rule:evenodd;stroke:none;stroke-width:5.66499996;stroke-linecap:butt;stroke-linejoin:miter;stroke-miterlimit:4;stroke-dasharray:none;stroke-dashoffset:0;stroke-opacity:1;color-rendering:auto;image-rendering:auto;shape-rendering:auto;text-rendering:auto;enable-background:accumulate"
       d="m 124.82608,243.4417 c -1.3968,1.44034 -2.73028,2.31118 -3.86649,2.45056 -1.13619,0.13938 -2.30587,-0.27692 -3.83999,-2.09058 l -1.88086,1.24018 3.18108,6.36301 c -6.39816,5.84722 -11.26513,11.0818 -12.82412,16.34262 -0.80642,2.7213 -0.65994,5.49285 0.68996,8.09233 1.3499,2.5995 3.82391,5.01105 7.54625,7.35603 l 0.18072,0.11433 0.21053,0.0406 c 5.40617,1.03321 10.48972,0.67235 15.39039,-0.14697 l 0.37386,-0.0628 0.26144,-0.27448 c 5.6634,-5.95684 7.3609,-11.79217 5.68795,-17.1657 -1.50678,-4.83977 -5.58577,-9.14918 -11.26742,-13.20128 l -0.41754,-2.15949 -0.0787,0.0153 2.50562,-5.66496 z m -1.94732,4.22957 -1.30953,2.96 -1.10603,-0.21424 -1.24536,-2.49051 c 0.67358,0.19325 1.3487,0.30028 2.01791,0.21819 0.57329,-0.0704 1.11538,-0.24722 1.64301,-0.47344 z m -2.90721,5.37082 0.2865,0.0555 -5.22507,11.79114 2.44102,1.0812 4.68417,-10.5698 4.68499,10.5698 2.44104,-1.0812 -4.07577,-9.1959 c 4.4472,3.48145 7.43495,7.06289 8.56183,10.68243 1.38981,4.46409 0.17851,9.16658 -4.91809,14.64391 -4.56239,0.73767 -9.15391,1.02164 -13.99288,0.13006 -3.39118,-2.16726 -5.49193,-4.29923 -6.55965,-6.35532 -1.08859,-2.09627 -1.20201,-4.1303 -0.52891,-6.40172 1.30491,-4.4034 5.86726,-9.554 12.20082,-15.35002 z"
       id="path815"
       inkscape:connector-curvature="0" />
    <path
       inkscape:connector-curvature="0"
       id="path850"
       d="m 107.88006,258.21231 c -2.66874,-0.0105 -9.22856,11.24744 -7.90339,13.56396 1.32515,2.31652 14.35484,2.36848 15.69844,0.0625 1.34359,-2.30585 -5.1263,-13.61591 -7.79505,-13.62654 z"
       style="opacity:1;fill:#ff0000;fill-opacity:1;stroke:none;stroke-width:6.66500092;stroke-miterlimit:4;stroke-dasharray:none;stroke-dashoffset:0;stroke-opacity:1"
       sodipodi:nodetypes="csccc" />
    <path
       style="opacity:1;fill:#000000;fill-opacity:1;stroke:none;stroke-width:6.66500092;stroke-miterlimit:4;stroke-dasharray:none;stroke-dashoffset:0;stroke-opacity:1"
       d="m 107.88006,258.21231 c -2.66874,-0.0105 -9.22856,11.24744 -7.90339,13.56396 1.32515,2.31652 14.35484,2.36848 15.69844,0.0625 1.34359,-2.30585 -5.1263,-13.61591 -7.79505,-13.62654 z m -0.0165,2.71319 c 1.79919,0.008 6.16099,7.63197 5.2552,9.18652 -0.90581,1.55454 -9.69009,1.5195 -10.58345,-0.0423 -0.89339,-1.56172 3.52908,-9.15146 5.32825,-9.1443 z m -0.32523,1.50964 c -0.20877,0.005 -0.38069,0.0798 -0.51576,0.22724 -0.14333,0.14729 -0.21088,0.32538 -0.20268,0.53411 l 0.19038,3.67787 c 0.0118,0.19237 0.086,0.3519 0.22105,0.47879 0.1473,0.12679 0.31718,0.1904 0.50957,0.1904 0.19239,0 0.36022,-0.0636 0.50349,-0.1904 0.13098,-0.12692 0.20467,-0.28642 0.22104,-0.47879 l 0.19028,-3.67787 c 0.0164,-0.20873 -0.0511,-0.38676 -0.20257,-0.53411 -0.13508,-0.15143 -0.30701,-0.22724 -0.51576,-0.22724 z m 0.20876,5.82674 c -0.29063,0 -0.54033,0.10647 -0.74909,0.3193 -0.20875,0.20875 -0.3132,0.45635 -0.3132,0.74288 0,0.28653 0.1045,0.53215 0.3132,0.73681 0.20876,0.20466 0.45846,0.30701 0.74909,0.30701 0.29471,0 0.53824,-0.10437 0.73062,-0.31309 0.20874,-0.20059 0.31308,-0.44619 0.31308,-0.73681 0,-0.29471 -0.10436,-0.54233 -0.31308,-0.7429 -0.19647,-0.20875 -0.44,-0.3132 -0.73062,-0.3132 z"
       id="path836"
       inkscape:connector-curvature="0" />
    <text
       xml:space="preserve"
       style="font-style:normal;font-variant:normal;font-weight:normal;font-stretch:normal;font-size:11.28888893px;line-height:125%;font-family:Tofino;-inkscape-font-specification:Tofino;letter-spacing:0px;word-spacing:0px;fill:#000000;fill-opacity:1;stroke:none;stroke-width:0.26458332px;stroke-linecap:butt;stroke-linejoin:miter;stroke-opacity:1"
       x="12.294397"
       y="226.70811"
       id="text854"><tspan
         sodipodi:role="line"
         x="12.294397"
         y="236.69614"
         style="stroke-width:0.26458332px"
         id="tspan858" /></text>
    <text
       xml:space="preserve"
       style="font-style:normal;font-variant:normal;font-weight:normal;font-stretch:normal;font-size:11.08277035px;line-height:125%;font-family:Tofino;-inkscape-font-specification:Tofino;letter-spacing:0px;word-spacing:0px;fill:#333333;fill-opacity:1;stroke:none;stroke-width:0.26458332px;stroke-linecap:butt;stroke-linejoin:miter;stroke-opacity:1;"
       x="12.630819"
       y="209.57854"
       id="text862"><tspan
         sodipodi:role="line"
         id="tspan860"
         x="12.630819"
         y="209.57854"
         style="font-style:normal;font-variant:normal;font-weight:bold;font-stretch:normal;font-family:Impact;-inkscape-font-specification:'Impact Bold';fill:#333333;stroke-width:0.26458332px;fill-opacity:1;">Respectons notre quartier !</tspan></text>
    <flowRoot
       xml:space="preserve"
       id="flowRoot879"
       style="font-style:normal;font-variant:normal;font-weight:normal;font-stretch:normal;font-size:26.66666794px;line-height:125%;font-family:Tofino;-inkscape-font-specification:Tofino;letter-spacing:0px;word-spacing:0px;fill:#333333;fill-opacity:1;stroke:none;stroke-width:1px;stroke-linecap:butt;stroke-linejoin:miter;stroke-opacity:1;"
       transform="matrix(0.26458333,0,0,0.26458333,0,187.23747)"><flowRegion
         id="flowRegion881"
         style="fill:#333333;fill-opacity:1;"><rect
           id="rect883"
           width="468.71078"
           height="112.12693"
           x="48.487324"
           y="118.0483"
           style="fill:#333333;fill-opacity:1;" /></flowRegion><flowPara
         id="flowPara885"
         style="font-style:normal;font-variant:normal;font-weight:normal;font-stretch:normal;font-family:Georgia;-inkscape-font-specification:Georgia;fill:#333333;fill-opacity:1;">Le conseil de Quartier vous informe que les <flowSpan
   style="font-weight:bold"
   id="flowSpan843">sacs noirs</flowSpan> c'est :</flowPara><flowPara
         id="flowPara887"
         style="font-style:normal;font-variant:normal;font-weight:normal;font-stretch:normal;font-family:Georgia;-inkscape-font-specification:Georgia;fill:#333333;fill-opacity:1;" /><flowPara
         id="flowPara889"
         style="font-style:normal;font-variant:normal;font-weight:normal;font-stretch:normal;font-family:Georgia;-inkscape-font-specification:Georgia;fill:#333333;fill-opacity:1;" /><flowPara
         id="flowPara891"
         style="font-style:normal;font-variant:normal;font-weight:normal;font-stretch:normal;font-family:Georgia;-inkscape-font-specification:Georgia;fill:#333333;fill-opacity:1;" /></flowRoot>    <rect
       style="opacity:1;fill:#ffffff;fill-opacity:1;stroke:#000000;stroke-width:1.5;stroke-miterlimit:4;stroke-dasharray:none;stroke-dashoffset:0;stroke-opacity:1"
       id="rect895"
       width="5"
       height="5"
       x="13.096"
       y="245.90605" />
    <text
       xml:space="preserve"
       style="font-style:normal;font-variant:normal;font-weight:normal;font-stretch:normal;font-size:7.05555534px;line-height:125%;font-family:Georgia;-inkscape-font-specification:Georgia;letter-spacing:0px;word-spacing:0px;fill:#000000;fill-opacity:1;stroke:none;stroke-width:0.26458332px;stroke-linecap:butt;stroke-linejoin:miter;stroke-opacity:1;"
       x="24.9897"
       y="250.81079"
       id="text899"><tspan
         sodipodi:role="line"
         id="tspan897"
         x="24.9897"
         y="250.81079"
         style="font-style:normal;font-variant:normal;font-weight:normal;font-stretch:normal;font-family:Georgia;-inkscape-font-specification:Georgia;fill:#000000;stroke-width:0.26458332px;fill-opacity:1;">Lundi/Vendredi après 18h</tspan></text>
    <rect
       y="257.01843"
       x="13.096"
       height="5"
       width="5"
       id="rect901"
       style="opacity:1;fill:#ffffff;fill-opacity:1;stroke:#000000;stroke-width:1.5;stroke-miterlimit:4;stroke-dasharray:none;stroke-dashoffset:0;stroke-opacity:1" />
    <text
       id="text905"
       y="261.92331"
       x="24.9897"
       style="font-style:normal;font-variant:normal;font-weight:normal;font-stretch:normal;font-size:7.05555534px;line-height:125%;font-family:Georgia;-inkscape-font-specification:Georgia;letter-spacing:0px;word-spacing:0px;fill:#000000;fill-opacity:1;stroke:none;stroke-width:0.26458332px;stroke-linecap:butt;stroke-linejoin:miter;stroke-opacity:1;"
       xml:space="preserve"><tspan
         style="font-style:normal;font-variant:normal;font-weight:normal;font-stretch:normal;font-family:Georgia;-inkscape-font-specification:Georgia;fill:#000000;stroke-width:0.26458332px;fill-opacity:1;"
         y="261.92331"
         x="24.9897"
         id="tspan903"
         sodipodi:role="line">Mardi/Jeudi/Samedi</tspan><tspan
         style="font-style:normal;font-variant:normal;font-weight:normal;font-stretch:normal;font-family:Georgia;-inkscape-font-specification:Georgia;fill:#000000;stroke-width:0.26458332px;fill-opacity:1;"
         y="270.74277"
         x="24.9897"
         sodipodi:role="line"
         id="tspan841">après 18h</tspan></text>
    <flowRoot
       transform="matrix(0.26458333,0,0,0.26458333,0,247.56285)"
       style="font-style:normal;font-variant:normal;font-weight:normal;font-stretch:normal;font-size:18.66666603px;line-height:125%;font-family:Tofino;-inkscape-font-specification:Tofino;letter-spacing:0px;word-spacing:0px;fill:#000000;fill-opacity:1;stroke:none;stroke-width:1px;stroke-linecap:butt;stroke-linejoin:miter;stroke-opacity:1;"
       id="flowRoot933"
       xml:space="preserve"><flowRegion
         id="flowRegion923"
         style="fill:#000000;fill-opacity:1;"><rect
           y="118.0483"
           x="48.487324"
           height="112.12693"
           width="468.71078"
           id="rect921"
           style="fill:#000000;fill-opacity:1;" /></flowRegion><flowPara
         style="font-style:normal;font-variant:normal;font-weight:normal;font-stretch:normal;font-family:Georgia;-inkscape-font-specification:Georgia;fill:#000000;fill-opacity:1;"
         id="flowPara925">Un avis, une info ? Contactez :</flowPara><flowPara
         style="font-style:normal;font-variant:normal;font-weight:bold;font-stretch:normal;font-family:Georgia;-inkscape-font-specification:Georgia;fill:#000000;fill-opacity:1;"
         id="flowPara935">conseilquartierbarletcambrai@gmail.com</flowPara><flowPara
         style="font-style:normal;font-variant:normal;font-weight:normal;font-stretch:normal;font-family:Georgia;-inkscape-font-specification:Georgia;fill:#000000;fill-opacity:1;"
         id="flowPara927" /><flowPara
         style="font-style:normal;font-variant:normal;font-weight:normal;font-stretch:normal;font-family:Georgia;-inkscape-font-specification:Georgia;fill:#000000;fill-opacity:1;"
         id="flowPara929" /><flowPara
         style="font-style:normal;font-variant:normal;font-weight:normal;font-stretch:normal;font-family:Georgia;-inkscape-font-specification:Georgia;fill:#000000;fill-opacity:1;"
         id="flowPara931" /></flowRoot>  </g>
</svg>
