<?xml version="1.0" encoding="UTF-8" standalone="no"?>
<svg
   xmlns:dc="http://purl.org/dc/elements/1.1/"
   xmlns:cc="http://creativecommons.org/ns#"
   xmlns:rdf="http://www.w3.org/1999/02/22-rdf-syntax-ns#"
   xmlns:svg="http://www.w3.org/2000/svg"
   xmlns="http://www.w3.org/2000/svg"
   id="svg8"
   version="1.1"
   viewBox="0 0 270.93333 203.2"
   height="768"
   width="1024">
  <title
     id="title844">Quartier Barlet-Centre-Faubourg de Cambrai de Douai</title>
  <defs
     id="defs2">
    <filter
       height="1.1340904"
       y="-0.067045198"
       width="1.1447144"
       x="-0.072357221"
       id="filter978"
       style="color-interpolation-filters:sRGB">
      <feGaussianBlur
         id="feGaussianBlur980"
         stdDeviation="2.0032884" />
    </filter>
  </defs>
  <metadata
     id="metadata5">
    <rdf:RDF>
      <cc:Work
         rdf:about="">
        <dc:format>image/svg+xml</dc:format>
        <dc:type
           rdf:resource="http://purl.org/dc/dcmitype/StillImage" />
        <dc:title>Quartier Barlet-Centre-Faubourg de Cambrai de Douai</dc:title>
        <dc:description>Carte de la Ville de Douai et ses quartiers avec le quartier Barlet-Centre-Faubourg de Cambrai mis en évidence.</dc:description>
        <dc:creator>
          <cc:Agent>
            <dc:title>Nicolas Froidure</dc:title>
          </cc:Agent>
        </dc:creator>
        <dc:language>FR</dc:language>
        <cc:license
           rdf:resource="http://creativecommons.org/licenses/by-nc/4.0/" />
      </cc:Work>
      <cc:License
         rdf:about="http://creativecommons.org/licenses/by-nc/4.0/">
        <cc:permits
           rdf:resource="http://creativecommons.org/ns#Reproduction" />
        <cc:permits
           rdf:resource="http://creativecommons.org/ns#Distribution" />
        <cc:requires
           rdf:resource="http://creativecommons.org/ns#Notice" />
        <cc:requires
           rdf:resource="http://creativecommons.org/ns#Attribution" />
        <cc:prohibits
           rdf:resource="http://creativecommons.org/ns#CommercialUse" />
        <cc:permits
           rdf:resource="http://creativecommons.org/ns#DerivativeWorks" />
      </cc:License>
    </rdf:RDF>
  </metadata>
  <g
     transform="translate(0,-93.800004)"
     id="layer1">
    <path
       id="path1040"
       d="m 206.76006,107.21553 c -2.4486,0.17526 -4.89716,0.35127 -7.3458,0.52607 -1.32233,1.85113 -2.29346,4.06752 -4.53338,4.96461 -2.86934,1.93699 -6.07581,3.48096 -8.74247,5.6542 -2.62877,2.99881 -4.98605,6.28113 -8.37234,8.48887 -2.71644,1.94685 -5.13142,4.41787 -8.03782,6.03442 -3.78496,1.50018 -7.56993,3.00035 -11.35489,4.50052 -9.33563,-3.08073 -19.27153,-3.46605 -29.02097,-3.44113 -1.31863,-1.31059 -2.36189,-3.05356 -4.38107,-3.26487 -1.78931,-0.40023 -3.57034,-1.58068 -5.36449,-1.52589 -3.56389,0.9791 -7.03608,2.4558 -10.65733,3.12355 -4.21795,0.30419 -8.48512,0.44975 -12.673176,0.8502 -1.32604,1.4587 -2.96023,0.34337 -4.5088,-0.0568 -3.22809,-0.99533 -6.45582,-1.99185 -9.68413,-2.98645 -0.28389,1.09601 -2.97696,2.99252 -1.11819,3.37899 2.37179,0.0955 1.77772,2.58168 -0.40625,1.80813 -2.103558,0.12861 -4.336853,-0.28405 -6.366197,0.15424 -1.914625,0.84723 -3.766431,2.20647 -5.718566,2.74799 -1.695881,-0.18149 -3.132103,-0.8484 -4.199943,-2.204 -0.934773,-1.80342 -2.43509,-0.2612 -3.819999,-0.0976 -2.970368,-0.0411 -5.940738,-0.0823 -8.911108,-0.12346 -3.820416,-3.91744 -7.641015,-7.8347 -11.461316,-11.75225 -1.337042,2.06849 -2.674004,4.13704 -4.010608,6.20582 1.637957,2.61996 2.898616,5.5414 5.455209,7.4276 1.764797,1.87177 3.973119,3.43064 5.460678,5.498 2.177209,4.86162 4.354418,9.72324 6.531627,14.58487 -0.200677,2.1835 -0.401354,4.367 -0.60203,6.5505 -1.910253,-0.13715 -2.952118,0.5689 -2.64689,2.58039 -1.866718,0.26015 -2.395061,1.29387 -1.713967,3.04591 0.340163,1.52167 0.51585,3.1428 0.0079,4.45753 0.799541,1.38373 1.889206,2.76413 0.51866,4.17292 -0.505957,1.46826 -1.953113,2.86314 -1.846039,4.37918 0.526999,1.61619 0.990692,3.25693 1.785498,4.76884 -1.07761,0.83948 -3.527544,0.63698 -3.546377,2.28029 0.263515,2.03365 -2.336136,1.80875 -3.629936,2.61395 -2.143252,0.81901 -4.254891,1.74821 -6.555148,2.01852 0.04326,2.29436 -0.496565,4.719 -0.102162,6.93507 0.370053,1.36939 2.407316,3.18944 1.639376,4.25123 -2.282677,0.62477 -0.0753,2.42328 0.394023,3.76777 1.447013,1.51823 -1.947131,2.2288 0.874682,3.08925 1.43452,1.51621 3.251611,-0.31433 4.891052,-0.59302 1.028763,1.64552 1.061025,2.78357 -1.219254,2.35126 -2.302953,0.15329 -4.191589,1.88458 -6.325511,2.68176 -1.957221,0.45216 0.438456,2.37016 0.607862,3.53828 2.209902,4.54777 4.428904,9.09042 7.306422,13.26364 0.921089,0.98474 1.372238,3.14776 2.578338,3.41759 5.243608,-1.34893 10.487216,-2.69786 15.730824,-4.04678 0.74631,2.08154 2.11391,-0.96698 3.177413,-1.50179 1.087954,-1.33909 2.71717,0.83739 4.047469,1.07236 -3.04764,6.51815 -6.095802,13.03605 -9.143111,19.55436 1.510951,0.83969 3.022224,1.6788 4.533056,2.51871 0.324919,-1.89364 1.814034,-2.14791 3.502059,-2.12293 1.25662,-0.20279 1.862013,1.43832 2.725984,2.14618 0.857792,1.02155 1.692158,2.06135 2.561084,3.07371 0.752465,-1.72803 2.287813,-1.67463 3.91727,-1.40754 1.192702,0.70754 1.345325,2.89041 2.135266,4.16925 1.5708,3.42443 2.52806,7.19152 5.07097,10.07269 0.8049,1.67819 2.66477,2.21498 4.0983,3.2132 -0.98859,1.51721 -1.97696,3.03456 -2.96571,4.55166 4.20612,1.12334 8.37536,2.5347 12.60382,3.48521 4.134386,0.0412 8.311106,-0.4647 12.418436,-0.0735 1.15292,-0.0984 4.05766,1.34683 4.08252,0.25413 -1.5446,-4.80231 -2.94338,-9.69277 -4.57651,-14.44137 -1.76044,-1.76044 -3.5209,-3.52089 -5.28135,-5.28133 2.5638,-3.27736 5.12799,-6.55442 7.69154,-9.83196 -0.6058,-1.11753 -3.61548,-2.09261 -1.9879,-3.34419 1.08652,-0.99664 2.06166,-3.77368 3.349,-1.56017 1.12081,1.9856 1.98579,-0.3717 2.93651,-1.26936 2.32288,-2.76478 4.64642,-5.529 6.96889,-8.29412 -2.40997,-1.13616 -4.6204,-2.87111 -7.14863,-3.65179 -0.86926,-0.19463 -4.72789,-0.50301 -3.50536,-0.71878 2.39739,0.36583 4.79482,0.73141 7.19218,1.09738 2.30978,-4.64612 4.75068,-9.25914 6.97839,-13.92628 0.23345,-5.26181 0.25355,-10.56427 0.62006,-15.80073 1.60772,-4.51152 3.21647,-9.02268 4.82353,-13.53444 -2.1455,-1.65408 -4.29085,-3.30834 -6.4363,-4.96249 7.31939,-9.76088 14.4581,-19.68146 21.8902,-29.34272 2.63809,-2.61453 5.66474,-4.89892 7.47801,-8.214 1.534,-1.98811 2.47089,-4.63374 5.04341,-5.47828 3.37162,-1.85452 6.74324,-3.70905 10.11486,-5.56358 1.84693,0.61777 3.67952,1.57433 5.53455,2.00039 1.81022,-0.40759 3.63747,-1.27772 5.43745,-1.40721 3.99629,1.48055 7.99259,2.9611 11.98888,4.44165 0.42874,2.70061 0.85748,5.40122 1.28622,8.10183 -3.59207,3.08791 -7.38832,5.99262 -10.85813,9.19023 -1.46503,2.20038 -2.93035,4.40056 -4.3952,6.60106 0.68533,1.21585 0.89738,3.06815 1.86163,3.90977 1.95129,0.0254 4.03225,0.73577 5.90813,0.36284 1.83222,-0.94134 3.66429,-1.88299 5.49661,-2.82412 -0.71259,-1.19163 -1.27483,-4.00696 0.83777,-2.76477 3.86482,2.47727 7.72989,4.95415 11.59455,7.43167 1.52645,-5.51758 3.69855,-10.88644 4.30223,-16.61677 0.27831,-1.70818 0.55662,-3.41636 0.83492,-5.12454 2.2947,-0.24493 3.82319,1.63471 5.69475,2.52181 2.3467,0.1271 4.68516,0.19633 6.87171,-0.80992 1.54794,-0.35399 3.02906,-0.80861 3.80289,-2.3226 0.60566,-1.19574 2.76424,-2.1136 1.76355,-3.59695 0.30727,-1.59212 1.6666,-3.09297 2.3637,-4.65127 0.92627,-1.02027 1.11068,-3.86346 2.95322,-2.63232 1.11445,0.33019 3.7053,-0.98375 2.51372,-2.35913 -2.90675,-7.61914 -5.81324,-15.23838 -8.72014,-22.85746 -2.10623,-1.15021 -3.9516,-2.95442 -6.21116,-3.72042 -4.29634,-0.6685 -8.50557,-1.68241 -12.5985,-3.15753 -0.69624,-0.18512 -1.38087,-0.50603 -2.08468,-0.62339 z"
       style="opacity:1;fill:#000000;fill-rule:evenodd;stroke:none;stroke-width:0.26458332px;stroke-linecap:butt;stroke-linejoin:miter;stroke-opacity:1" />
    <path
       id="path826-3-2"
       d="m 206.79779,107.74314 -7.08949,0.50799 -2.43034,3.58685 -10.39317,6.46575 -5.42395,6.31228 -10.72803,8.43876 -12.3424,4.89169 c -9.43787,-3.1418 -19.32143,-3.49778 -29.26591,-3.47421 l -2.56471,-2.70474 -6.54275,-2.1885 -10.17767,3.17138 -13.292256,0.83044 -1.6769,0.99943 -12.56099,-3.87418 -1.4087,2.16782 2.34301,0.86713 -0.39533,2.06809 -8.17831,-0.0351 -5.869408,3.01842 -3.044259,-0.7152 -2.697509,-2.52078 -2.246892,0.84853 -9.494511,-0.13177 -11.151257,-11.43393 -3.471623,5.37176 2.903182,4.84054 7.614522,7.28121 6.846611,15.28847 -0.653707,7.10912 -2.420008,0.32298 -0.224275,2.1885 -1.955436,0.73587 0.758093,5.06739 -0.529167,1.05833 1.486214,2.75798 -2.863391,5.62033 1.047482,3.20962 1.024227,2.25102 -3.660759,1.5472 -0.274918,2.13785 -7.782988,2.95589 -2.209684,0.4346 -0.267167,6.01566 2.439644,4.63951 -1.684135,1.05317 2.224154,4.0659 -1.020093,0.81235 1.829346,1.17823 3.988903,-1.43144 1.329635,3.40186 -3.744991,0.20515 -5.669421,2.80138 5.204333,10.44433 5.372799,8.56537 16.102893,-4.14239 0.467672,0.73484 3.006535,-2.87321 4.20956,2.07171 -9.153961,19.5771 3.608049,2.00453 0.791165,-1.67277 0.01085,0.0693 3.741888,-0.40101 c 1.677773,1.46353 3.024687,3.32048 4.476731,5.01158 l 1.041797,-1.26762 3.635436,0.19843 4.877739,11.62617 2.87321,4.00906 3.54087,2.13837 -2.8727,4.40955 11.49232,3.27422 11.693396,-0.26717 4.47673,0.8015 -4.34341,-13.89786 -5.6126,-5.61258 7.68379,-9.82214 -2.6727,-2.53886 3.54139,-4.27674 2.20503,2.07171 8.08478,-9.62164 -5.87975,-3.20755 -5.07824,-0.73484 0.13384,-1.26969 7.88427,1.20302 6.74895,-13.36352 0.53433,-15.63522 4.81056,-13.49738 -6.54327,-5.04517 v 0 l 21.84466,-29.43231 5.73195,-5.4653 5.117,-7.49411 12.52689,-6.89054 5.42809,2.07377 5.35626,-1.54719 12.6907,4.70152 1.38182,8.70387 -10.84068,9.05009 -4.38577,6.58668 1.37045,3.32951 5.32578,0.53433 5.32835,-2.73781 -0.87695,-2.63602 1.71825,-0.90537 11.93157,7.6476 3.27628,-10.91613 1.72496,-10.58696 2.7404,0.32763 3.40445,2.25103 3.92482,0.0682 5.15111,-1.58285 3.1166,-3.76152 -0.43511,-1.23972 4.46484,-7.96954 2.16318,0.63872 1.66243,-1.06608 -8.94106,-23.43682 -5.35626,-3.45353 -7.10086,-1.33686 z"
       style="opacity:1;fill:#b3b3b3;fill-rule:evenodd;stroke:none;stroke-width:0.26458332px;stroke-linecap:butt;stroke-linejoin:miter;stroke-opacity:1" />
    <path
       style="opacity:1;fill:#000000;fill-opacity:1;fill-rule:evenodd;stroke:none;stroke-width:0.26458332px;stroke-linecap:butt;stroke-linejoin:miter;stroke-opacity:1;filter:url(#filter978)"
       d="m 98.503764,165.68146 c -0.37551,8.60326 -5.38804,16.51777 -12.59332,21.11042 -8.86855,7.46013 -18.849152,13.8254 -26.523502,22.5584 -5.608845,7.19568 -11.217691,14.39137 -16.826536,21.58705 1.925013,2.35112 2.857994,7.47904 6.613484,4.70647 4.055968,-0.66477 9.160656,0.53159 12.325969,-2.97405 2.56108,-1.36247 4.438257,-4.17579 7.228516,-0.60547 2.665573,-6.48019 9.954598,-8.84294 13.508189,-14.64875 2.74688,-2.46987 1.72971,-6.44317 3.1332,-9.63017 0.12154,-4.72282 4.10949,-7.55247 7.92449,-9.49663 4.70698,-1.65469 5.4551,-6.98845 7.988816,-10.65414 3.17922,-1.58668 6.82547,-3.17096 7.39066,-7.12305 0.93856,-3.45491 -0.16682,-7.35271 -2.54102,-10.01172 -0.9311,-1.70638 -1.01496,-3.6988 -1.65626,-5.50586 -1.49652,0.5024 -5.961296,-1.27561 -5.972686,0.6875 z"
       id="path864" />
    <path
       id="path1052"
       d="m 98.503764,165.68146 c -0.37551,8.60326 -5.38804,16.51777 -12.59332,21.11042 -8.86855,7.46013 -18.849152,13.8254 -26.523502,22.5584 -5.608845,7.19568 -11.217691,14.39137 -16.826536,21.58705 1.925013,2.35112 2.857994,7.47904 6.613484,4.70647 4.055968,-0.66477 9.160656,0.53159 12.325969,-2.97405 2.56108,-1.36247 4.438257,-4.17579 7.228516,-0.60547 2.665573,-6.48019 9.954598,-8.84294 13.508189,-14.64875 2.74688,-2.46987 1.72971,-6.44317 3.1332,-9.63017 0.12154,-4.72282 4.10949,-7.55247 7.92449,-9.49663 4.70698,-1.65469 5.4551,-6.98845 7.988816,-10.65414 3.17922,-1.58668 6.82547,-3.17096 7.39066,-7.12305 0.93856,-3.45491 -0.16682,-7.35271 -2.54102,-10.01172 -0.9311,-1.70638 -1.01496,-3.6988 -1.65626,-5.50586 -1.49652,0.5024 -5.961296,-1.27561 -5.972686,0.6875 z"
       style="opacity:1;fill:#abc837;fill-opacity:1;fill-rule:evenodd;stroke:none;stroke-width:0.26458332px;stroke-linecap:butt;stroke-linejoin:miter;stroke-opacity:1" />
    <path
       id="path1050"
       d="m 70.044781,232.83381 c -2.98112,6.37566 -5.96224,12.75131 -8.943359,19.12696 3.235634,3.88159 2.684121,-1.34791 6.720703,0.26757 2.004599,0.60184 4.579461,6.66411 5.810547,3.41797 3.079679,-1.23332 5.038431,2.22792 5.977942,4.93327 2.67058,4.12951 3.41563,10.06323 8.42943,12.05572 4.7829,0.85783 -3.74191,5.31053 0.45308,5.82454 4.861,1.44301 9.59553,3.9222 14.781876,2.69996 3.27746,-0.21794 6.57234,-0.76669 9.7835,0.23651 -1.73538,-4.47932 -2.33868,-9.64371 -4.79328,-13.68781 -1.44444,-2.36083 -7.1374,-4.49394 -3.48216,-7.12832 2.6668,-2.50288 4.3592,-4.96834 0.43077,-7.21784 -2.30945,-2.33023 -5.935996,1.79877 -8.816946,2.27134 -2.67387,0.4923 -6.8128,5.00425 -7.66782,0.50323 -2.89272,-5.09266 -4.52304,-10.77488 -6.28975,-16.29333 0.52013,-3.44429 3.11025,-5.27502 -1.681,-6.53706 -2.741,-0.99318 -5.962392,-3.92719 -8.419745,-3.77445 -0.764596,1.10058 -1.529192,2.20116 -2.293788,3.30174 z"
       style="opacity:0.63500007;fill:#ececec;fill-opacity:1;fill-rule:evenodd;stroke:none;stroke-width:0.26458332px;stroke-linecap:butt;stroke-linejoin:miter;stroke-opacity:1" />
    <path
       id="path1022"
       d="m 80.492044,221.39045 c -2.371581,2.28352 -5.07346,4.25919 -7.152341,6.84571 4.130437,1.94091 8.259171,3.88547 12.390621,5.82422 0.142,2.917 -3.59225,4.15908 -1.71644,7.34315 1.70793,5.40261 3.6012,10.72843 6.36879,15.692 6.21536,-3.33184 13.720356,-4.93211 18.791056,-10.04687 2.57661,-3.70117 2.9491,-8.32453 2.05274,-12.67383 -1.29138,-1.62877 -5.02486,-2.63933 -6.11275,-5.69568 -1.06512,-2.48605 -2.65041,-2.79173 -4.46064,-4.55863 -2.864366,-4.15045 -6.882296,-7.22939 -11.608156,-8.91225 -3.45205,-3.02601 -5.3144,-1.0587 -6.6186,2.66173 -0.64476,1.17348 -1.28952,2.34697 -1.93428,3.52045 z"
       style="opacity:1;fill:#d7d7d7;fill-rule:evenodd;stroke:none;stroke-width:0.26458332px;stroke-linecap:butt;stroke-linejoin:miter;stroke-opacity:1;fill-opacity:1" />
    <path
       id="path1054"
       d="m 47.869,182.96466 c 0.834468,2.26002 4.290221,5.59829 0.312481,6.51701 -5.052376,0.93809 4.280911,5.34015 -1.580135,5.04589 -3.439428,0.66458 -6.878856,1.32917 -10.318284,1.99375 -0.97282,3.34545 -0.3583,6.30462 2.100508,8.815 -1.419989,1.42182 -1.134095,4.04047 0.241289,6.67133 2.076572,1.23879 5.815374,-2.3019 6.273485,2.61217 0.963894,2.52481 -5.564606,0.52899 -7.323587,2.77053 -3.515521,1.0019 1.618955,5.29751 1.920404,7.75283 1.079411,3.97104 2.726967,4.07867 4.554568,0.42021 5.830562,-7.10363 10.980281,-14.82567 17.217746,-21.55971 4.112105,-2.06783 2.441223,-4.50548 -0.272027,-7.00979 -2.531812,-2.3187 -3.984502,-4.50695 0.07668,-6.04094 -3.040352,1.53836 -5.648994,1.96401 -7.023067,-2.2033 -1.883585,-1.70185 -3.554111,-7.60208 -5.579448,-6.51068 l -0.33739,0.40766 z"
       style="opacity:0.63500007;fill:#ececec;fill-opacity:1;fill-rule:evenodd;stroke:none;stroke-width:0.26458332px;stroke-linecap:butt;stroke-linejoin:miter;stroke-opacity:1" />
    <path
       id="path1056"
       d="m 200.00234,108.76014 c -1.24609,1.72316 -2.11983,3.83297 -4.24206,4.64503 -2.92427,1.94041 -6.12067,3.56342 -8.87155,5.70609 -2.60591,2.93157 -4.87478,6.21509 -8.22013,8.37445 -2.77788,2.02694 -5.30793,4.48483 -8.23291,6.25599 -3.9559,1.64582 -8.07605,3.04508 -11.92975,4.8443 -4.6906,4.81063 -9.38119,9.62126 -14.07179,14.43189 1.09193,1.35909 2.18385,2.71818 3.27577,4.07727 3.13319,-3.41928 6.0275,-7.02279 8.49639,-10.9544 0.78664,-1.44871 1.81397,-2.63256 3.40722,-3.19311 3.62907,-1.99626 7.25825,-3.99234 10.88725,-5.98872 1.91802,0.61149 3.81607,1.69548 5.74585,2.02463 1.83316,-0.3363 3.69462,-1.44759 5.51089,-1.32035 4.24415,1.57239 8.48838,3.14457 12.73249,4.71709 0.49261,3.10212 0.98522,6.20423 1.47743,9.30641 -3.70023,3.155 -7.5532,6.17307 -11.15888,9.41295 -1.3469,2.02293 -2.6938,4.04586 -4.04071,6.06879 0.60851,1.50594 0.90479,3.43109 2.98539,2.96053 1.61883,0.16597 3.29326,0.62527 4.65897,-0.54419 1.05355,-0.89618 4.01247,-1.0148 2.72081,-2.86803 -1.27404,-1.51668 1.04787,-2.39827 2.15304,-2.49178 3.79253,2.43081 7.58499,4.86171 11.37749,7.29256 1.50448,-5.18871 3.40237,-10.28673 3.95804,-15.69415 0.30265,-1.85672 0.60495,-3.7135 0.90782,-5.57019 1.87821,0.18615 3.81517,0.21343 5.23883,1.63917 1.45487,1.45535 3.59596,1.01481 5.44962,0.98477 2.01127,-0.86067 4.69689,-0.71095 5.84823,-2.86007 1.71077,-1.15601 1.17857,-2.58353 1.73287,-4.06646 1.42755,-2.54876 2.85618,-5.09691 4.28307,-7.64603 1.14161,0.66481 4.14005,1.04495 3.05564,-1.00226 -2.78277,-7.29456 -5.56556,-14.58912 -8.34834,-21.88368 -2.44935,-1.34548 -4.52175,-3.63641 -7.46439,-3.74468 -4.34165,-0.55868 -8.43754,-2.0918 -12.59123,-3.39596 -2.24379,0.16071 -4.48758,0.32143 -6.73137,0.48214 z"
       style="opacity:0.63500007;fill:#ececec;fill-rule:evenodd;stroke:none;stroke-width:0.26458332px;stroke-linecap:butt;stroke-linejoin:miter;stroke-opacity:1" />
    <path
       id="path1058"
       d="m 101.93541,188.48224 c -2.332206,3.89318 -3.367286,8.89246 -7.836506,10.96144 -2.68379,2.60142 -7.56088,3.74116 -7.585,8.11504 -1.8782,3.68627 -0.79293,5.80142 3.32841,6.30696 4.90828,3.43226 9.49069,7.41532 14.350916,10.95837 1.77114,-1.38377 2.84932,-7.24001 5.34416,-3.95715 2.66504,1.2542 4.6937,5.59104 7.94077,4.02587 3.08522,-0.97378 6.02398,-1.8701 7.77932,-0.3257 1.67755,-1.9026 0.40712,-6.28609 0.96231,-9.13322 0.28976,-5.15533 -0.43845,-10.50183 2.11138,-15.23105 0.29982,-2.78774 3.76485,-6.60104 2.02482,-8.72787 -2.73904,-1.48154 -5.46115,-4.54753 -8.21071,-5.04432 -2.62612,1.56518 -5.15839,3.68543 -7.83873,4.93054 -3.62715,0.0172 -4.34459,-5.65007 -7.75635,-5.42413 -1.53826,0.84841 -3.07652,1.69682 -4.61479,2.54522 z"
       style="opacity:0.63500007;fill:#ececec;fill-opacity:1;fill-rule:evenodd;stroke:none;stroke-width:0.26458332px;stroke-linecap:butt;stroke-linejoin:miter;stroke-opacity:1" />
    <path
       id="path1060"
       d="m 110.14444,133.21662 c -1.82771,2.54632 -5.85054,0.63071 -8.59257,1.31721 -4.185186,-0.80164 -5.962526,0.60572 -4.651176,4.84671 0.54543,8.12961 1.09085,16.25921 1.63627,24.38881 2.937956,0.49839 7.477236,-1.33759 7.818636,2.94337 0.74312,3.87609 2.79056,5.59872 6.69391,4.25715 3.73783,-0.57888 8.12588,0.39099 10.64664,-3.08685 11.18928,-9.54801 22.38803,-19.08534 33.11039,-29.16054 -9.08711,-2.78667 -18.79009,-2.7402 -28.0664,-2.82813 -2.13583,-2.98652 -5.93395,-4.36412 -9.27391,-5.09751 -3.10726,0.80659 -6.21453,1.61318 -9.32179,2.41978 z"
       style="opacity:0.63500007;fill:#ececec;fill-opacity:1;fill-rule:evenodd;stroke:none;stroke-width:0.26458332px;stroke-linecap:butt;stroke-linejoin:miter;stroke-opacity:1" />
    <path
       id="path1062"
       d="m 81.542824,133.22834 c 3.79745,1.98631 0.40665,5.70491 -2.957758,3.89298 -3.80246,-1.28605 -6.613829,1.56745 -9.694582,3.29452 -2.848633,0.21684 -4.537667,-2.20179 -6.21875,-3.53321 -3.395479,1.88107 -7.233095,-0.0264 -10.787109,0.91992 0.01408,2.78954 3.184076,5.32136 -1.152344,4.39454 -1.39455,0.28473 -4.788082,0.66187 -2.864475,2.61035 1.961797,4.46712 4.680448,8.73991 6.215409,13.31667 0.04715,2.65792 0.511229,6.01385 -1.077497,8.17844 -2.420831,0.83288 -3.930553,3.48227 -3.424752,6.52434 0.570398,3.06592 1.055126,5.6199 1.938446,7.95121 4.707707,6.50565 9.414366,13.03098 14.673806,19.10845 9.325802,-7.52894 20.251516,-13.72959 27.217786,-23.73717 2.75235,-4.76532 2.66719,-10.60845 2.958,-15.96206 -0.10727,-2.55053 -1.71496,-4.45234 -1.20721,-7.13544 -0.26752,-5.56358 -0.53504,-11.12715 -0.80256,-16.69073 -4.09375,-1.48438 -8.1875,-2.96875 -12.28125,-4.45313 -0.17838,0.44011 -0.35677,0.88021 -0.53516,1.32032 z"
       style="opacity:0.63500007;fill:#ececec;fill-opacity:1;fill-rule:evenodd;stroke:none;stroke-width:0.26458332px;stroke-linecap:butt;stroke-linejoin:miter;stroke-opacity:1" />
    <path
       transform="matrix(0.34703801,0.45596862,-0.45596862,0.34703801,356.24882,249.57246)"
       id="path848"
       d="m -70.303571,192.67858 -5.654583,-8.01741 -9.086487,-3.69985 8.017409,-5.65458 3.699852,-9.08649 5.654583,8.01741 9.086487,3.69985 -8.017409,5.65459 z"
       style="opacity:1;fill:#808080;fill-opacity:1;stroke:none;stroke-width:0.50958788;stroke-miterlimit:4;stroke-dasharray:none;stroke-dashoffset:0;stroke-opacity:1" />
    <path
       transform="matrix(0.72628256,0.07665653,-0.07665653,0.72628256,315.48231,154.50426)"
       id="path846"
       d="m -70.303571,192.67858 -5.010068,-8.81403 -9.731002,-2.90323 8.814031,-5.01006 2.90323,-9.73101 5.010068,8.81403 9.731002,2.90323 -8.814031,5.01007 z"
       style="opacity:1;fill:#000000;fill-opacity:1;stroke:none;stroke-width:0.3998265;stroke-miterlimit:4;stroke-dasharray:none;stroke-dashoffset:0;stroke-opacity:1" />
    <g
       id="text852"
       style="font-style:normal;font-variant:normal;font-weight:normal;font-stretch:normal;font-size:6.10405827px;line-height:125%;font-family:Ubuntu;-inkscape-font-specification:Ubuntu;letter-spacing:0px;word-spacing:0px;fill:#000000;fill-opacity:1;stroke:none;stroke-width:0.26458332px;stroke-linecap:butt;stroke-linejoin:miter;stroke-opacity:1"
       aria-label="N">
      <path
         id="path860"
         style="font-style:normal;font-variant:normal;font-weight:normal;font-stretch:normal;font-family:Ubuntu;-inkscape-font-specification:Ubuntu;stroke-width:0.26458332px"
         d="m 250.82133,267.78247 q -0.13429,-0.22585 -0.3113,-0.50664 -0.17092,-0.28078 -0.37235,-0.57988 -0.20143,-0.3052 -0.42118,-0.61651 -0.21364,-0.31131 -0.42728,-0.5982 -0.21365,-0.29299 -0.41508,-0.54936 -0.20143,-0.25637 -0.37235,-0.4517 v 3.30229 h -0.57988 v -4.23011 h 0.47001 q 0.28689,0.3052 0.6104,0.71417 0.32962,0.40287 0.64703,0.83626 0.32352,0.42728 0.60431,0.84236 0.28689,0.41508 0.48222,0.73859 v -3.13138 h 0.57988 v 4.23011 z" />
    </g>
    <path
       id="text841"
       d="m 84.460938,192.75195 c 0.04547,3.68167 -2.448403,-2.38829 -3.894532,0.48425 -0.02884,1.25457 -2.335618,0.57242 -3.347396,0.78138 -1.618265,-0.20559 -1.707938,6.04746 0.112891,5.66797 3.124096,1.30196 -0.05335,-4.26566 2.699349,-3.39453 0.902976,0.64354 0.138469,3.45373 2.234375,3.37304 1.936981,-0.29015 5.815586,1.25733 4.728516,-2.09531 -0.568379,-1.88162 1.490203,-6.3902 -2.003907,-5.34609 h -0.529166 -1.3e-4 v 0.52916 z m -24.021485,-0.36914 c -4.177477,-0.0599 -4.47778,7.01241 -0.351562,7.35742 0.888922,1.12506 6.235133,2.24867 3.455498,-0.10116 -0.98785,-0.77097 1.133793,-1.56173 0.896064,-2.73282 0.573681,-2.52913 -1.343805,-4.90016 -4,-4.52344 z m 12.142578,1.53907 c -1.968484,-0.2466 -2.050511,1.17573 -2.0625,2.75195 -1.23005,1.9179 1.258505,3.82453 2.896485,3.01172 2.900525,0.90187 2.823138,-1.21656 2.533203,-3.48438 0.0082,-1.82727 -1.803327,-2.48975 -3.367188,-2.27929 z m 17.201172,-0.006 c -3.484713,-0.13421 -3.732488,5.68742 -0.255859,5.84765 1.397219,0.0774 3.943719,0.0707 3.267578,-1.97461 0.907987,-1.67128 -0.776158,-4.27126 -3.011719,-3.87304 z m 6.550781,0.002 c -1.3221,0.51049 -4.036502,-0.87953 -3.263672,1.68724 -1.391497,2.55725 1.492402,6.24968 2.53125,3.02187 -0.516325,-1.47753 0.333391,-3.36336 1.953126,-2.04114 -0.158045,-1.26976 0.635984,-3.02225 -1.220704,-2.66797 z m -31.800781,0.62891 c -0.384185,1.88696 -0.249268,5.88229 2.710938,5.19921 1.920777,0.0491 3.932437,0.19719 2.982421,-2.70651 1.901769,-3.31136 -3.633066,-4.56881 -2.533203,-0.90521 0.533782,0.91942 -0.971775,2.41436 -0.628906,0.56094 0.871894,-2.29725 -1.178867,-3.94666 -2.53125,-2.14843 z m -3.585937,0.0371 c 2.111142,0.4583 0.172939,4.70598 -1.03711,2.26758 -0.184417,-0.77591 -0.175977,-2.42036 1.03711,-2.26758 z m 23.142578,1.54493 c 2.457552,2.88772 -4.026125,1.03506 0,0 z m -10.796875,1.48242 c -0.392654,0.41736 -0.886486,-0.10501 0,0 z m 17.453125,5.32031 c -2.138706,-0.56273 -2.822469,2.6996 -1.620701,2.86383 0.539402,-0.95151 3.364499,-1.0046 1.915623,0.38812 -2.621596,0.99126 -3.73451,5.33853 0.253385,4.04102 2.929807,1.73761 4.399041,-3.07088 1.047396,-2.22266 2.036029,-0.92871 2.569834,-4.3755 0.03711,-4.95898 -0.530385,-0.14321 -1.08803,-0.15739 -1.632812,-0.11133 z m -30.59375,0.61719 c 0.720354,2.2105 -1.841602,7.70332 2.116797,6.67578 2.778313,1.75649 5.166604,-2.59747 1.721354,-2.25586 -3.289949,0.1669 4.172592,-0.58332 0.808333,-2.60547 -4.76403,-0.33975 2.703335,1.09952 0.689453,-2.34375 -1.449877,0.39792 -4.874623,-0.80154 -5.335937,0.5293 z m 11.832031,0.22656 c -0.347003,0.42138 -0.5788,2.27497 -1.162109,1.16602 -1.554959,-1.10452 -3.272,0.10363 -4.976563,-0.38672 0.397953,2.33638 -1.488589,6.95725 2.533073,5.66992 0.28744,-0.98128 -0.658775,-3.31514 0.574349,-3.55273 -0.705208,2.28139 0.703608,5.13353 2.585937,3.02356 -0.39223,-2.23438 0.444996,-4.42564 0.46875,-1.13099 0.507475,2.89127 4.510354,1.1945 6.402344,1.66016 0.147632,-1.04971 -0.711106,-4.18652 1.31836,-3.35742 -0.655511,3.02223 3.128191,4.31881 5.386718,3.05078 1.010433,-1.3361 0.957409,-5.09412 -1.761718,-5.42969 -1.062176,-0.15476 -2.27325,0.081 -2.994141,0.9336 -0.0711,-1.93666 -2.67699,-0.27278 -3.951172,-0.86719 -2.24358,0.90301 -2.105434,-3.42983 -4.423828,-0.7793 z m 3.521484,2.89258 c 2.463554,2.8814 -4.026272,1.04297 0,0 z m -12.082031,6.78711 c -2.735542,-0.31434 -3.566025,4.09694 -0.802734,4.62109 0.817488,0.0548 2.534176,0.69258 0.617187,0.56836 -1.912413,-0.7648 -2.816529,-1.01643 -2.300781,1.65039 1.872329,0.86587 5.604015,1.15668 5.841797,-1.66406 0.235076,2.78555 5.055804,2.67863 5.183594,1.23828 1.253051,1.9114 3.746528,0.37966 5.470703,0.89453 0.200453,-2.02557 0.515986,-5.90692 -2.570313,-5.77344 -2.048919,-0.28498 -3.241671,0.61677 -2.853515,2.72852 -0.208289,1.18009 -3.75707,1.5546 -2.408204,-0.50391 2.115528,0.98944 3.314755,-0.63089 1.47461,-2.07617 -1.858739,-0.71846 -4.399211,0.56103 -4.369141,2.52149 -0.151405,-1.55022 -2.808476,-1.59191 -3.136719,-1.97461 2.433818,1.50781 4.246632,-0.8662 1.814454,-2.0586 -0.644507,-0.12624 -1.303358,-0.2048 -1.960938,-0.17187 z m 17.582031,1.54101 c -1.318458,0.50918 -4.034919,-0.88248 -3.261718,1.68529 -1.391621,2.55853 1.492452,6.2526 2.533203,3.02383 -0.838789,-1.40494 0.969904,-3.75162 1.625,-1.64479 -0.625269,2.32847 0.122224,6.32917 2.533203,3.92786 -0.796917,-2.22628 2.06807,-0.30078 2.791015,-1.95898 0.516283,-0.90915 0.510689,-1.21033 1.044922,-0.10742 1.373394,1.52137 5.618794,1.44399 5.109375,-1.05665 1.095253,-1.88596 -1.350018,-4.71965 -3.675781,-3.76953 -0.911533,0.11067 -1.708494,1.09244 -1.964844,1.68555 -1.04626,-3.09599 -4.530379,-1.07543 -6.734375,-1.78516 z m 3.988282,2.12891 c 1.164759,0.65823 -0.538998,2.68457 -0.556641,0.80859 -0.01715,-0.33629 0.07567,-0.93887 0.556641,-0.80859 z m -10.230469,1.56445 c -0.390323,0.90974 -0.741391,-0.2793 0,0 z"
       style="font-style:normal;font-variant:normal;font-weight:normal;font-stretch:normal;font-size:8.43095398px;line-height:125%;font-family:Tofino;-inkscape-font-specification:Tofino;text-align:center;letter-spacing:0px;word-spacing:0px;text-anchor:middle;fill:#ffffff;fill-opacity:1;stroke:none;stroke-width:0.26458332px;stroke-linecap:butt;stroke-linejoin:miter;stroke-opacity:1" />
    <g
       id="text920"
       style="font-style:normal;font-variant:normal;font-weight:normal;font-stretch:normal;font-size:8.43095398px;line-height:125%;font-family:Tofino;-inkscape-font-specification:Tofino;text-align:center;letter-spacing:0px;word-spacing:0px;text-anchor:middle;fill:#000000;fill-opacity:1;stroke:none;stroke-width:0.26458332px;stroke-linecap:butt;stroke-linejoin:miter;stroke-opacity:1"
       aria-label="Quartier
Entre 2
Scarpe">
      <path
         id="path835"
         style="font-weight:bold;text-align:center;text-anchor:middle;stroke-width:0.26458332px"
         d="m 60.986352,199.26793 h -0.1235 q -1.519054,0 -2.362973,-0.8398 -0.843918,-0.8398 -0.843918,-2.33827 0,-1.49435 0.839802,-2.34239 0.843918,-0.84803 2.321805,-0.84803 1.494354,0 2.325923,0.8398 0.835685,0.8398 0.835685,2.35062 0,1.0374 -0.444601,1.78664 -0.440484,0.74923 -1.272053,1.12797 l 1.23912,1.3832 h -1.510821 z m -0.168784,-5.21994 q -0.724535,0 -1.123852,0.53517 -0.399318,0.53516 -0.399318,1.5067 0,0.988 0.391084,1.51494 0.391085,0.52281 1.132086,0.52281 0.728652,0 1.12797,-0.53516 0.399317,-0.53517 0.399317,-1.50259 0,-0.97154 -0.399317,-1.5067 -0.399318,-0.53517 -1.12797,-0.53517 z" />
      <path
         id="path837"
         style="font-weight:bold;text-align:center;text-anchor:middle;stroke-width:0.26458332px"
         d="m 65.061862,197.36191 v -2.8158 h 1.482004 v 0.46106 q 0,0.37462 -0.0041,0.94272 -0.0041,0.56399 -0.0041,0.75335 0,0.55576 0.02882,0.80276 0.02882,0.24288 0.0988,0.35403 0.09057,0.14408 0.234651,0.2223 0.1482,0.0782 0.337568,0.0782 0.461067,0 0.724535,-0.35404 0.263467,-0.35403 0.263467,-0.98388 v -2.27652 h 1.47377 v 4.61067 h -1.47377 v -0.6669 q -0.333451,0.40344 -0.708068,0.59692 -0.370501,0.18937 -0.819219,0.18937 -0.798635,0 -1.218536,-0.48989 -0.415785,-0.48988 -0.415785,-1.42437 z" />
      <path
         id="path839"
         style="font-weight:bold;text-align:center;text-anchor:middle;stroke-width:0.26458332px"
         d="m 73.179948,197.08198 q -0.461067,0 -0.695718,0.15643 -0.230534,0.15644 -0.230534,0.46107 0,0.27993 0.185251,0.44048 0.189367,0.15644 0.522817,0.15644 0.415785,0 0.699836,-0.2964 0.28405,-0.30052 0.28405,-0.74924 v -0.16878 z m 2.251823,-0.55575 v 2.63055 H 73.94565 v -0.68336 q -0.2964,0.4199 -0.666901,0.61338 -0.370501,0.18937 -0.901553,0.18937 -0.716301,0 -1.165019,-0.41579 -0.444601,-0.4199 -0.444601,-1.0868 0,-0.81098 0.555751,-1.18972 0.559868,-0.37873 1.753704,-0.37873 h 0.868619 v -0.11527 q 0,-0.34992 -0.275817,-0.51047 -0.275817,-0.16467 -0.860386,-0.16467 -0.473417,0 -0.880968,0.0947 -0.407551,0.0947 -0.757469,0.28405 v -1.12385 q 0.473418,-0.11527 0.950952,-0.1729 0.477535,-0.0618 0.955069,-0.0618 1.247353,0 1.798988,0.494 0.555752,0.48988 0.555752,1.59727 z" />
      <path
         id="path841"
         style="font-weight:bold;text-align:center;text-anchor:middle;stroke-width:0.26458332px"
         d="m 80.227699,195.80169 q -0.193484,-0.0906 -0.386968,-0.13173 -0.189367,-0.0453 -0.382851,-0.0453 -0.568101,0 -0.876852,0.36638 -0.304634,0.36227 -0.304634,1.04152 v 2.1242 h -1.47377 v -4.61067 h 1.47377 v 0.75746 q 0.284051,-0.45283 0.650435,-0.65866 0.370501,-0.20995 0.885085,-0.20995 0.0741,0 0.160551,0.008 0.08645,0.004 0.251117,0.0247 z" />
      <path
         id="path843"
         style="font-weight:bold;text-align:center;text-anchor:middle;stroke-width:0.26458332px"
         d="m 82.570089,193.237 v 1.30911 h 1.519054 v 1.05387 h -1.519054 v 1.95542 q 0,0.3211 0.127617,0.43636 0.127617,0.11115 0.506351,0.11115 h 0.757469 v 1.05387 h -1.26382 q -0.872736,0 -1.23912,-0.36226 -0.362267,-0.36639 -0.362267,-1.23912 v -1.95542 H 80.36355 v -1.05387 h 0.732769 V 193.237 Z" />
      <path
         id="path845"
         style="font-weight:bold;text-align:center;text-anchor:middle;stroke-width:0.26458332px"
         d="m 84.990694,194.54611 h 1.47377 v 4.61067 h -1.47377 z m 0,-1.79487 h 1.47377 v 1.20206 h -1.47377 z" />
      <path
         id="path847"
         style="font-weight:bold;text-align:center;text-anchor:middle;stroke-width:0.26458332px"
         d="m 92.483046,196.8391 v 0.4199 h -3.445658 q 0.05352,0.5187 0.374618,0.77805 0.3211,0.25935 0.897435,0.25935 0.465185,0 0.950953,-0.13585 0.489884,-0.13997 1.004469,-0.4199 v 1.1362 q -0.522818,0.1976 -1.045636,0.2964 -0.522818,0.10292 -1.045636,0.10292 -1.25147,0 -1.947188,-0.63397 -0.691602,-0.63809 -0.691602,-1.78664 0,-1.12797 0.679252,-1.77429 0.683368,-0.64631 1.877204,-0.64631 1.086803,0 1.737238,0.65455 0.654551,0.65455 0.654551,1.74959 z m -1.514937,-0.48989 q 0,-0.4199 -0.247,-0.67513 -0.242884,-0.25936 -0.638085,-0.25936 -0.428134,0 -0.695718,0.24289 -0.267584,0.23877 -0.333451,0.6916 z" />
      <path
         id="path849"
         style="font-weight:bold;text-align:center;text-anchor:middle;stroke-width:0.26458332px"
         d="m 97.02374,195.80169 q -0.193484,-0.0906 -0.386967,-0.13173 -0.189367,-0.0453 -0.382851,-0.0453 -0.568102,0 -0.876852,0.36638 -0.304634,0.36227 -0.304634,1.04152 v 2.1242 h -1.473771 v -4.61067 h 1.473771 v 0.75746 q 0.28405,-0.45283 0.650434,-0.65866 0.370501,-0.20995 0.885086,-0.20995 0.0741,0 0.16055,0.008 0.08645,0.004 0.251118,0.0247 z" />
      <path
         id="path851"
         style="font-weight:bold;text-align:center;text-anchor:middle;stroke-width:0.26458332px"
         d="m 60.681718,203.54928 h 4.277227 v 1.19795 h -2.692306 v 1.14444 h 2.531756 v 1.19795 h -2.531756 v 1.4079 h 2.782873 v 1.19796 h -4.367794 z" />
      <path
         id="path853"
         style="font-weight:bold;text-align:center;text-anchor:middle;stroke-width:0.26458332px"
         d="m 71.01046,206.8879 v 2.80758 h -1.482004 v -0.45695 -1.69196 q 0,-0.59692 -0.02882,-0.82333 -0.0247,-0.22642 -0.09057,-0.33345 -0.08645,-0.14409 -0.234651,-0.22231 -0.1482,-0.0823 -0.337567,-0.0823 -0.461068,0 -0.724536,0.35815 -0.263467,0.35404 -0.263467,0.98389 v 2.26829 h -1.47377 v -4.61068 h 1.47377 v 0.67513 q 0.333451,-0.40343 0.708069,-0.5928 0.374617,-0.19348 0.827452,-0.19348 0.798635,0 1.210303,0.48988 0.415784,0.48989 0.415784,1.42437 z" />
      <path
         id="path855"
         style="font-weight:bold;text-align:center;text-anchor:middle;stroke-width:0.26458332px"
         d="m 73.986817,203.7757 v 1.3091 h 1.519053 v 1.05387 h -1.519053 v 1.95542 q 0,0.3211 0.127617,0.43637 0.127617,0.11115 0.506351,0.11115 h 0.757469 v 1.05387 h -1.26382 q -0.872736,0 -1.23912,-0.36227 -0.362268,-0.36639 -0.362268,-1.23912 v -1.95542 h -0.732768 v -1.05387 h 0.732768 v -1.3091 z" />
      <path
         id="path857"
         style="font-weight:bold;text-align:center;text-anchor:middle;stroke-width:0.26458332px"
         d="m 79.832499,206.34038 q -0.193484,-0.0906 -0.386968,-0.13173 -0.189367,-0.0453 -0.382851,-0.0453 -0.568101,0 -0.876852,0.36638 -0.304634,0.36227 -0.304634,1.04152 v 2.12421 h -1.47377 v -4.61068 h 1.47377 v 0.75747 q 0.284051,-0.45284 0.650435,-0.65867 0.370501,-0.20995 0.885086,-0.20995 0.0741,0 0.16055,0.008 0.08645,0.004 0.251117,0.0247 z" />
      <path
         id="path859"
         style="font-weight:bold;text-align:center;text-anchor:middle;stroke-width:0.26458332px"
         d="m 85.167711,207.37779 v 0.4199 h -3.445658 q 0.05352,0.5187 0.374617,0.77805 0.321101,0.25935 0.897436,0.25935 0.465184,0 0.950952,-0.13585 0.489885,-0.13997 1.004469,-0.4199 v 1.1362 q -0.522818,0.1976 -1.045636,0.2964 -0.522818,0.10292 -1.045636,0.10292 -1.251469,0 -1.947188,-0.63397 -0.691601,-0.63808 -0.691601,-1.78664 0,-1.12797 0.679251,-1.77428 0.683369,-0.64632 1.877205,-0.64632 1.086803,0 1.737237,0.65455 0.654552,0.65455 0.654552,1.74959 z m -1.514937,-0.48989 q 0,-0.4199 -0.247001,-0.67513 -0.242884,-0.25935 -0.638084,-0.25935 -0.428135,0 -0.695719,0.24288 -0.267584,0.23877 -0.333451,0.6916 z" />
      <path
         id="path861"
         style="font-weight:bold;text-align:center;text-anchor:middle;stroke-width:0.26458332px"
         d="m 90.939293,208.53046 h 2.704656 v 1.16502 h -4.466594 v -1.16502 l 2.243589,-1.98012 q 0.300517,-0.27171 0.444601,-0.53106 0.144084,-0.25935 0.144084,-0.53928 0,-0.43225 -0.292284,-0.69572 -0.288168,-0.26347 -0.769819,-0.26347 -0.370501,0 -0.810985,0.16055 -0.440485,0.15644 -0.942719,0.46931 v -1.35027 q 0.535168,-0.17702 1.057986,-0.26759 0.522818,-0.0947 1.025052,-0.0947 1.10327,0 1.712538,0.48577 0.613385,0.48576 0.613385,1.35438 0,0.50224 -0.259351,0.9386 -0.259351,0.43226 -1.090919,1.16091 z" />
      <path
         id="path863"
         style="font-weight:bold;text-align:center;text-anchor:middle;stroke-width:0.26458332px"
         d="m 65.858439,214.28145 v 1.30087 q -0.506351,-0.22641 -0.988002,-0.34168 -0.481652,-0.11527 -0.909786,-0.11527 -0.568101,0 -0.839802,0.15644 -0.271701,0.15643 -0.271701,0.48576 0,0.24701 0.181134,0.38697 0.185251,0.13585 0.666902,0.23465 l 0.675135,0.13585 q 1.025052,0.20584 1.457303,0.62574 0.432251,0.4199 0.432251,1.19383 0,1.01682 -0.605151,1.51494 -0.601035,0.494 -1.840155,0.494 -0.584568,0 -1.173252,-0.11115 -0.588685,-0.11115 -1.17737,-0.32933 v -1.33792 q 0.588685,0.31287 1.136203,0.47342 0.551634,0.15643 1.062102,0.15643 0.518702,0 0.794519,-0.1729 0.275817,-0.1729 0.275817,-0.494 0,-0.28817 -0.189367,-0.4446 -0.18525,-0.15644 -0.745118,-0.27994 l -0.613385,-0.13585 q -0.922136,-0.1976 -1.35027,-0.62985 -0.424018,-0.43225 -0.424018,-1.16502 0,-0.91802 0.592802,-1.41202 0.592801,-0.494 1.704304,-0.494 0.506351,0 1.041519,0.0782 0.535168,0.0741 1.107386,0.22641 z" />
      <path
         id="path865"
         style="font-weight:bold;text-align:center;text-anchor:middle;stroke-width:0.26458332px"
         d="m 71.313036,215.76757 v 1.20207 q -0.300518,-0.20583 -0.605152,-0.30463 -0.300517,-0.0988 -0.625735,-0.0988 -0.617501,0 -0.963302,0.36227 -0.341684,0.35815 -0.341684,1.00447 0,0.64631 0.341684,1.00858 0.345801,0.35815 0.963302,0.35815 0.345801,0 0.654552,-0.10291 0.312868,-0.10292 0.576335,-0.30464 v 1.20619 q -0.345801,0.12762 -0.703952,0.18937 -0.354034,0.0659 -0.712185,0.0659 -1.247353,0 -1.951305,-0.63808 -0.703951,-0.6422 -0.703951,-1.78252 0,-1.14032 0.703951,-1.77841 0.703952,-0.6422 1.951305,-0.6422 0.362268,0 0.712185,0.0659 0.354034,0.0617 0.703952,0.18936 z" />
      <path
         id="path867"
         style="font-weight:bold;text-align:center;text-anchor:middle;stroke-width:0.26458332px"
         d="m 74.651661,218.15936 q -0.461068,0 -0.695718,0.15644 -0.230534,0.15643 -0.230534,0.46107 0,0.27993 0.18525,0.44048 0.189367,0.15643 0.522818,0.15643 0.415784,0 0.699835,-0.2964 0.284051,-0.30051 0.284051,-0.74923 v -0.16879 z m 2.251822,-0.55575 v 2.63056 h -1.48612 v -0.68337 q -0.296401,0.4199 -0.666902,0.61339 -0.370501,0.18936 -0.901552,0.18936 -0.716302,0 -1.16502,-0.41578 -0.444601,-0.4199 -0.444601,-1.0868 0,-0.81099 0.555752,-1.18972 0.559868,-0.37874 1.753704,-0.37874 h 0.868619 v -0.11527 q 0,-0.34991 -0.275818,-0.51046 -0.275817,-0.16467 -0.860385,-0.16467 -0.473418,0 -0.880969,0.0947 -0.407551,0.0947 -0.757468,0.28405 v -1.12385 q 0.473418,-0.11527 0.950952,-0.1729 0.477535,-0.0618 0.955069,-0.0618 1.247353,0 1.798988,0.494 0.555751,0.48989 0.555751,1.59727 z" />
      <path
         id="path869"
         style="font-weight:bold;text-align:center;text-anchor:middle;stroke-width:0.26458332px"
         d="m 81.699411,216.87908 q -0.193483,-0.0906 -0.386967,-0.13174 -0.189367,-0.0453 -0.382851,-0.0453 -0.568102,0 -0.876852,0.36638 -0.304634,0.36227 -0.304634,1.04152 v 2.12421 h -1.473771 v -4.61068 h 1.473771 v 0.75747 q 0.28405,-0.45283 0.650435,-0.65867 0.3705,-0.20995 0.885085,-0.20995 0.0741,0 0.16055,0.008 0.08645,0.004 0.251118,0.0247 z" />
      <path
         id="path871"
         style="font-weight:bold;text-align:center;text-anchor:middle;stroke-width:0.26458332px"
         d="m 83.905949,219.56727 v 2.4206 h -1.47377 v -6.36438 h 1.47377 v 0.67514 q 0.304634,-0.40344 0.675135,-0.59281 0.370501,-0.19348 0.852152,-0.19348 0.852152,0 1.39967,0.67925 0.547518,0.67514 0.547518,1.74136 0,1.06622 -0.547518,1.74547 -0.547518,0.67513 -1.39967,0.67513 -0.481651,0 -0.852152,-0.18936 -0.370501,-0.19349 -0.675135,-0.59692 z m 0.979769,-2.98459 q -0.473417,0 -0.728651,0.34991 -0.251118,0.34581 -0.251118,1.00036 0,0.65455 0.251118,1.00447 0.255234,0.3458 0.728651,0.3458 0.473418,0 0.720419,-0.3458 0.251117,-0.34581 0.251117,-1.00447 0,-0.65867 -0.251117,-1.00447 -0.247001,-0.3458 -0.720419,-0.3458 z" />
      <path
         id="path873"
         style="font-weight:bold;text-align:center;text-anchor:middle;stroke-width:0.26458332px"
         d="m 93.069671,217.91648 v 0.4199 h -3.445658 q 0.05352,0.5187 0.374617,0.77805 0.321101,0.25935 0.897436,0.25935 0.465184,0 0.950952,-0.13585 0.489885,-0.13996 1.004469,-0.4199 v 1.1362 q -0.522818,0.19761 -1.045636,0.29641 -0.522818,0.10291 -1.045636,0.10291 -1.251469,0 -1.947188,-0.63397 -0.691601,-0.63808 -0.691601,-1.78663 0,-1.12797 0.679251,-1.77429 0.683369,-0.64632 1.877205,-0.64632 1.086803,0 1.737238,0.65455 0.654551,0.65455 0.654551,1.74959 z m -1.514937,-0.48988 q 0,-0.41991 -0.247001,-0.67514 -0.242883,-0.25935 -0.638084,-0.25935 -0.428135,0 -0.695719,0.24288 -0.267584,0.23877 -0.333451,0.69161 z" />
    </g>
  </g>
</svg>
