<?xml version="1.0" encoding="UTF-8" standalone="no"?>
<svg
   xmlns:dc="http://purl.org/dc/elements/1.1/"
   xmlns:cc="http://creativecommons.org/ns#"
   xmlns:rdf="http://www.w3.org/1999/02/22-rdf-syntax-ns#"
   xmlns:svg="http://www.w3.org/2000/svg"
   xmlns="http://www.w3.org/2000/svg"
   xmlns:sodipodi="http://sodipodi.sourceforge.net/DTD/sodipodi-0.dtd"
   xmlns:inkscape="http://www.inkscape.org/namespaces/inkscape"
   version="1.1"
   width="150"
   height="150"
   id="twitter"
   sodipodi:docname="twitter (copy).svg"
   inkscape:version="0.92.5 (2060ec1f9f, 2020-04-08)">
  <metadata
     id="metadata8">
    <rdf:RDF>
      <cc:Work
         rdf:about="">
        <dc:format>image/svg+xml</dc:format>
        <dc:type
           rdf:resource="http://purl.org/dc/dcmitype/StillImage" />
      </cc:Work>
    </rdf:RDF>
  </metadata>
  <defs
     id="defs6" />
  <sodipodi:namedview
     pagecolor="#ffffff"
     bordercolor="#666666"
     borderopacity="1"
     objecttolerance="10"
     gridtolerance="10"
     guidetolerance="10"
     inkscape:pageopacity="0"
     inkscape:pageshadow="2"
     inkscape:window-width="1855"
     inkscape:window-height="1056"
     id="namedview4"
     showgrid="false"
     inkscape:zoom="1.5733333"
     inkscape:cx="-22.301997"
     inkscape:cy="99.430274"
     inkscape:window-x="65"
     inkscape:window-y="24"
     inkscape:window-maximized="1"
     inkscape:current-layer="twitter" />
  <path
     style="opacity:1;fill:#000000;fill-opacity:1;stroke:none;stroke-width:3.0999999;stroke-miterlimit:4;stroke-dasharray:none;stroke-dashoffset:0;stroke-opacity:1"
     d="m 59.119301,59.495576 1.3e-4,11.580138 h -16.01172 c -1.385,0 -2.5,1.114999 -2.5,2.5 v 20.90039 c 0,1.385 1.115,2.5 2.5,2.5 h 16.01172 V 146.355 c 0,1.385 1.115,2.5 2.5,2.5 h 20.90039 c 1.385,0 2.5,-1.115 2.5,-2.5 V 96.976104 h 18.968749 c 1.385,0 2.5,-1.115 2.5,-2.5 v -20.90039 c 0,-1.385 -1.115,-2.5 -2.5,-2.5 H 85.019821 l -1.7e-4,-13.434047 c -0.0339,-2.842053 2.76504,-5.688909 6.10274,-5.857446 h 13.086639 c 1.385,0 2.5,-1.115 2.5,-2.5 V 30.38383 c 0,-1.385 -1.115,-2.5 -2.5,-2.5 H 88.762871 c -29.90818,0.892064 -29.64388,24.064769 -29.64357,31.611746 z"
     id="rect826"
     inkscape:connector-curvature="0"
     sodipodi:nodetypes="ccsssscsssscsssscccsssscc" />
</svg>
