<?xml version="1.0" encoding="UTF-8" standalone="no"?>

<svg
   xmlns:svg="http://www.w3.org/2000/svg"
   xmlns="http://www.w3.org/2000/svg"
   version="1.1"
   width="150"
   height="150"
   id="feed">
  <path
     d="M 17.625 32 L 17.625 55.59375 A 94.40678 94.40678 0 0 1 112.03125 150 L 135.65625 150 A 118.00847 118.00847 0 0 0 17.625 32 z M 17.625 71.78125 L 17.625 94.71875 A 55.2954 55.2954 0 0 1 72.9375 150 L 95.875 150 A 78.22276 78.22276 0 0 0 17.625 71.78125 z M 33.8125 117.625 C 24.874313 117.625 17.625 124.87432 17.625 133.8125 C 17.625 142.75068 24.874313 150 33.8125 150 C 42.750687 150 50 142.75068 50 133.8125 C 50 124.87432 42.750687 117.625 33.8125 117.625 z "
     id="icon"
     style="fill:#050505;fill-opacity:1;stroke:none" />
</svg>
