<?xml version="1.0" encoding="UTF-8" standalone="no"?>

<svg
   xmlns:svg="http://www.w3.org/2000/svg"
   xmlns="http://www.w3.org/2000/svg"
   version="1.1"
   width="150"
   height="150"
   viewBox="0 0 150 150"
   id="github">
  <path
     d="m 75,30 c -33.13712,0 -60,26.8632 -60,60 0,33.1368 26.86288,60 60,60 33.13712,0 60,-26.8632 60,-60 0,-33.1368 -26.86288,-60 -60,-60 z m 0,8 c 28.7188,0 52,23.2808 52,52 0,21.8192 -13.44816,40.5336 -32.5,48.2496 L 87,102 C 99.01944,96.128 109.0096,89.312 109,78.2496 108.936,62.716 90.9528,55.2576 75,54 55.73992,54.128 39.07864,64.6832 39,78 c -0.288,8.6816 8.21536,21.1896 24,24 l -8,36 C 36.22128,130.1576 23,111.6224 23,90 23,61.2808 46.2812,38 75,38 z"
     id="icon"
     style="fill:#050505;fill-opacity:1;stroke:none" />
</svg>
