<?xml version="1.0" encoding="UTF-8" standalone="no"?>

<svg
   xmlns:svg="http://www.w3.org/2000/svg"
   xmlns="http://www.w3.org/2000/svg"
   version="1.1"
   width="150"
   height="150"
   viewBox="0 0 150 150"
   id="linkedin">
  <path
     d="M 38.515516,31.24157 C 25.583825,31.24157 15,41.825155 15,54.757086 l 0,72.972814 c 0,12.93169 10.583585,23.51167 23.515516,23.51167 l 72.972814,0 C 124.42014,151.24157 135,140.66171 135,127.7299 l 0,-72.972814 C 135,41.825395 124.42014,31.24157 111.48833,31.24157 l -72.972814,0 z m 5.914504,19.802413 c 6.20047,0 10.0197,4.070499 10.137591,9.421118 0,5.232486 -3.937361,9.417395 -10.257522,9.417395 l -0.116331,0 c -6.082459,0 -10.013816,-4.184668 -10.013816,-9.417395 0,-5.350499 4.050329,-9.421118 10.249958,-9.421118 z m 53.432956,25.008129 c 11.924684,0 20.863914,7.794047 20.863914,24.543048 l 0,31.26755 -18.12228,0 0,-29.1712 c 0,-7.3304 -2.622794,-12.331545 -9.181133,-12.331545 -5.006668,0 -7.990931,3.370831 -9.301185,6.627135 -0.47865,1.164989 -0.5963,2.792061 -0.5963,4.42177 l 0,30.45384 -18.12228,0 c 0,0 0.237824,-49.415163 0,-54.531799 l 18.126001,0 0,7.722254 c 2.408253,-3.715622 6.715975,-9.001173 16.333263,-9.001173 z m -62.614087,1.28276 18.12228,0 0,54.528078 -18.12228,0 0,-54.528078 z"
     id="icon"
     style="fill:#050505;fill-opacity:1;stroke:none" />
</svg>
