<?xml version="1.0" encoding="UTF-8" standalone="no"?>

<svg
   xmlns:svg="http://www.w3.org/2000/svg"
   xmlns="http://www.w3.org/2000/svg"
   version="1.1"
   width="150"
   height="150"
   id="twitter">
  <path
     d="m 30,39.13301 0,80.90438 C 30.82021,128.61804 29.56606,146.49707 54.31667,150 l 59.6863,0 c 5.04305,-4.74459 5.12775,-9.48817 5.15805,-14.23277 -0.48061,-6.45163 -1.2181,-12.6933 -5.89495,-15.73186 l -48.63332,-0.74702 c -7.89709,-1.59196 -10.83631,-5.42499 -11.05299,-10.48756 l 0,-20.22611 60.51873,0.61579 c 3.56749,-4.74156 6.49142,-8.37572 5.79941,-14.84957 -0.37237,-9.85259 -2.99503,-12.83967 -5.89493,-14.98281 L 55.05355,58.61108 54.31675,39.13401 C 52.29781,35.57153 51.51267,31.25597 45.47434,30.14452 37.87803,29.17541 33.34029,33.18105 30.0001,39.13401 L 30,39.13201 z"
     id="icon"
     style="fill:#050505;fill-opacity:1;stroke:none" />
</svg>
